{
.appVersion = "3151";
.formatVersion = 3;
customParameters = (
{
name = blueScale;
value = 0.04801;
}
);
date = "2023-05-13 22:00:00 +0000";
familyName = "ET Book";
featurePrefixes = (
{
automatic = 1;
code = "languagesystem DFLT dflt;

languagesystem latn dflt;
";
name = Languagesystems;
}
);
features = (
{
automatic = 1;
code = "feature sups;
feature frac;
feature ordn;
";
tag = aalt;
},
{
automatic = 1;
code = "lookup ccmp_latn_1 {
	sub fi by f i;
	sub fl by f l;
} ccmp_latn_1;

script latn;
lookup ccmp_latn_1;
";
tag = ccmp;
},
{
automatic = 1;
code = "sub one by onesuperior;
sub two by twosuperior;
sub three by threesuperior;
";
tag = sups;
},
{
automatic = 1;
code = "sub one slash four by onequarter;
sub one slash two by onehalf;
sub three slash four by threequarters;
";
tag = frac;
},
{
automatic = 1;
code = "sub [zero one two three four five six seven eight nine] [A a]' by ordfeminine;
sub [zero one two three four five six seven eight nine] [O o]' by ordmasculine;
";
tag = ordn;
},
{
automatic = 1;
code = "lookupflag IgnoreMarks;
sub f f i by f_f_i;
sub f f l by f_f_l;
sub f f by f_f;
sub f i by fi;
sub f l by fl;
";
tag = liga;
}
);
fontMaster = (
{
customParameters = (
{
name = underlinePosition;
value = -111;
},
{
name = "Alignment Zones";
value = (
{
pos = "-1";
size = "-21";
},
{
pos = 427;
size = 3;
},
{
pos = 645;
size = 17;
},
{
pos = 754;
size = 4;
},
{
pos = "-272";
size = "-7";
}
);
}
);
id = m01;
metricValues = (
{
over = 15;
pos = 800;
},
{
over = 15;
pos = 650;
},
{
over = 15;
pos = 415;
},
{
over = -15;
},
{
over = -15;
pos = -200;
},
{
pos = 11;
}
);
name = Italic;
}
);
glyphs = (
{
glyphname = A;
lastChange = "2023-05-15 06:06:49 +0000";
layers = (
{
hints = (
{
place = (488, 97);
place = (488, 97);
type = Stem;
},
{
horizontal = 1;
place = (-3, 35);
place = (-3, 35);
type = Stem;
},
{
horizontal = 1;
place = (275, 53);
place = (275, 53);
type = Stem;
},
{
horizontal = 1;
place = (-4, 21);
target = up;
type = BottomGhost;
}
);
layerId = m01;
shapes = (
{
closed = 1;
nodes = (
(224,-4,o),
(228,33,o),
(210,33,c),
(203,33,o),
(194,32,o),
(185,33,c),
(159,35,o),
(134,35,o),
(134,65,c),
(134,75,o),
(137,88,o),
(149,104,c),
(264,259,l),
(274,269,o),
(286,275,o),
(295,275,c),
(343,278,o),
(415,278,o),
(469,275,c),
(475,275,o),
(489,267,o),
(489,262,c),
(488,107,l),
(488,46,o),
(469,32,o),
(383,32,c),
(365,32,o),
(364,-4,o),
(379,-4,c),
(450,-3,o),
(590,-1,o),
(658,-4,c),
(670,-5,o),
(675,1,o),
(676,12,c),
(678,23,o),
(673,33,o),
(663,34,c),
(661,34,o),
(659,34,o),
(656,34,c),
(647,34,o),
(637,32,o),
(629,33,c),
(606,36,o),
(585,43,o),
(585,83,c),
(579,653,l),
(579,670,o),
(517,666,o),
(510,656,c),
(98,120,l),
(47,53,o),
(25,40,o),
(-25,32,c),
(-47,32,o),
(-48,-3,o),
(-32,-3,c),
(40,-1,o),
(137,-3,o),
(206,-4,c)
);
},
{
closed = 1;
nodes = (
(330,328,o),
(328,343,o),
(332,347,c),
(370,395,o),
(424,478,o),
(469,535,c),
(472,538,o),
(490,556,o),
(490,533,c),
(490,343,l),
(490,331,o),
(476,328,o),
(470,328,c),
(438,329,o),
(378,330,o),
(341,328,c)
);
}
);
width = 693;
}
);
unicode = 65;
},
{
glyphname = Aacute;
lastChange = "2023-05-15 06:06:49 +0000";
layers = (
{
hints = (
{
place = (488, 91);
place = (488, 91);
type = Stem;
},
{
horizontal = 1;
place = (-3, 35);
place = (-3, 35);
type = Stem;
},
{
horizontal = 1;
place = (275, 53);
place = (275, 53);
type = Stem;
},
{
horizontal = 1;
place = (-4, 21);
target = up;
type = BottomGhost;
}
);
layerId = m01;
shapes = (
{
closed = 1;
nodes = (
(224,-4,o),
(228,33,o),
(210,33,c),
(203,33,o),
(194,32,o),
(185,33,c),
(159,35,o),
(134,35,o),
(134,65,c),
(134,75,o),
(137,88,o),
(149,104,c),
(264,258,l),
(274,269,o),
(285,274,o),
(295,275,c),
(343,277,o),
(415,278,o),
(469,275,c),
(475,275,o),
(489,267,o),
(488,262,c),
(488,107,l),
(488,46,o),
(469,32,o),
(383,32,c),
(365,32,o),
(364,-4,o),
(379,-4,c),
(450,-3,o),
(590,-1,o),
(658,-4,c),
(670,-5,o),
(675,1,o),
(676,12,c),
(678,23,o),
(673,33,o),
(663,34,c),
(661,34,o),
(659,34,o),
(656,34,c),
(647,34,o),
(637,32,o),
(629,33,c),
(606,36,o),
(584,43,o),
(584,83,c),
(579,653,l),
(579,670,o),
(517,666,o),
(510,656,c),
(98,120,l),
(47,53,o),
(25,40,o),
(-24,32,c),
(-47,32,o),
(-48,-3,o),
(-32,-3,c),
(40,-1,o),
(137,-3,o),
(206,-4,c)
);
},
{
closed = 1;
nodes = (
(325,328,o),
(328,343,o),
(331,347,c),
(370,395,o),
(435,492,o),
(480,549,c),
(483,552,o),
(490,561,o),
(490,538,c),
(490,343,l),
(490,331,o),
(476,328,o),
(470,328,c),
(438,329,o),
(373,330,o),
(336,328,c)
);
},
{
closed = 1;
nodes = (
(579,743,o),
(634,801,o),
(671,857,c),
(678,868,o),
(670,882,o),
(658,880,c),
(601,877,l),
(589,876,o),
(579,874,o),
(575,865,c),
(568,823,o),
(545,759,o),
(535,727,c),
(531,714,o),
(547,710,o),
(556,720,c)
);
}
);
width = 693;
}
);
unicode = 193;
},
{
glyphname = Acircumflex;
lastChange = "2023-05-15 06:06:49 +0000";
layers = (
{
hints = (
{
place = (488, 91);
place = (488, 91);
type = Stem;
},
{
horizontal = 1;
place = (-3, 35);
place = (-3, 35);
type = Stem;
},
{
horizontal = 1;
place = (275, 53);
place = (275, 53);
type = Stem;
},
{
horizontal = 1;
place = (858, -20);
target = down;
type = TopGhost;
},
{
horizontal = 1;
place = (-4, 21);
target = up;
type = BottomGhost;
}
);
layerId = m01;
shapes = (
{
closed = 1;
nodes = (
(224,-4,o),
(228,33,o),
(210,33,c),
(203,33,o),
(194,32,o),
(185,33,c),
(159,35,o),
(134,35,o),
(134,65,c),
(134,75,o),
(137,88,o),
(149,104,c),
(264,258,l),
(274,269,o),
(285,274,o),
(295,275,c),
(343,277,o),
(415,278,o),
(469,275,c),
(475,275,o),
(489,267,o),
(488,262,c),
(488,107,l),
(488,46,o),
(469,32,o),
(383,32,c),
(365,32,o),
(364,-4,o),
(379,-4,c),
(450,-3,o),
(590,-1,o),
(658,-4,c),
(670,-5,o),
(675,1,o),
(676,12,c),
(678,23,o),
(673,33,o),
(663,34,c),
(661,34,o),
(659,34,o),
(656,34,c),
(647,34,o),
(637,32,o),
(629,33,c),
(606,36,o),
(584,43,o),
(584,83,c),
(579,653,l),
(579,670,o),
(517,666,o),
(510,656,c),
(98,120,l),
(47,53,o),
(25,40,o),
(-24,32,c),
(-47,32,o),
(-48,-3,o),
(-32,-3,c),
(40,-1,o),
(137,-3,o),
(206,-4,c)
);
},
{
closed = 1;
nodes = (
(325,328,o),
(328,343,o),
(331,347,c),
(370,395,o),
(435,492,o),
(480,549,c),
(483,552,o),
(490,561,o),
(490,538,c),
(490,343,l),
(490,331,o),
(476,328,o),
(470,328,c),
(438,329,o),
(373,330,o),
(336,328,c)
);
},
{
closed = 1;
nodes = (
(555,781,l),
(565,787,o),
(582,780,o),
(587,775,c),
(596,765,o),
(633,719,o),
(651,698,c),
(654,691,o),
(674,688,o),
(670,698,c),
(627,846,l),
(625,854,o),
(614,858,o),
(607,858,c),
(567,858,l),
(555,856,o),
(552,855,o),
(544,848,c),
(403,709,l),
(377,683,o),
(406,689,o),
(420,698,c)
);
}
);
width = 693;
}
);
unicode = 194;
},
{
glyphname = Adieresis;
lastChange = "2023-05-15 06:06:49 +0000";
layers = (
{
hints = (
{
place = (598, 109);
place = (598, 109);
type = Stem;
},
{
horizontal = 1;
place = (702, 107);
place = (702, 107);
type = Stem;
},
{
place = (544, 54);
place = (544, 54);
type = Stem;
},
{
place = (436, 108);
place = (436, 108);
type = Stem;
},
{
horizontal = 1;
place = (-3, 35);
place = (-3, 35);
type = Stem;
},
{
horizontal = 1;
place = (275, 53);
place = (275, 53);
type = Stem;
},
{
horizontal = 1;
place = (808, -20);
target = down;
type = TopGhost;
},
{
place = (488, 91);
place = (488, 91);
type = Stem;
},
{
horizontal = 1;
place = (-4, 21);
target = up;
type = BottomGhost;
}
);
layerId = m01;
shapes = (
{
closed = 1;
nodes = (
(224,-4,o),
(228,33,o),
(210,33,c),
(203,33,o),
(194,32,o),
(185,33,c),
(159,35,o),
(134,35,o),
(134,65,c),
(134,75,o),
(137,88,o),
(149,104,c),
(264,258,l),
(274,269,o),
(285,274,o),
(295,275,c),
(343,277,o),
(415,278,o),
(469,275,c),
(475,275,o),
(489,267,o),
(488,262,c),
(488,107,l),
(488,46,o),
(469,32,o),
(383,32,c),
(365,32,o),
(364,-4,o),
(379,-4,c),
(450,-3,o),
(590,-1,o),
(658,-4,c),
(670,-5,o),
(675,1,o),
(676,12,c),
(678,23,o),
(673,33,o),
(663,34,c),
(661,34,o),
(659,34,o),
(656,34,c),
(647,34,o),
(637,32,o),
(629,33,c),
(606,36,o),
(584,43,o),
(584,83,c),
(579,653,l),
(579,670,o),
(517,666,o),
(510,656,c),
(98,120,l),
(47,53,o),
(25,40,o),
(-24,32,c),
(-47,32,o),
(-48,-3,o),
(-32,-3,c),
(40,-1,o),
(137,-3,o),
(206,-4,c)
);
},
{
closed = 1;
nodes = (
(325,328,o),
(328,343,o),
(331,347,c),
(370,395,o),
(435,492,o),
(480,549,c),
(483,552,o),
(490,561,o),
(490,538,c),
(490,343,l),
(490,331,o),
(476,328,o),
(470,328,c),
(438,329,o),
(373,330,o),
(336,328,c)
);
},
{
closed = 1;
nodes = (
(519,702,o),
(544,727,o),
(544,755,c),
(544,785,o),
(519,808,o),
(490,808,c),
(460,808,o),
(436,785,o),
(436,755,c),
(436,727,o),
(460,702,o),
(490,702,c)
);
},
{
closed = 1;
nodes = (
(683,702,o),
(707,727,o),
(707,756,c),
(707,786,o),
(683,809,o),
(653,809,c),
(623,809,o),
(598,786,o),
(598,756,c),
(598,727,o),
(623,702,o),
(653,702,c)
);
}
);
width = 693;
}
);
unicode = 196;
},
{
glyphname = Agrave;
lastChange = "2023-05-15 06:06:49 +0000";
layers = (
{
hints = (
{
horizontal = 1;
place = (876, -20);
target = down;
type = TopGhost;
},
{
place = (488, 91);
place = (488, 91);
type = Stem;
},
{
horizontal = 1;
place = (-3, 35);
place = (-3, 35);
type = Stem;
},
{
horizontal = 1;
place = (275, 53);
place = (275, 53);
type = Stem;
},
{
horizontal = 1;
place = (-4, 21);
target = up;
type = BottomGhost;
}
);
layerId = m01;
shapes = (
{
closed = 1;
nodes = (
(224,-4,o),
(228,33,o),
(210,33,c),
(203,33,o),
(194,32,o),
(185,33,c),
(159,35,o),
(134,35,o),
(134,65,c),
(134,75,o),
(137,88,o),
(149,104,c),
(264,258,l),
(274,269,o),
(285,274,o),
(295,275,c),
(343,277,o),
(415,278,o),
(469,275,c),
(475,275,o),
(489,267,o),
(488,262,c),
(488,107,l),
(488,46,o),
(469,32,o),
(383,32,c),
(365,32,o),
(364,-4,o),
(379,-4,c),
(450,-3,o),
(590,-1,o),
(658,-4,c),
(670,-5,o),
(675,1,o),
(676,12,c),
(678,23,o),
(673,33,o),
(663,34,c),
(661,34,o),
(659,34,o),
(656,34,c),
(647,34,o),
(637,32,o),
(629,33,c),
(606,36,o),
(584,43,o),
(584,83,c),
(579,653,l),
(579,670,o),
(517,666,o),
(510,656,c),
(98,120,l),
(47,53,o),
(25,40,o),
(-24,32,c),
(-47,32,o),
(-48,-3,o),
(-32,-3,c),
(40,-1,o),
(137,-3,o),
(206,-4,c)
);
},
{
closed = 1;
nodes = (
(325,328,o),
(328,343,o),
(331,347,c),
(370,395,o),
(435,492,o),
(480,549,c),
(483,552,o),
(490,561,o),
(490,538,c),
(490,343,l),
(490,331,o),
(476,328,o),
(470,328,c),
(438,329,o),
(373,330,o),
(336,328,c)
);
},
{
closed = 1;
nodes = (
(581,711,o),
(602,710,o),
(599,723,c),
(589,758,o),
(566,840,o),
(555,862,c),
(548,875,o),
(539,876,o),
(529,876,c),
(473,876,l),
(467,876,o),
(450,866,o),
(462,854,c),
(495,820,o),
(548,754,o),
(575,718,c)
);
}
);
width = 693;
}
);
unicode = 192;
},
{
glyphname = Aring;
lastChange = "2023-05-15 06:06:49 +0000";
layers = (
{
hints = (
{
place = (488, 91);
place = (488, 91);
type = Stem;
},
{
horizontal = 1;
place = (-3, 35);
place = (-3, 35);
type = Stem;
},
{
horizontal = 1;
place = (275, 53);
place = (275, 53);
type = Stem;
},
{
horizontal = 1;
place = (698, 43);
place = (698, 43);
type = Stem;
},
{
horizontal = 1;
place = (850, 43);
place = (850, 43);
type = Stem;
},
{
place = (608, 41);
place = (608, 41);
type = Stem;
},
{
horizontal = 1;
place = (-4, 21);
target = up;
type = BottomGhost;
},
{
place = (501, 107);
place = (501, 107);
type = Stem;
},
{
place = (458, 43);
place = (458, 43);
type = Stem;
}
);
layerId = m01;
shapes = (
{
closed = 1;
nodes = (
(224,-4,o),
(228,33,o),
(210,33,c),
(203,33,o),
(194,32,o),
(185,33,c),
(159,35,o),
(134,35,o),
(134,65,c),
(134,75,o),
(137,88,o),
(149,104,c),
(264,258,l),
(274,269,o),
(285,274,o),
(295,275,c),
(343,277,o),
(415,278,o),
(469,275,c),
(475,275,o),
(489,267,o),
(488,262,c),
(488,107,l),
(488,46,o),
(469,32,o),
(383,32,c),
(365,32,o),
(364,-4,o),
(379,-4,c),
(450,-3,o),
(590,-1,o),
(658,-4,c),
(670,-5,o),
(675,1,o),
(676,12,c),
(678,23,o),
(673,33,o),
(663,34,c),
(661,34,o),
(659,34,o),
(656,34,c),
(647,34,o),
(637,32,o),
(629,33,c),
(606,36,o),
(584,43,o),
(584,83,c),
(579,653,l),
(579,670,o),
(517,666,o),
(510,656,c),
(98,120,l),
(47,53,o),
(25,40,o),
(-24,32,c),
(-47,32,o),
(-48,-3,o),
(-32,-3,c),
(40,-1,o),
(137,-3,o),
(206,-4,c)
);
},
{
closed = 1;
nodes = (
(325,328,o),
(328,343,o),
(331,347,c),
(370,395,o),
(435,492,o),
(480,549,c),
(483,552,o),
(490,561,o),
(490,538,c),
(490,343,l),
(490,331,o),
(476,328,o),
(470,328,c),
(438,329,o),
(373,330,o),
(336,328,c)
);
},
{
closed = 1;
nodes = (
(607,698,o),
(649,741,o),
(649,795,c),
(649,849,o),
(607,893,o),
(554,893,c),
(502,893,o),
(458,849,o),
(458,795,c),
(458,741,o),
(502,698,o),
(554,698,c)
);
},
{
closed = 1;
nodes = (
(524,741,o),
(501,766,o),
(501,795,c),
(501,826,o),
(524,850,o),
(554,850,c),
(583,850,o),
(608,826,o),
(608,795,c),
(608,766,o),
(583,741,o),
(554,741,c)
);
}
);
width = 693;
}
);
unicode = 197;
},
{
glyphname = Atilde;
lastChange = "2023-05-15 06:06:49 +0000";
layers = (
{
hints = (
{
place = (488, 91);
place = (488, 91);
type = Stem;
},
{
horizontal = 1;
place = (-3, 35);
place = (-3, 35);
type = Stem;
},
{
horizontal = 1;
place = (275, 53);
place = (275, 53);
type = Stem;
},
{
horizontal = 1;
place = (713, 63);
place = (713, 63);
type = Stem;
},
{
horizontal = 1;
place = (781, 62);
place = (781, 62);
type = Stem;
},
{
horizontal = 1;
place = (-4, 21);
target = up;
type = BottomGhost;
},
{
horizontal = 1;
place = (848, -20);
target = down;
type = TopGhost;
}
);
layerId = m01;
shapes = (
{
closed = 1;
nodes = (
(224,-4,o),
(228,33,o),
(210,33,c),
(203,33,o),
(194,32,o),
(185,33,c),
(159,35,o),
(134,35,o),
(134,65,c),
(134,75,o),
(137,88,o),
(149,104,c),
(264,258,l),
(274,269,o),
(285,274,o),
(295,275,c),
(343,277,o),
(415,278,o),
(469,275,c),
(475,275,o),
(489,267,o),
(488,262,c),
(488,107,l),
(488,46,o),
(469,32,o),
(383,32,c),
(365,32,o),
(364,-4,o),
(379,-4,c),
(450,-3,o),
(590,-1,o),
(658,-4,c),
(670,-5,o),
(675,1,o),
(676,12,c),
(678,23,o),
(673,33,o),
(663,34,c),
(661,34,o),
(659,34,o),
(656,34,c),
(647,34,o),
(637,32,o),
(629,33,c),
(606,36,o),
(584,43,o),
(584,83,c),
(579,653,l),
(579,670,o),
(517,666,o),
(510,656,c),
(98,120,l),
(47,53,o),
(25,40,o),
(-24,32,c),
(-47,32,o),
(-48,-3,o),
(-32,-3,c),
(40,-1,o),
(137,-3,o),
(206,-4,c)
);
},
{
closed = 1;
nodes = (
(325,328,o),
(328,343,o),
(331,347,c),
(370,395,o),
(435,492,o),
(480,549,c),
(483,552,o),
(490,561,o),
(490,538,c),
(490,343,l),
(490,331,o),
(476,328,o),
(470,328,c),
(438,329,o),
(373,330,o),
(336,328,c)
);
},
{
closed = 1;
nodes = (
(660,713,o),
(712,758,o),
(727,829,c),
(728,832,o),
(729,836,o),
(728,842,c),
(729,846,o),
(724,849,o),
(717,848,c),
(711,848,o),
(704,846,o),
(703,842,c),
(684,788,o),
(670,776,o),
(649,776,c),
(637,776,o),
(622,782,o),
(596,803,c),
(557,834,o),
(536,843,o),
(506,843,c),
(445,843,o),
(402,802,o),
(380,716,c),
(379,703,o),
(401,708,o),
(407,716,c),
(410,726,o),
(413,730,o),
(413,734,c),
(429,770,o),
(441,781,o),
(460,781,c),
(473,781,o),
(482,778,o),
(513,752,c),
(545,726,o),
(575,713,o),
(602,713,c)
);
}
);
width = 693;
}
);
unicode = 195;
},
{
glyphname = AE;
lastChange = "2023-05-15 06:06:49 +0000";
layers = (
{
hints = (
{
horizontal = 1;
place = (608, 41);
place = (608, 41);
type = Stem;
},
{
horizontal = 1;
place = (-4, 33);
place = (-4, 33);
type = Stem;
},
{
horizontal = 1;
place = (252, 38);
place = (252, 38);
type = Stem;
},
{
horizontal = 1;
place = (309, 37);
place = (309, 37);
type = Stem;
},
{
horizontal = 1;
place = (-5, 21);
target = up;
type = BottomGhost;
}
);
layerId = m01;
shapes = (
{
closed = 1;
nodes = (
(-10,-5,o),
(133,-3,o),
(178,-5,c),
(191,-5,o),
(198,-2,o),
(200,9,c),
(201,14,o),
(200,20,o),
(200,19,c),
(199,25,o),
(202,28,o),
(188,29,c),
(139,32,o),
(132,41,o),
(132,60,c),
(132,74,o),
(137,85,o),
(162,117,c),
(261,243,l),
(269,253,o),
(276,252,o),
(289,252,c),
(447,252,l),
(462,252,o),
(470,245,o),
(467,232,c),
(444,116,l),
(431,50,o),
(414,34,o),
(361,32,c),
(350,31,o),
(339,33,o),
(339,21,c),
(339,8,l),
(339,1,o),
(345,-4,o),
(352,-4,c),
(529,-2,o),
(703,-2,o),
(856,-4,c),
(871,-4,o),
(881,4,o),
(885,17,c),
(897,41,o),
(919,103,o),
(928,134,c),
(933,153,o),
(929,152,o),
(918,152,c),
(901,150,o),
(899,148,o),
(892,137,c),
(873,110,o),
(859,97,o),
(832,79,c),
(758,29,o),
(705,36,o),
(618,36,c),
(546,36,o),
(530,47,o),
(530,79,c),
(530,86,o),
(531,92,o),
(532,97,c),
(571,290,l),
(574,306,o),
(581,309,o),
(591,309,c),
(738,309,l),
(817,309,o),
(834,293,o),
(834,241,c),
(834,228,o),
(833,223,o),
(842,223,c),
(863,223,o),
(864,218,o),
(867,237,c),
(872,276,o),
(889,359,o),
(899,403,c),
(902,417,o),
(893,415,o),
(882,415,c),
(866,415,o),
(873,417,o),
(867,403,c),
(850,364,o),
(821,346,o),
(778,346,c),
(603,346,l),
(589,346,o),
(584,356,o),
(585,363,c),
(631,594,l),
(634,611,o),
(661,608,o),
(676,608,c),
(818,608,l),
(891,608,o),
(918,583,o),
(918,515,c),
(918,504,l),
(918,498,o),
(919,494,o),
(930,494,c),
(939,494,o),
(945,491,o),
(949,511,c),
(954,535,o),
(971,586,o),
(973,627,c),
(976,643,o),
(972,647,o),
(959,648,c),
(918,650,o),
(590,644,o),
(446,649,c),
(439,649,o),
(427,648,o),
(424,637,c),
(420,627,l),
(416,618,o),
(425,614,o),
(432,613,c),
(460,611,o),
(507,614,o),
(483,583,c),
(359,427,o),
(237,269,o),
(113,113,c),
(97,94,o),
(79,76,o),
(61,60,c),
(41,42,o),
(20,33,o),
(-6,29,c),
(-11,29,o),
(-17,27,o),
(-19,19,c),
(-22,7,l),
(-24,-3,o),
(-20,-5,o),
(-8,-5,c)
);
},
{
closed = 1;
nodes = (
(310,290,o),
(304,297,o),
(310,304,c),
(528,585,l),
(533,587,o),
(536,579,o),
(533,563,c),
(482,308,l),
(480,296,o),
(475,290,o),
(462,290,c),
(323,290,l)
);
}
);
width = 965;
}
);
unicode = 198;
},
{
glyphname = B;
lastChange = "2023-05-15 06:06:49 +0000";
layers = (
{
hints = (
{
place = (535, 100);
place = (535, 100);
type = Stem;
},
{
horizontal = 1;
place = (609, 37);
place = (609, 37);
type = Stem;
},
{
horizontal = 1;
place = (-4, 41);
place = (-4, 41);
type = Stem;
},
{
horizontal = 1;
place = (346, 39);
place = (346, 39);
type = Stem;
},
{
horizontal = 1;
place = (647, -20);
target = down;
type = TopGhost;
},
{
place = (514, 103);
place = (514, 103);
type = Stem;
}
);
layerId = m01;
shapes = (
{
closed = 1;
nodes = (
(511,-6,o),
(617,71,o),
(617,194,c),
(617,264,o),
(573,324,o),
(500,353,c),
(493,355,o),
(496,360,o),
(502,362,c),
(585,382,o),
(635,436,o),
(635,505,c),
(635,596,o),
(557,649,o),
(429,646,c),
(355,644,o),
(216,644,o),
(152,647,c),
(144,647,o),
(138,637,o),
(138,630,c),
(135,607,o),
(155,612,o),
(169,609,c),
(241,610,o),
(226,567,o),
(216,518,c),
(133,128,l),
(119,60,o),
(105,42,o),
(65,36,c),
(53,33,o),
(46,36,o),
(37,36,c),
(19,36,o),
(15,-6,o),
(31,-3,c),
(114,-1,o),
(269,-3,o),
(341,-4,c)
);
},
{
closed = 1;
nodes = (
(233,37,o),
(217,61,o),
(233,140,c),
(271,322,l),
(279,341,o),
(290,346,o),
(302,346,c),
(338,346,l),
(449,346,o),
(514,292,o),
(514,205,c),
(514,146,o),
(488,95,o),
(445,65,c),
(413,43,o),
(383,37,o),
(323,37,c)
);
},
{
closed = 1;
nodes = (
(297,385,o),
(290,406,o),
(293,419,c),
(328,590,l),
(330,598,o),
(343,611,o),
(355,611,c),
(390,611,l),
(437,611,o),
(466,607,o),
(487,598,c),
(517,585,o),
(535,555,o),
(535,513,c),
(535,466,o),
(514,432,o),
(474,409,c),
(443,392,o),
(413,385,o),
(344,385,c),
(309,385,l)
);
}
);
width = 646;
}
);
unicode = 66;
},
{
glyphname = C;
lastChange = "2023-05-15 06:06:49 +0000";
layers = (
{
hints = (
{
horizontal = 1;
place = (-18, 40);
place = (-18, 40);
type = Stem;
},
{
horizontal = 1;
place = (623, 40);
place = (623, 40);
type = Stem;
},
{
place = (29, 105);
place = (29, 105);
type = Stem;
}
);
layerId = m01;
shapes = (
{
closed = 1;
nodes = (
(387,-18,o),
(426,-13,o),
(480,-2,c),
(521,6,o),
(532,12,o),
(571,0,c),
(578,-5,o),
(589,-4,o),
(592,4,c),
(643,159,l),
(649,176,o),
(619,182,o),
(614,171,c),
(546,73,o),
(460,22,o),
(354,22,c),
(214,22,o),
(134,115,o),
(134,268,c),
(134,465,o),
(295,623,o),
(493,623,c),
(608,623,o),
(660,576,o),
(660,487,c),
(660,475,o),
(660,472,o),
(657,460,c),
(653,444,o),
(684,441,o),
(689,457,c),
(709,529,o),
(721,566,o),
(727,586,c),
(733,605,o),
(721,618,o),
(713,621,c),
(643,648,o),
(578,663,o),
(500,663,c),
(237,663,o),
(29,495,o),
(29,278,c),
(29,93,o),
(174,-18,o),
(349,-18,c)
);
}
);
width = 712;
}
);
unicode = 67;
},
{
glyphname = Ccedilla;
lastChange = "2023-05-15 06:06:49 +0000";
layers = (
{
hints = (
{
horizontal = 1;
place = (623, 40);
place = (623, 40);
type = Stem;
},
{
place = (29, 105);
place = (29, 105);
type = Stem;
},
{
horizontal = 1;
place = (-17, 39);
place = (-17, 39);
type = Stem;
},
{
place = (335, 57);
place = (335, 57);
type = Stem;
},
{
horizontal = 1;
place = (-211, 28);
place = (-211, 28);
type = Stem;
},
{
horizontal = 1;
place = (-18, 21);
target = up;
type = BottomGhost;
}
);
layerId = m01;
shapes = (
{
closed = 1;
nodes = (
(338,-211,o),
(392,-174,o),
(392,-110,c),
(392,-74,o),
(372,-45,o),
(340,-39,c),
(350,-18,l),
(388,-18,o),
(427,-13,o),
(480,-2,c),
(521,6,o),
(532,12,o),
(571,0,c),
(578,-5,o),
(589,-4,o),
(592,4,c),
(643,159,l),
(649,176,o),
(619,182,o),
(614,171,c),
(546,73,o),
(460,22,o),
(354,22,c),
(214,22,o),
(134,115,o),
(134,268,c),
(134,465,o),
(295,623,o),
(493,623,c),
(608,623,o),
(660,576,o),
(660,487,c),
(660,475,o),
(660,472,o),
(657,460,c),
(653,444,o),
(684,441,o),
(689,457,c),
(709,529,o),
(721,566,o),
(727,586,c),
(733,605,o),
(721,618,o),
(713,621,c),
(643,648,o),
(578,663,o),
(500,663,c),
(237,663,o),
(29,495,o),
(29,278,c),
(29,102,o),
(160,-7,o),
(323,-17,c),
(289,-86,l),
(285,-94,o),
(288,-96,o),
(295,-97,c),
(326,-100,o),
(335,-112,o),
(335,-129,c),
(335,-162,o),
(308,-183,o),
(255,-183,c),
(249,-183,o),
(246,-183,o),
(231,-182,c),
(219,-182,o),
(211,-204,o),
(228,-209,c),
(245,-211,o),
(250,-211,o),
(257,-211,c)
);
}
);
width = 712;
}
);
unicode = 199;
},
{
glyphname = D;
lastChange = "2023-05-15 06:06:49 +0000";
layers = (
{
hints = (
{
horizontal = 1;
place = (-3, 42);
place = (-3, 42);
type = Stem;
},
{
horizontal = 1;
place = (607, 39);
place = (607, 39);
type = Stem;
},
{
place = (672, 108);
place = (672, 108);
type = Stem;
}
);
layerId = m01;
shapes = (
{
closed = 1;
nodes = (
(96,-1,o),
(272,-2,o),
(363,-3,c),
(597,-5,o),
(780,155,o),
(780,357,c),
(780,533,o),
(637,647,o),
(423,646,c),
(323,645,o),
(198,644,o),
(128,646,c),
(111,646,o),
(104,608,o),
(123,607,c),
(153,606,l),
(223,604,o),
(220,583,o),
(209,530,c),
(123,128,l),
(107,51,o),
(98,42,o),
(53,40,c),
(44,39,o),
(39,40,o),
(34,40,c),
(25,40,o),
(12,40,o),
(6,32,c),
(-4,21,o),
(-3,-3,o),
(13,-3,c)
);
},
{
closed = 1;
nodes = (
(223,39,o),
(202,44,o),
(217,115,c),
(318,588,l),
(323,602,o),
(339,607,o),
(350,607,c),
(521,614,o),
(672,548,o),
(672,363,c),
(672,223,o),
(580,98,o),
(449,57,c),
(414,46,o),
(357,39,o),
(301,39,c)
);
}
);
width = 793;
}
);
unicode = 68;
},
{
glyphname = Eth;
lastChange = "2023-05-15 06:06:49 +0000";
layers = (
{
hints = (
{
place = (679, 102);
place = (679, 102);
type = Stem;
},
{
horizontal = 1;
place = (614, 32);
place = (614, 32);
type = Stem;
},
{
horizontal = 1;
place = (290, 65);
place = (290, 65);
type = Stem;
},
{
horizontal = 1;
place = (-4, 21);
target = up;
type = BottomGhost;
},
{
horizontal = 1;
place = (-3, 38);
place = (-3, 38);
type = Stem;
}
);
layerId = m01;
shapes = (
{
closed = 1;
nodes = (
(127,-5,o),
(300,-3,o),
(388,-3,c),
(608,-2,o),
(781,155,o),
(781,357,c),
(781,533,o),
(646,646,o),
(444,646,c),
(156,646,l),
(147,646,o),
(140,646,o),
(138,638,c),
(135,623,l),
(132,609,o),
(162,614,o),
(168,614,c),
(234,614,o),
(228,579,o),
(219,532,c),
(188,374,l),
(185,361,o),
(186,355,o),
(172,355,c),
(85,355,l),
(66,355,o),
(68,350,o),
(67,341,c),
(60,309,l),
(57,297,o),
(58,290,o),
(74,290,c),
(151,290,l),
(165,290,o),
(169,285,o),
(166,269,c),
(139,128,l),
(122,41,o),
(109,30,o),
(51,30,c),
(34,30,o),
(35,28,o),
(31,8,c),
(29,-1,o),
(37,-4,o),
(43,-4,c)
);
},
{
closed = 1;
nodes = (
(245,35,o),
(225,48,o),
(225,88,c),
(225,130,o),
(249,231,o),
(259,273,c),
(262,284,o),
(261,290,o),
(279,290,c),
(410,290,l),
(420,290,o),
(425,289,o),
(428,306,c),
(434,339,l),
(436,349,o),
(437,355,o),
(422,355,c),
(293,355,l),
(276,355,o),
(276,361,o),
(279,376,c),
(323,594,l),
(327,612,o),
(338,609,o),
(375,609,c),
(464,609,o),
(507,602,o),
(552,579,c),
(634,538,o),
(679,461,o),
(679,363,c),
(679,223,o),
(591,94,o),
(468,53,c),
(434,42,o),
(380,35,o),
(328,35,c)
);
}
);
width = 773;
}
);
unicode = 208;
},
{
glyphname = E;
lastChange = "2023-05-15 06:06:49 +0000";
layers = (
{
hints = (
{
horizontal = 1;
place = (-2, 43);
place = (-2, 43);
type = Stem;
},
{
horizontal = 1;
place = (308, 40);
place = (308, 40);
type = Stem;
},
{
horizontal = 1;
place = (608, 38);
place = (608, 38);
type = Stem;
}
);
layerId = m01;
shapes = (
{
closed = 1;
nodes = (
(533,-2,l),
(561,-2,o),
(566,-1,o),
(575,9,c),
(586,42,o),
(607,107,o),
(621,141,c),
(623,150,o),
(613,153,o),
(609,153,c),
(602,153,o),
(598,152,o),
(593,145,c),
(566,109,o),
(554,100,o),
(523,78,c),
(485,50,o),
(445,38,o),
(379,38,c),
(309,38,l),
(261,38,o),
(202,35,o),
(216,99,c),
(256,285,l),
(257,294,o),
(273,308,o),
(283,308,c),
(283,308,o),
(320,307,o),
(351,308,c),
(383,310,o),
(403,308,o),
(403,308,c),
(486,308,o),
(505,293,o),
(505,245,c),
(505,240,o),
(505,236,o),
(504,230,c),
(500,215,o),
(534,216,o),
(535,229,c),
(548,274,o),
(561,365,o),
(572,407,c),
(579,422,o),
(547,425,o),
(543,413,c),
(520,362,o),
(496,348,o),
(439,348,c),
(439,348,o),
(384,350,o),
(359,348,c),
(334,346,o),
(292,348,o),
(292,348,c),
(280,348,o),
(271,355,o),
(272,361,c),
(317,578,l),
(323,605,o),
(339,608,o),
(344,608,c),
(496,608,l),
(576,608,o),
(605,582,o),
(605,519,c),
(605,514,o),
(605,512,o),
(604,502,c),
(602,489,o),
(634,487,o),
(632,501,c),
(658,618,l),
(663,641,o),
(661,646,o),
(638,646,c),
(506,645,o),
(261,645,o),
(136,646,c),
(120,650,o),
(111,609,o),
(129,611,c),
(155,611,l),
(196,611,o),
(217,598,o),
(217,572,c),
(217,565,o),
(216,553,o),
(211,531,c),
(123,116,l),
(110,55,o),
(99,44,o),
(55,41,c),
(47,40,o),
(36,41,o),
(25,40,c),
(2,39,o),
(-6,-5,o),
(13,-3,c)
);
}
);
width = 662;
}
);
unicode = 69;
},
{
glyphname = Eacute;
lastChange = "2023-05-15 06:06:49 +0000";
layers = (
{
hints = (
{
horizontal = 1;
place = (-2, 43);
place = (-2, 43);
type = Stem;
},
{
horizontal = 1;
place = (308, 40);
place = (308, 40);
type = Stem;
},
{
horizontal = 1;
place = (608, 38);
place = (608, 38);
type = Stem;
}
);
layerId = m01;
shapes = (
{
closed = 1;
nodes = (
(533,-2,l),
(561,-2,o),
(566,-1,o),
(575,9,c),
(586,42,o),
(607,107,o),
(621,141,c),
(623,150,o),
(613,153,o),
(609,153,c),
(602,153,o),
(598,152,o),
(593,145,c),
(566,109,o),
(554,100,o),
(523,78,c),
(485,50,o),
(445,38,o),
(379,38,c),
(309,38,l),
(261,38,o),
(202,35,o),
(216,99,c),
(258,296,l),
(260,305,o),
(265,308,o),
(275,308,c),
(275,308,o),
(320,307,o),
(351,308,c),
(383,310,o),
(403,308,o),
(403,308,c),
(486,308,o),
(505,293,o),
(505,245,c),
(505,240,o),
(505,236,o),
(504,230,c),
(500,215,o),
(534,216,o),
(535,229,c),
(548,274,o),
(561,365,o),
(572,407,c),
(579,422,o),
(547,425,o),
(543,413,c),
(520,362,o),
(496,348,o),
(439,348,c),
(439,348,o),
(384,350,o),
(359,348,c),
(333,346,o),
(289,348,o),
(289,348,c),
(277,348,o),
(271,355,o),
(272,361,c),
(321,597,l),
(323,605,o),
(339,608,o),
(344,608,c),
(496,608,l),
(576,608,o),
(605,582,o),
(605,519,c),
(605,514,o),
(605,512,o),
(604,502,c),
(602,489,o),
(633,487,o),
(632,501,c),
(658,618,l),
(663,641,o),
(661,646,o),
(638,646,c),
(506,645,o),
(261,645,o),
(136,646,c),
(120,650,o),
(111,609,o),
(129,611,c),
(155,611,l),
(196,611,o),
(217,598,o),
(217,572,c),
(217,565,o),
(216,553,o),
(211,531,c),
(123,116,l),
(110,55,o),
(99,44,o),
(55,41,c),
(47,40,o),
(36,41,o),
(25,40,c),
(2,39,o),
(-6,-5,o),
(13,-3,c)
);
},
{
closed = 1;
nodes = (
(470,743,o),
(526,801,o),
(562,857,c),
(569,868,o),
(561,882,o),
(549,880,c),
(492,877,l),
(480,876,o),
(470,874,o),
(466,865,c),
(459,823,o),
(436,759,o),
(426,727,c),
(422,714,o),
(439,710,o),
(447,720,c)
);
}
);
width = 662;
}
);
unicode = 201;
},
{
glyphname = Ecircumflex;
lastChange = "2023-05-15 06:06:49 +0000";
layers = (
{
hints = (
{
horizontal = 1;
place = (-2, 43);
place = (-2, 43);
type = Stem;
},
{
horizontal = 1;
place = (308, 40);
place = (308, 40);
type = Stem;
},
{
horizontal = 1;
place = (608, 38);
place = (608, 38);
type = Stem;
},
{
horizontal = 1;
place = (858, -20);
target = down;
type = TopGhost;
}
);
layerId = m01;
shapes = (
{
closed = 1;
nodes = (
(533,-2,l),
(561,-2,o),
(566,-1,o),
(575,9,c),
(586,42,o),
(607,107,o),
(621,141,c),
(623,150,o),
(613,153,o),
(609,153,c),
(602,153,o),
(598,152,o),
(593,145,c),
(566,109,o),
(554,100,o),
(523,78,c),
(485,50,o),
(445,38,o),
(379,38,c),
(309,38,l),
(261,38,o),
(202,35,o),
(216,99,c),
(258,296,l),
(260,305,o),
(265,308,o),
(275,308,c),
(275,308,o),
(320,307,o),
(351,308,c),
(383,310,o),
(403,308,o),
(403,308,c),
(486,308,o),
(505,293,o),
(505,245,c),
(505,240,o),
(505,236,o),
(504,230,c),
(500,215,o),
(534,216,o),
(535,229,c),
(548,274,o),
(561,365,o),
(572,407,c),
(579,422,o),
(547,425,o),
(543,413,c),
(520,362,o),
(496,348,o),
(439,348,c),
(439,348,o),
(384,350,o),
(359,348,c),
(333,346,o),
(289,348,o),
(289,348,c),
(277,348,o),
(271,355,o),
(272,361,c),
(321,597,l),
(323,605,o),
(339,608,o),
(344,608,c),
(496,608,l),
(576,608,o),
(605,582,o),
(605,519,c),
(605,514,o),
(605,512,o),
(604,502,c),
(602,489,o),
(633,487,o),
(632,501,c),
(658,618,l),
(663,641,o),
(661,646,o),
(638,646,c),
(506,645,o),
(261,645,o),
(136,646,c),
(120,650,o),
(111,609,o),
(129,611,c),
(155,611,l),
(196,611,o),
(217,598,o),
(217,572,c),
(217,565,o),
(216,553,o),
(211,531,c),
(123,116,l),
(110,55,o),
(99,44,o),
(55,41,c),
(47,40,o),
(36,41,o),
(25,40,c),
(2,39,o),
(-6,-5,o),
(13,-3,c)
);
},
{
closed = 1;
nodes = (
(445,781,l),
(455,787,o),
(472,780,o),
(477,775,c),
(486,765,o),
(523,719,o),
(541,698,c),
(544,691,o),
(564,688,o),
(560,698,c),
(517,846,l),
(514,855,o),
(504,858,o),
(497,858,c),
(457,858,l),
(445,856,o),
(442,855,o),
(434,848,c),
(293,709,l),
(267,683,o),
(296,689,o),
(310,698,c)
);
}
);
width = 662;
}
);
unicode = 202;
},
{
glyphname = Edieresis;
lastChange = "2023-05-15 06:06:49 +0000";
layers = (
{
hints = (
{
horizontal = 1;
place = (702, 107);
place = (702, 107);
type = Stem;
},
{
horizontal = 1;
place = (-2, 43);
place = (-2, 43);
type = Stem;
},
{
horizontal = 1;
place = (308, 40);
place = (308, 40);
type = Stem;
},
{
horizontal = 1;
place = (608, 38);
place = (608, 38);
type = Stem;
},
{
horizontal = 1;
place = (808, -20);
target = down;
type = TopGhost;
}
);
layerId = m01;
shapes = (
{
closed = 1;
nodes = (
(533,-2,l),
(561,-2,o),
(566,-1,o),
(575,9,c),
(586,42,o),
(607,107,o),
(621,141,c),
(623,150,o),
(613,153,o),
(609,153,c),
(602,153,o),
(598,152,o),
(593,145,c),
(566,109,o),
(554,100,o),
(523,78,c),
(485,50,o),
(445,38,o),
(379,38,c),
(309,38,l),
(261,38,o),
(202,35,o),
(216,99,c),
(258,296,l),
(260,305,o),
(265,308,o),
(275,308,c),
(275,308,o),
(320,307,o),
(351,308,c),
(383,310,o),
(403,308,o),
(403,308,c),
(486,308,o),
(505,293,o),
(505,245,c),
(505,240,o),
(505,236,o),
(504,230,c),
(500,215,o),
(534,216,o),
(535,229,c),
(548,274,o),
(561,365,o),
(572,407,c),
(579,422,o),
(547,425,o),
(543,413,c),
(520,362,o),
(496,348,o),
(439,348,c),
(439,348,o),
(384,350,o),
(359,348,c),
(333,346,o),
(289,348,o),
(289,348,c),
(277,348,o),
(271,355,o),
(272,361,c),
(321,597,l),
(323,605,o),
(339,608,o),
(344,608,c),
(496,608,l),
(576,608,o),
(605,582,o),
(605,519,c),
(605,514,o),
(605,512,o),
(604,502,c),
(602,489,o),
(633,487,o),
(632,501,c),
(658,618,l),
(663,641,o),
(661,646,o),
(638,646,c),
(506,645,o),
(261,645,o),
(136,646,c),
(120,650,o),
(111,609,o),
(129,611,c),
(155,611,l),
(196,611,o),
(217,598,o),
(217,572,c),
(217,565,o),
(216,553,o),
(211,531,c),
(123,116,l),
(110,55,o),
(99,44,o),
(55,41,c),
(47,40,o),
(36,41,o),
(25,40,c),
(2,39,o),
(-6,-5,o),
(13,-3,c)
);
},
{
closed = 1;
nodes = (
(391,702,o),
(416,727,o),
(416,755,c),
(416,785,o),
(391,808,o),
(362,808,c),
(332,808,o),
(308,785,o),
(308,755,c),
(308,727,o),
(332,702,o),
(362,702,c)
);
},
{
closed = 1;
nodes = (
(555,702,o),
(579,727,o),
(579,756,c),
(579,786,o),
(555,809,o),
(525,809,c),
(495,809,o),
(471,786,o),
(471,756,c),
(471,727,o),
(495,702,o),
(525,702,c)
);
}
);
width = 662;
}
);
unicode = 203;
},
{
glyphname = Egrave;
lastChange = "2023-05-15 06:06:49 +0000";
layers = (
{
hints = (
{
horizontal = 1;
place = (-2, 43);
place = (-2, 43);
type = Stem;
},
{
horizontal = 1;
place = (308, 40);
place = (308, 40);
type = Stem;
},
{
horizontal = 1;
place = (608, 38);
place = (608, 38);
type = Stem;
},
{
horizontal = 1;
place = (876, -20);
target = down;
type = TopGhost;
}
);
layerId = m01;
shapes = (
{
closed = 1;
nodes = (
(533,-2,l),
(561,-2,o),
(566,-1,o),
(575,9,c),
(586,42,o),
(607,107,o),
(621,141,c),
(623,150,o),
(613,153,o),
(609,153,c),
(602,153,o),
(598,152,o),
(593,145,c),
(566,109,o),
(554,100,o),
(523,78,c),
(485,50,o),
(445,38,o),
(379,38,c),
(309,38,l),
(261,38,o),
(202,35,o),
(216,99,c),
(258,296,l),
(260,305,o),
(265,308,o),
(275,308,c),
(275,308,o),
(320,307,o),
(351,308,c),
(383,310,o),
(403,308,o),
(403,308,c),
(486,308,o),
(505,293,o),
(505,245,c),
(505,240,o),
(505,236,o),
(504,230,c),
(500,215,o),
(534,216,o),
(535,229,c),
(548,274,o),
(561,365,o),
(572,407,c),
(579,422,o),
(547,425,o),
(543,413,c),
(520,362,o),
(496,348,o),
(439,348,c),
(439,348,o),
(384,350,o),
(359,348,c),
(333,346,o),
(289,348,o),
(289,348,c),
(277,348,o),
(271,355,o),
(272,361,c),
(321,597,l),
(323,605,o),
(339,608,o),
(344,608,c),
(496,608,l),
(576,608,o),
(605,582,o),
(605,519,c),
(605,514,o),
(605,512,o),
(604,502,c),
(602,489,o),
(633,487,o),
(632,501,c),
(658,618,l),
(663,641,o),
(661,646,o),
(638,646,c),
(506,645,o),
(261,645,o),
(136,646,c),
(120,650,o),
(111,609,o),
(129,611,c),
(155,611,l),
(196,611,o),
(217,598,o),
(217,572,c),
(217,565,o),
(216,553,o),
(211,531,c),
(123,116,l),
(110,55,o),
(99,44,o),
(55,41,c),
(47,40,o),
(36,41,o),
(25,40,c),
(2,39,o),
(-6,-5,o),
(13,-3,c)
);
},
{
closed = 1;
nodes = (
(452,711,o),
(473,710,o),
(470,723,c),
(460,758,o),
(437,840,o),
(426,862,c),
(419,875,o),
(410,876,o),
(400,876,c),
(344,876,l),
(338,876,o),
(321,866,o),
(333,854,c),
(367,820,o),
(420,754,o),
(447,718,c)
);
}
);
width = 662;
}
);
unicode = 200;
},
{
glyphname = F;
lastChange = "2023-05-15 06:06:49 +0000";
layers = (
{
hints = (
{
horizontal = 1;
place = (608, 38);
place = (608, 38);
type = Stem;
},
{
horizontal = 1;
place = (-3, 39);
place = (-3, 39);
type = Stem;
},
{
horizontal = 1;
place = (307, 42);
place = (307, 42);
type = Stem;
},
{
horizontal = 1;
place = (-4, 21);
target = up;
type = BottomGhost;
}
);
layerId = m01;
shapes = (
{
closed = 1;
nodes = (
(302,-3,o),
(307,13,o),
(306,24,c),
(304,32,o),
(290,42,o),
(278,38,c),
(268,38,o),
(259,36,o),
(251,37,c),
(198,45,o),
(207,75,o),
(215,114,c),
(252,287,l),
(256,304,o),
(264,307,o),
(267,307,c),
(299,307,o),
(364,306,o),
(399,307,c),
(454,309,o),
(470,291,o),
(470,226,c),
(470,213,o),
(498,211,o),
(501,228,c),
(507,268,o),
(524,362,o),
(538,412,c),
(541,421,o),
(510,427,o),
(506,415,c),
(479,365,o),
(461,348,o),
(413,349,c),
(380,350,o),
(314,350,o),
(281,349,c),
(272,349,o),
(266,359,o),
(269,372,c),
(313,578,l),
(316,593,o),
(327,609,o),
(340,609,c),
(462,608,l),
(535,607,o),
(556,587,o),
(556,519,c),
(556,515,o),
(555,509,o),
(555,501,c),
(554,485,o),
(584,491,o),
(585,500,c),
(593,531,o),
(605,590,o),
(610,622,c),
(614,645,o),
(602,646,o),
(589,646,c),
(453,645,o),
(251,645,o),
(140,646,c),
(122,648,o),
(121,610,o),
(135,610,c),
(152,610,l),
(192,610,o),
(213,594,o),
(213,570,c),
(213,561,o),
(212,553,o),
(207,531,c),
(118,116,l),
(104,52,o),
(90,38,o),
(48,36,c),
(40,36,o),
(33,35,o),
(25,35,c),
(8,37,o),
(6,-4,o),
(21,-3,c),
(87,0,o),
(222,-1,o),
(291,-4,c)
);
}
);
width = 549;
}
);
unicode = 70;
},
{
glyphname = G;
lastChange = "2023-05-15 06:06:49 +0000";
layers = (
{
hints = (
{
horizontal = 1;
place = (-18, 37);
place = (-18, 37);
type = Stem;
},
{
horizontal = 1;
place = (625, 37);
place = (625, 37);
type = Stem;
},
{
place = (66, 102);
place = (66, 102);
type = Stem;
},
{
place = (573, 75);
place = (573, 75);
type = Stem;
}
);
layerId = m01;
shapes = (
{
closed = 1;
nodes = (
(488,-18,o),
(593,-3,o),
(676,19,c),
(689,22,o),
(691,45,o),
(680,48,c),
(655,49,o),
(648,57,o),
(648,65,c),
(648,94,o),
(660,126,o),
(665,155,c),
(673,201,o),
(689,207,o),
(729,212,c),
(733,213,o),
(737,213,o),
(741,213,c),
(754,214,o),
(758,245,o),
(744,247,c),
(687,245,o),
(587,245,o),
(515,247,c),
(503,247,o),
(491,218,o),
(509,214,c),
(518,213,l),
(563,208,o),
(573,204,o),
(573,173,c),
(573,146,o),
(561,75,o),
(542,56,c),
(520,36,o),
(463,19,o),
(404,19,c),
(232,19,o),
(168,113,o),
(168,271,c),
(168,470,o),
(286,625,o),
(474,625,c),
(593,625,o),
(668,566,o),
(693,466,c),
(696,454,o),
(727,456,o),
(722,473,c),
(720,586,l),
(720,603,o),
(718,612,o),
(709,615,c),
(629,645,o),
(553,662,o),
(479,662,c),
(232,662,o),
(66,494,o),
(66,285,c),
(66,87,o),
(227,-18,o),
(400,-18,c)
);
}
);
width = 747;
}
);
unicode = 71;
},
{
glyphname = H;
lastChange = "2023-05-15 06:06:49 +0000";
layers = (
{
hints = (
{
horizontal = 1;
place = (612, 35);
place = (612, 35);
type = Stem;
},
{
horizontal = 1;
place = (305, 45);
place = (305, 45);
type = Stem;
},
{
horizontal = 1;
place = (-3, 38);
place = (-3, 38);
type = Stem;
},
{
horizontal = 1;
place = (-1, 21);
target = up;
type = BottomGhost;
}
);
layerId = m01;
shapes = (
{
closed = 1;
nodes = (
(102,-1,o),
(194,-1,o),
(291,-3,c),
(303,-5,o),
(312,34,o),
(293,34,c),
(284,36,o),
(278,37,o),
(269,35,c),
(199,35,o),
(197,59,o),
(209,114,c),
(246,288,l),
(248,298,o),
(260,304,o),
(268,305,c),
(365,306,o),
(489,307,o),
(561,304,c),
(563,304,o),
(582,304,o),
(578,286,c),
(542,116,l),
(529,56,o),
(515,40,o),
(472,35,c),
(459,34,o),
(445,38,o),
(433,35,c),
(422,36,o),
(416,15,o),
(420,4,c),
(422,-2,o),
(424,-1,o),
(437,-3,c),
(521,-2,o),
(616,1,o),
(690,-1,c),
(703,-1,o),
(716,-7,o),
(723,4,c),
(728,14,o),
(725,36,o),
(716,37,c),
(706,39,o),
(698,36,o),
(688,37,c),
(649,39,o),
(634,50,o),
(634,78,c),
(634,90,o),
(636,102,o),
(639,114,c),
(724,516,l),
(740,591,o),
(756,608,o),
(800,612,c),
(808,613,o),
(818,611,o),
(826,611,c),
(837,613,o),
(846,648,o),
(830,647,c),
(759,645,o),
(629,645,o),
(566,647,c),
(549,647,o),
(549,612,o),
(561,612,c),
(629,612,o),
(643,596,o),
(630,532,c),
(595,362,l),
(594,356,o),
(583,350,o),
(576,350,c),
(503,352,o),
(361,352,o),
(274,350,c),
(269,350,o),
(258,358,o),
(263,370,c),
(296,529,l),
(309,590,o),
(325,607,o),
(366,610,c),
(379,611,o),
(393,611,o),
(406,610,c),
(418,610,o),
(423,650,o),
(408,648,c),
(338,645,o),
(196,646,o),
(123,648,c),
(106,649,o),
(103,615,o),
(117,612,c),
(125,613,o),
(129,608,o),
(153,609,c),
(215,613,o),
(209,574,o),
(200,532,c),
(115,128,l),
(99,50,o),
(77,38,o),
(21,35,c),
(1,34,l),
(-14,33,o),
(-17,-3,o),
(-5,-3,c)
);
}
);
width = 773;
}
);
unicode = 72;
},
{
glyphname = I;
lastChange = "2023-05-15 06:06:49 +0000";
layers = (
{
hints = (
{
horizontal = 1;
place = (-3, 37);
place = (-3, 37);
type = Stem;
},
{
horizontal = 1;
place = (612, 34);
place = (612, 34);
type = Stem;
}
);
layerId = m01;
shapes = (
{
closed = 1;
nodes = (
(119,0,o),
(215,0,o),
(300,-3,c),
(314,-2,o),
(320,33,o),
(302,33,c),
(256,32,o),
(223,34,o),
(223,82,c),
(223,93,o),
(227,103,o),
(229,114,c),
(316,529,l),
(331,600,o),
(344,609,o),
(404,612,c),
(408,611,o),
(412,612,o),
(415,613,c),
(425,614,o),
(437,646,o),
(417,646,c),
(348,644,o),
(240,645,o),
(165,646,c),
(155,646,o),
(152,647,o),
(147,640,c),
(140,631,o),
(136,614,o),
(150,610,c),
(154,609,o),
(163,609,o),
(167,609,c),
(209,607,o),
(226,599,o),
(226,574,c),
(226,566,o),
(224,553,o),
(220,532,c),
(133,116,l),
(120,55,o),
(104,33,o),
(39,34,c),
(22,34,o),
(15,-4,o),
(34,-3,c)
);
}
);
width = 356;
}
);
unicode = 73;
},
{
glyphname = Iacute;
lastChange = "2023-05-15 06:06:49 +0000";
layers = (
{
hints = (
{
horizontal = 1;
place = (-3, 37);
place = (-3, 37);
type = Stem;
},
{
horizontal = 1;
place = (612, 34);
place = (612, 34);
type = Stem;
}
);
layerId = m01;
shapes = (
{
closed = 1;
nodes = (
(119,0,o),
(215,0,o),
(300,-3,c),
(314,-2,o),
(320,33,o),
(302,33,c),
(256,32,o),
(223,34,o),
(223,82,c),
(223,93,o),
(226,103,o),
(228,114,c),
(316,529,l),
(331,600,o),
(344,609,o),
(404,612,c),
(408,611,o),
(412,612,o),
(415,613,c),
(425,614,o),
(437,646,o),
(417,646,c),
(348,644,o),
(240,645,o),
(165,646,c),
(155,646,o),
(152,647,o),
(147,640,c),
(140,631,o),
(136,614,o),
(150,610,c),
(154,609,o),
(163,609,o),
(167,609,c),
(209,607,o),
(226,599,o),
(226,574,c),
(226,566,o),
(224,553,o),
(220,532,c),
(133,116,l),
(120,55,o),
(104,33,o),
(39,34,c),
(22,34,o),
(15,-4,o),
(34,-3,c)
);
},
{
closed = 1;
nodes = (
(317,743,o),
(372,801,o),
(409,857,c),
(416,868,o),
(407,882,o),
(396,880,c),
(339,877,l),
(326,876,o),
(316,874,o),
(313,865,c),
(305,823,o),
(283,759,o),
(273,727,c),
(269,714,o),
(285,710,o),
(293,720,c)
);
}
);
width = 355;
}
);
unicode = 205;
},
{
glyphname = Icircumflex;
lastChange = "2023-05-15 06:06:49 +0000";
layers = (
{
hints = (
{
horizontal = 1;
place = (-3, 37);
place = (-3, 37);
type = Stem;
},
{
horizontal = 1;
place = (612, 34);
place = (612, 34);
type = Stem;
},
{
horizontal = 1;
place = (866, -20);
target = down;
type = TopGhost;
}
);
layerId = m01;
shapes = (
{
closed = 1;
nodes = (
(119,0,o),
(215,0,o),
(300,-3,c),
(314,-2,o),
(320,33,o),
(302,33,c),
(256,32,o),
(223,34,o),
(223,82,c),
(223,93,o),
(226,103,o),
(228,114,c),
(316,529,l),
(331,600,o),
(344,609,o),
(404,612,c),
(408,611,o),
(412,612,o),
(415,613,c),
(425,614,o),
(437,646,o),
(417,646,c),
(348,644,o),
(240,645,o),
(165,646,c),
(155,646,o),
(152,647,o),
(147,640,c),
(140,631,o),
(136,614,o),
(150,610,c),
(154,609,o),
(163,609,o),
(167,609,c),
(209,607,o),
(226,599,o),
(226,574,c),
(226,566,o),
(224,553,o),
(220,532,c),
(133,116,l),
(120,55,o),
(104,33,o),
(39,34,c),
(22,34,o),
(15,-4,o),
(34,-3,c)
);
},
{
closed = 1;
nodes = (
(323,789,l),
(333,795,o),
(350,788,o),
(355,783,c),
(364,773,o),
(401,727,o),
(419,706,c),
(422,699,o),
(442,696,o),
(438,706,c),
(395,854,l),
(393,862,o),
(382,866,o),
(375,866,c),
(335,866,l),
(323,864,o),
(320,863,o),
(312,856,c),
(171,717,l),
(145,691,o),
(174,697,o),
(188,706,c)
);
}
);
width = 355;
}
);
unicode = 206;
},
{
glyphname = Idieresis;
lastChange = "2023-05-15 06:06:49 +0000";
layers = (
{
hints = (
{
place = (346, 108);
place = (346, 108);
type = Stem;
},
{
horizontal = 1;
place = (702, 107);
place = (702, 107);
type = Stem;
},
{
place = (184, 107);
place = (184, 107);
type = Stem;
},
{
horizontal = 1;
place = (-3, 37);
place = (-3, 37);
type = Stem;
},
{
horizontal = 1;
place = (612, 34);
place = (612, 34);
type = Stem;
},
{
horizontal = 1;
place = (808, -20);
target = down;
type = TopGhost;
}
);
layerId = m01;
shapes = (
{
closed = 1;
nodes = (
(119,0,o),
(215,0,o),
(300,-3,c),
(314,-2,o),
(320,33,o),
(302,33,c),
(256,32,o),
(223,34,o),
(223,82,c),
(223,93,o),
(226,103,o),
(228,114,c),
(316,529,l),
(331,600,o),
(344,609,o),
(404,612,c),
(408,611,o),
(412,612,o),
(415,613,c),
(425,614,o),
(437,646,o),
(417,646,c),
(348,644,o),
(240,645,o),
(165,646,c),
(155,646,o),
(152,647,o),
(147,640,c),
(140,631,o),
(136,614,o),
(150,610,c),
(154,609,o),
(163,609,o),
(167,609,c),
(209,607,o),
(226,599,o),
(226,574,c),
(226,566,o),
(224,553,o),
(220,532,c),
(133,116,l),
(120,55,o),
(104,33,o),
(39,34,c),
(22,34,o),
(15,-4,o),
(34,-3,c)
);
},
{
closed = 1;
nodes = (
(266,702,o),
(291,727,o),
(291,755,c),
(291,785,o),
(266,808,o),
(237,808,c),
(207,808,o),
(184,785,o),
(184,755,c),
(184,727,o),
(207,702,o),
(237,702,c)
);
},
{
closed = 1;
nodes = (
(431,702,o),
(454,727,o),
(454,756,c),
(454,786,o),
(430,809,o),
(401,809,c),
(371,809,o),
(346,786,o),
(346,756,c),
(346,727,o),
(371,702,o),
(401,702,c)
);
}
);
width = 355;
}
);
unicode = 207;
},
{
glyphname = Igrave;
lastChange = "2023-05-15 06:06:49 +0000";
layers = (
{
hints = (
{
horizontal = 1;
place = (-3, 37);
place = (-3, 37);
type = Stem;
},
{
horizontal = 1;
place = (612, 34);
place = (612, 34);
type = Stem;
},
{
horizontal = 1;
place = (876, -20);
target = down;
type = TopGhost;
}
);
layerId = m01;
shapes = (
{
closed = 1;
nodes = (
(119,0,o),
(215,0,o),
(300,-3,c),
(314,-2,o),
(320,33,o),
(302,33,c),
(256,32,o),
(223,34,o),
(223,82,c),
(223,93,o),
(226,103,o),
(228,114,c),
(316,529,l),
(331,600,o),
(344,609,o),
(404,612,c),
(408,611,o),
(412,612,o),
(415,613,c),
(425,614,o),
(437,646,o),
(417,646,c),
(348,644,o),
(240,645,o),
(165,646,c),
(155,646,o),
(152,647,o),
(147,640,c),
(140,631,o),
(136,614,o),
(150,610,c),
(154,609,o),
(163,609,o),
(167,609,c),
(209,607,o),
(226,599,o),
(226,574,c),
(226,566,o),
(224,553,o),
(220,532,c),
(133,116,l),
(120,55,o),
(104,33,o),
(39,34,c),
(22,34,o),
(15,-4,o),
(34,-3,c)
);
},
{
closed = 1;
nodes = (
(319,711,o),
(340,710,o),
(336,723,c),
(326,758,o),
(304,840,o),
(292,862,c),
(285,875,o),
(276,876,o),
(267,876,c),
(211,876,l),
(204,876,o),
(188,866,o),
(200,854,c),
(233,820,o),
(286,754,o),
(313,718,c)
);
}
);
width = 355;
}
);
unicode = 204;
},
{
glyphname = J;
lastChange = "2023-05-15 06:06:49 +0000";
layers = (
{
hints = (
{
horizontal = 1;
place = (646, -20);
target = down;
type = TopGhost;
},
{
horizontal = 1;
place = (-287, 63);
place = (-287, 63);
type = Stem;
},
{
horizontal = 1;
place = (647, -20);
target = down;
type = TopGhost;
}
);
layerId = m01;
shapes = (
{
closed = 1;
nodes = (
(-24,-287,o),
(38,-257,o),
(98,-207,c),
(158,-158,o),
(182,-111,o),
(200,-14,c),
(302,529,l),
(313,589,o),
(329,605,o),
(370,609,c),
(379,610,o),
(389,610,o),
(398,610,c),
(410,612,o),
(420,646,o),
(402,646,c),
(333,644,o),
(200,645,o),
(136,647,c),
(131,647,o),
(127,644,o),
(124,641,c),
(115,631,o),
(117,610,o),
(132,614,c),
(143,611,o),
(154,614,o),
(164,613,c),
(196,609,o),
(211,595,o),
(211,571,c),
(211,563,o),
(210,552,o),
(206,531,c),
(88,-95,l),
(81,-131,o),
(77,-145,o),
(70,-162,c),
(53,-200,o),
(25,-224,o),
(-23,-224,c),
(-43,-224,o),
(-59,-219,o),
(-77,-213,c),
(-93,-208,o),
(-107,-198,o),
(-124,-198,c),
(-136,-198,o),
(-152,-202,o),
(-161,-214,c),
(-171,-227,o),
(-177,-247,o),
(-177,-255,c),
(-177,-279,o),
(-152,-287,o),
(-104,-287,c)
);
}
);
width = 338;
}
);
unicode = 74;
},
{
glyphname = K;
lastChange = "2023-05-15 06:06:49 +0000";
layers = (
{
hints = (
{
horizontal = 1;
place = (613, 33);
place = (613, 33);
type = Stem;
},
{
horizontal = 1;
place = (-4, 36);
place = (-4, 36);
type = Stem;
},
{
horizontal = 1;
place = (645, -20);
target = down;
type = TopGhost;
},
{
horizontal = 1;
place = (-3, 21);
target = up;
type = BottomGhost;
}
);
layerId = m01;
shapes = (
{
closed = 1;
nodes = (
(86,-1,o),
(219,-2,o),
(287,-4,c),
(297,-1,o),
(298,6,o),
(300,15,c),
(301,20,o),
(301,23,o),
(298,27,c),
(294,32,o),
(286,32,o),
(280,32,c),
(202,32,o),
(207,57,o),
(218,113,c),
(250,271,l),
(257,289,o),
(258,289,o),
(274,299,c),
(281,303,o),
(297,293,o),
(303,284,c),
(363,205,o),
(465,76,o),
(525,3,c),
(529,0,o),
(539,-3,o),
(548,-3,c),
(591,-1,o),
(650,-2,o),
(688,-3,c),
(702,-5,o),
(710,31,o),
(694,31,c),
(687,31,l),
(642,31,o),
(608,44,o),
(568,93,c),
(515,157,o),
(417,282,o),
(368,347,c),
(363,354,o),
(368,366,o),
(378,373,c),
(454,432,o),
(559,511,o),
(559,511,c),
(637,571,o),
(695,596,o),
(734,604,c),
(750,608,o),
(766,612,o),
(782,615,c),
(789,616,o),
(793,630,o),
(792,637,c),
(791,646,o),
(781,646,o),
(775,646,c),
(721,644,o),
(610,643,o),
(554,645,c),
(538,645,o),
(532,612,o),
(546,612,c),
(552,612,l),
(580,612,o),
(582,599,o),
(582,591,c),
(582,583,o),
(573,567,o),
(562,561,c),
(463,492,o),
(381,426,o),
(283,355,c),
(274,348,o),
(270,364,o),
(271,372,c),
(304,528,l),
(319,599,o),
(335,613,o),
(394,613,c),
(404,612,l),
(414,612,o),
(421,626,o),
(420,635,c),
(419,641,o),
(415,646,o),
(408,646,c),
(346,644,o),
(230,646,o),
(169,646,c),
(159,647,o),
(156,647,o),
(150,643,c),
(139,636,o),
(141,611,o),
(153,613,c),
(159,613,l),
(200,613,o),
(215,598,o),
(215,573,c),
(215,565,o),
(213,552,o),
(209,531,c),
(122,115,l),
(109,53,o),
(94,35,o),
(48,32,c),
(37,31,o),
(29,32,o),
(20,29,c),
(14,27,o),
(5,11,o),
(11,2,c),
(13,-1,o),
(17,-3,o),
(22,-4,c)
);
}
);
width = 710;
}
);
unicode = 75;
},
{
glyphname = L;
lastChange = "2023-05-15 06:06:49 +0000";
layers = (
{
hints = (
{
horizontal = 1;
place = (-1, 46);
place = (-1, 46);
type = Stem;
},
{
horizontal = 1;
place = (610, 36);
place = (610, 36);
type = Stem;
}
);
layerId = m01;
shapes = (
{
closed = 1;
nodes = (
(168,-1,o),
(348,0,o),
(522,-1,c),
(539,-1,o),
(563,-5,o),
(569,14,c),
(581,52,o),
(601,108,o),
(613,139,c),
(616,142,o),
(616,151,o),
(612,153,c),
(606,157,o),
(590,157,o),
(585,151,c),
(553,110,o),
(532,92,o),
(500,74,c),
(463,54,o),
(422,45,o),
(363,45,c),
(270,45,l),
(216,45,o),
(219,83,o),
(227,123,c),
(312,529,l),
(327,600,o),
(344,609,o),
(404,609,c),
(416,609,l),
(421,608,o),
(428,622,o),
(430,629,c),
(431,636,o),
(430,646,o),
(421,646,c),
(343,642,o),
(209,644,o),
(147,646,c),
(136,646,o),
(129,617,o),
(136,611,c),
(146,608,o),
(150,610,o),
(160,610,c),
(220,610,o),
(227,587,o),
(216,532,c),
(132,130,l),
(117,58,o),
(101,42,o),
(55,39,c),
(46,38,o),
(38,41,o),
(30,37,c),
(20,35,o),
(12,19,o),
(16,5,c),
(18,-5,o),
(28,-1,o),
(35,-1,c)
);
}
);
width = 603;
}
);
unicode = 76;
},
{
glyphname = Lslash;
lastChange = "2023-05-15 06:06:49 +0000";
layers = (
{
hints = (
{
horizontal = 1;
place = (-4, 47);
place = (-4, 47);
type = Stem;
},
{
horizontal = 1;
place = (615, 33);
place = (615, 33);
type = Stem;
}
);
layerId = m01;
shapes = (
{
closed = 1;
nodes = (
(136,-2,o),
(423,-3,o),
(544,-4,c),
(558,-4,o),
(582,6,o),
(587,20,c),
(623,130,l),
(627,142,o),
(622,150,o),
(614,150,c),
(608,150,l),
(595,150,o),
(595,144,o),
(587,134,c),
(562,103,o),
(544,87,o),
(517,72,c),
(483,52,o),
(444,43,o),
(389,43,c),
(273,43,l),
(241,43,o),
(228,55,o),
(228,82,c),
(228,93,o),
(229,107,o),
(232,121,c),
(272,324,l),
(276,343,o),
(283,350,o),
(286,353,c),
(366,420,l),
(376,429,o),
(381,440,o),
(383,448,c),
(402,520,l),
(405,532,o),
(400,536,o),
(390,527,c),
(362,503,o),
(334,480,o),
(307,456,c),
(298,449,o),
(299,461,o),
(303,479,c),
(313,529,l),
(327,600,o),
(346,615,o),
(402,615,c),
(418,615,o),
(419,617,o),
(422,632,c),
(425,644,o),
(423,648,o),
(406,648,c),
(344,646,o),
(223,646,o),
(164,648,c),
(156,648,o),
(150,645,o),
(149,637,c),
(146,617,o),
(146,615,o),
(169,615,c),
(237,615,o),
(231,578,o),
(222,532,c),
(192,380,l),
(189,367,o),
(186,356,o),
(180,351,c),
(104,287,l),
(98,283,o),
(94,280,o),
(89,261,c),
(71,191,l),
(67,175,o),
(76,175,o),
(79,179,c),
(104,200,o),
(129,221,o),
(153,243,c),
(166,254,o),
(164,238,o),
(162,228,c),
(142,130,l),
(126,52,o),
(107,35,o),
(56,35,c),
(47,35,o),
(39,33,o),
(36,17,c),
(35,9,o),
(36,-4,o),
(54,-4,c)
);
}
);
width = 593;
}
);
unicode = 321;
},
{
glyphname = M;
lastChange = "2023-05-15 06:06:49 +0000";
layers = (
{
hints = (
{
horizontal = 1;
place = (-3, 33);
place = (-3, 33);
type = Stem;
},
{
horizontal = 1;
place = (610, 36);
place = (610, 36);
type = Stem;
}
);
layerId = m01;
shapes = (
{
closed = 1;
nodes = (
(65,1,o),
(169,-1,o),
(217,-3,c),
(230,-5,o),
(235,29,o),
(222,30,c),
(173,33,o),
(153,51,o),
(153,90,c),
(153,104,o),
(156,118,o),
(160,130,c),
(272,515,l),
(276,529,o),
(283,523,o),
(285,511,c),
(355,5,l),
(359,-9,o),
(400,-2,o),
(405,2,c),
(734,519,l),
(744,534,o),
(746,518,o),
(745,512,c),
(659,116,l),
(647,60,o),
(632,42,o),
(596,35,c),
(583,33,o),
(570,33,o),
(557,33,c),
(551,33,o),
(545,20,o),
(544,14,c),
(543,8,o),
(543,-5,o),
(552,-3,c),
(621,0,o),
(753,0,o),
(815,-3,c),
(828,-5,o),
(838,32,o),
(822,34,c),
(817,35,o),
(812,36,o),
(807,35,c),
(741,35,o),
(744,64,o),
(755,114,c),
(843,529,l),
(858,600,o),
(876,610,o),
(936,610,c),
(942,610,l),
(953,609,o),
(958,634,o),
(957,640,c),
(956,643,o),
(948,647,o),
(942,646,c),
(901,645,o),
(831,644,o),
(792,646,c),
(785,646,o),
(770,645,o),
(766,636,c),
(454,163,l),
(445,150,o),
(428,132,o),
(426,146,c),
(357,634,l),
(355,645,o),
(347,646,o),
(323,646,c),
(283,646,o),
(201,645,o),
(155,646,c),
(146,648,o),
(142,635,o),
(141,629,c),
(141,623,o),
(141,614,o),
(148,611,c),
(161,608,o),
(164,608,o),
(178,610,c),
(209,609,o),
(239,606,o),
(239,569,c),
(239,557,o),
(235,537,o),
(231,523,c),
(131,184,l),
(113,124,o),
(97,84,o),
(84,67,c),
(68,47,o),
(44,36,o),
(8,31,c),
(-3,30,o),
(-11,-4,o),
(5,-3,c)
);
}
);
width = 883;
}
);
unicode = 77;
},
{
glyphname = N;
lastChange = "2023-05-15 06:06:49 +0000";
layers = (
{
hints = (
{
horizontal = 1;
place = (613, 33);
place = (613, 33);
type = Stem;
}
);
layerId = m01;
shapes = (
{
closed = 1;
nodes = (
(611,-16,o),
(640,-18,o),
(642,-8,c),
(752,512,l),
(767,581,o),
(793,606,o),
(853,614,c),
(866,616,o),
(877,647,o),
(858,646,c),
(806,644,o),
(695,644,o),
(638,646,c),
(623,646,o),
(621,614,o),
(632,613,c),
(694,610,o),
(716,594,o),
(716,553,c),
(716,542,o),
(714,530,o),
(711,514,c),
(632,145,l),
(629,130,o),
(619,137,o),
(614,144,c),
(283,636,l),
(278,644,o),
(268,646,o),
(248,646,c),
(216,645,o),
(168,647,o),
(132,648,c),
(119,649,o),
(113,611,o),
(127,611,c),
(158,607,o),
(191,611,o),
(212,583,c),
(122,138,l),
(106,60,o),
(84,40,o),
(22,31,c),
(8,32,o),
(2,-4,o),
(18,-3,c),
(78,0,o),
(189,-1,o),
(242,-3,c),
(256,-6,o),
(263,32,o),
(246,32,c),
(239,32,l),
(183,39,o),
(168,58,o),
(168,102,c),
(168,114,o),
(169,129,o),
(172,143,c),
(242,496,l),
(246,516,o),
(257,516,o),
(259,513,c),
(605,-10,l)
);
}
);
width = 790;
}
);
unicode = 78;
},
{
glyphname = Ntilde;
lastChange = "2023-05-15 06:06:49 +0000";
layers = (
{
hints = (
{
horizontal = 1;
place = (613, 33);
place = (613, 33);
type = Stem;
},
{
horizontal = 1;
place = (852, -20);
target = down;
type = TopGhost;
},
{
horizontal = 1;
place = (717, 63);
place = (717, 63);
type = Stem;
},
{
horizontal = 1;
place = (785, 62);
place = (785, 62);
type = Stem;
}
);
layerId = m01;
shapes = (
{
closed = 1;
nodes = (
(611,-16,o),
(640,-18,o),
(642,-8,c),
(752,512,l),
(766,580,o),
(793,606,o),
(853,614,c),
(866,616,o),
(877,647,o),
(858,646,c),
(806,645,o),
(695,644,o),
(638,646,c),
(623,646,o),
(621,614,o),
(632,613,c),
(694,610,o),
(716,594,o),
(716,553,c),
(716,542,o),
(714,530,o),
(711,514,c),
(631,137,l),
(629,130,o),
(619,137,o),
(614,144,c),
(283,636,l),
(278,644,o),
(268,646,o),
(248,646,c),
(216,645,o),
(168,646,o),
(132,647,c),
(119,648,o),
(113,611,o),
(127,611,c),
(158,607,o),
(191,611,o),
(212,583,c),
(122,138,l),
(106,60,o),
(84,40,o),
(22,31,c),
(8,32,o),
(2,-4,o),
(18,-3,c),
(78,0,o),
(189,-1,o),
(242,-3,c),
(256,-6,o),
(263,32,o),
(246,32,c),
(239,32,l),
(183,39,o),
(168,58,o),
(168,102,c),
(168,114,o),
(169,129,o),
(172,143,c),
(241,496,l),
(245,516,o),
(254,520,o),
(256,517,c),
(605,-10,l)
);
},
{
closed = 1;
nodes = (
(650,717,o),
(702,762,o),
(717,833,c),
(718,836,o),
(719,840,o),
(718,846,c),
(719,850,o),
(714,853,o),
(707,852,c),
(701,852,o),
(694,850,o),
(693,846,c),
(674,792,o),
(660,780,o),
(639,780,c),
(627,780,o),
(612,786,o),
(586,807,c),
(547,838,o),
(526,847,o),
(496,847,c),
(435,847,o),
(392,806,o),
(370,720,c),
(369,707,o),
(391,712,o),
(397,720,c),
(400,730,o),
(403,734,o),
(403,738,c),
(419,774,o),
(431,785,o),
(450,785,c),
(463,785,o),
(472,782,o),
(503,756,c),
(536,730,o),
(565,717,o),
(592,717,c)
);
}
);
width = 790;
}
);
unicode = 209;
},
{
glyphname = O;
lastChange = "2023-05-15 06:06:49 +0000";
layers = (
{
hints = (
{
horizontal = 1;
place = (-18, 39);
place = (-18, 39);
type = Stem;
},
{
horizontal = 1;
place = (623, 39);
place = (623, 39);
type = Stem;
},
{
place = (85, 100);
place = (85, 100);
type = Stem;
},
{
place = (676, 100);
place = (676, 100);
type = Stem;
}
);
layerId = m01;
shapes = (
{
closed = 1;
nodes = (
(600,-18,o),
(776,150,o),
(776,357,c),
(776,529,o),
(649,662,o),
(475,662,c),
(264,662,o),
(85,491,o),
(85,288,c),
(85,115,o),
(209,-18,o),
(383,-18,c)
);
},
{
closed = 1;
nodes = (
(258,22,o),
(185,113,o),
(185,262,c),
(185,437,o),
(286,622,o),
(476,623,c),
(598,624,o),
(676,528,o),
(676,388,c),
(676,179,o),
(546,19,o),
(384,21,c)
);
}
);
width = 819;
}
);
unicode = 79;
},
{
glyphname = Oacute;
lastChange = "2023-05-15 06:06:49 +0000";
layers = (
{
hints = (
{
horizontal = 1;
place = (-18, 39);
place = (-18, 39);
type = Stem;
},
{
horizontal = 1;
place = (623, 39);
place = (623, 39);
type = Stem;
},
{
place = (85, 100);
place = (85, 100);
type = Stem;
},
{
place = (676, 100);
place = (676, 100);
type = Stem;
}
);
layerId = m01;
shapes = (
{
closed = 1;
nodes = (
(600,-18,o),
(776,150,o),
(776,357,c),
(776,529,o),
(649,662,o),
(475,662,c),
(264,662,o),
(85,491,o),
(85,288,c),
(85,115,o),
(209,-18,o),
(383,-18,c)
);
},
{
closed = 1;
nodes = (
(258,22,o),
(185,113,o),
(185,262,c),
(185,437,o),
(286,622,o),
(476,623,c),
(598,624,o),
(676,528,o),
(676,388,c),
(676,179,o),
(546,19,o),
(384,21,c)
);
},
{
closed = 1;
nodes = (
(556,743,o),
(611,801,o),
(648,857,c),
(655,868,o),
(646,882,o),
(635,880,c),
(578,877,l),
(565,876,o),
(555,874,o),
(552,865,c),
(545,823,o),
(522,759,o),
(512,727,c),
(508,714,o),
(524,710,o),
(532,720,c)
);
}
);
width = 819;
}
);
unicode = 211;
},
{
glyphname = Ocircumflex;
lastChange = "2023-05-15 06:06:49 +0000";
layers = (
{
hints = (
{
horizontal = 1;
place = (-18, 39);
place = (-18, 39);
type = Stem;
},
{
horizontal = 1;
place = (623, 39);
place = (623, 39);
type = Stem;
},
{
horizontal = 1;
place = (858, -20);
target = down;
type = TopGhost;
},
{
place = (85, 100);
place = (85, 100);
type = Stem;
},
{
place = (676, 100);
place = (676, 100);
type = Stem;
}
);
layerId = m01;
shapes = (
{
closed = 1;
nodes = (
(600,-18,o),
(776,150,o),
(776,357,c),
(776,529,o),
(649,662,o),
(475,662,c),
(264,662,o),
(85,491,o),
(85,288,c),
(85,115,o),
(209,-18,o),
(383,-18,c)
);
},
{
closed = 1;
nodes = (
(258,22,o),
(185,113,o),
(185,262,c),
(185,437,o),
(286,622,o),
(476,623,c),
(598,624,o),
(676,528,o),
(676,388,c),
(676,179,o),
(546,19,o),
(384,21,c)
);
},
{
closed = 1;
nodes = (
(515,781,l),
(525,787,o),
(542,780,o),
(547,775,c),
(556,765,o),
(593,719,o),
(611,698,c),
(614,691,o),
(634,688,o),
(630,698,c),
(587,846,l),
(585,854,o),
(574,858,o),
(567,858,c),
(527,858,l),
(515,856,o),
(512,855,o),
(504,848,c),
(363,709,l),
(337,683,o),
(366,689,o),
(380,698,c)
);
}
);
width = 819;
}
);
unicode = 212;
},
{
glyphname = Odieresis;
lastChange = "2023-05-15 06:06:49 +0000";
layers = (
{
hints = (
{
place = (545, 108);
place = (545, 108);
type = Stem;
},
{
horizontal = 1;
place = (722, 107);
place = (722, 107);
type = Stem;
},
{
place = (383, 107);
place = (383, 107);
type = Stem;
},
{
horizontal = 1;
place = (-18, 39);
place = (-18, 39);
type = Stem;
},
{
horizontal = 1;
place = (623, 39);
place = (623, 39);
type = Stem;
},
{
place = (85, 100);
place = (85, 100);
type = Stem;
},
{
place = (676, 100);
place = (676, 100);
type = Stem;
},
{
horizontal = 1;
place = (828, -20);
target = down;
type = TopGhost;
}
);
layerId = m01;
shapes = (
{
closed = 1;
nodes = (
(600,-18,o),
(776,150,o),
(776,357,c),
(776,529,o),
(649,662,o),
(475,662,c),
(264,662,o),
(85,491,o),
(85,288,c),
(85,115,o),
(209,-18,o),
(383,-18,c)
);
},
{
closed = 1;
nodes = (
(258,22,o),
(185,113,o),
(185,262,c),
(185,437,o),
(286,622,o),
(476,623,c),
(598,624,o),
(676,528,o),
(676,388,c),
(676,179,o),
(546,19,o),
(384,21,c)
);
},
{
closed = 1;
nodes = (
(465,722,o),
(490,747,o),
(490,775,c),
(490,805,o),
(465,828,o),
(436,828,c),
(407,828,o),
(383,805,o),
(383,775,c),
(383,747,o),
(406,722,o),
(436,722,c)
);
},
{
closed = 1;
nodes = (
(630,722,o),
(653,747,o),
(653,776,c),
(653,806,o),
(630,829,o),
(600,829,c),
(570,829,o),
(545,806,o),
(545,776,c),
(545,747,o),
(570,722,o),
(600,722,c)
);
}
);
width = 819;
}
);
unicode = 214;
},
{
glyphname = Ograve;
lastChange = "2023-05-15 06:06:49 +0000";
layers = (
{
hints = (
{
horizontal = 1;
place = (-18, 39);
place = (-18, 39);
type = Stem;
},
{
horizontal = 1;
place = (623, 39);
place = (623, 39);
type = Stem;
},
{
horizontal = 1;
place = (876, -20);
target = down;
type = TopGhost;
},
{
place = (85, 100);
place = (85, 100);
type = Stem;
},
{
place = (676, 100);
place = (676, 100);
type = Stem;
}
);
layerId = m01;
shapes = (
{
closed = 1;
nodes = (
(600,-18,o),
(776,150,o),
(776,357,c),
(776,529,o),
(649,662,o),
(475,662,c),
(264,662,o),
(85,491,o),
(85,288,c),
(85,115,o),
(209,-18,o),
(383,-18,c)
);
},
{
closed = 1;
nodes = (
(258,22,o),
(185,113,o),
(185,262,c),
(185,437,o),
(286,622,o),
(476,623,c),
(598,624,o),
(676,528,o),
(676,388,c),
(676,179,o),
(546,19,o),
(384,21,c)
);
},
{
closed = 1;
nodes = (
(558,711,o),
(579,710,o),
(575,723,c),
(566,758,o),
(543,840,o),
(531,862,c),
(524,875,o),
(515,876,o),
(506,876,c),
(450,876,l),
(443,876,o),
(427,866,o),
(439,854,c),
(472,820,o),
(525,754,o),
(552,718,c)
);
}
);
width = 819;
}
);
unicode = 210;
},
{
glyphname = Oslash;
lastChange = "2023-05-15 06:06:49 +0000";
layers = (
{
hints = (
{
horizontal = 1;
place = (-19, 37);
place = (-19, 37);
type = Stem;
},
{
horizontal = 1;
place = (626, 37);
place = (626, 37);
type = Stem;
},
{
place = (110, 100);
place = (110, 100);
type = Stem;
},
{
place = (712, 100);
place = (712, 100);
type = Stem;
}
);
layerId = m01;
shapes = (
{
closed = 1;
nodes = (
(148,-54,o),
(156,-49,o),
(159,-46,c),
(222,27,l),
(232,38,o),
(247,31,o),
(250,29,c),
(300,-4,o),
(353,-19,o),
(419,-19,c),
(636,-19,o),
(812,150,o),
(812,358,c),
(812,447,o),
(779,523,o),
(716,580,c),
(704,591,o),
(711,597,o),
(717,604,c),
(759,653,l),
(763,658,o),
(767,665,o),
(758,671,c),
(747,678,l),
(737,684,o),
(736,684,o),
(729,675,c),
(685,623,l),
(674,610,o),
(669,615,o),
(660,620,c),
(610,650,o),
(558,663,o),
(497,663,c),
(290,663,o),
(110,489,o),
(110,288,c),
(110,206,o),
(137,137,o),
(194,76,c),
(201,68,o),
(201,59,o),
(196,52,c),
(132,-22,l),
(124,-31,o),
(124,-38,o),
(129,-42,c),
(141,-49,l)
);
},
{
closed = 1;
nodes = (
(365,18,o),
(319,35,o),
(282,69,c),
(269,81,o),
(278,93,o),
(283,99,c),
(653,531,l),
(667,548,o),
(675,534,o),
(677,530,c),
(701,491,o),
(712,444,o),
(712,387,c),
(712,179,o),
(583,18,o),
(420,18,c)
);
},
{
closed = 1;
nodes = (
(220,167,o),
(210,213,o),
(210,264,c),
(210,367,o),
(253,481,o),
(319,550,c),
(365,598,o),
(432,626,o),
(501,626,c),
(552,626,o),
(591,614,o),
(629,583,c),
(636,577,o),
(639,568,o),
(630,559,c),
(539,459,o),
(354,244,o),
(261,130,c),
(256,123,o),
(244,116,o),
(238,130,c)
);
}
);
width = 806;
}
);
unicode = 216;
},
{
glyphname = Otilde;
lastChange = "2023-05-15 06:06:49 +0000";
layers = (
{
hints = (
{
place = (676, 100);
place = (676, 100);
type = Stem;
},
{
horizontal = 1;
place = (623, 39);
place = (623, 39);
type = Stem;
},
{
place = (85, 100);
place = (85, 100);
type = Stem;
},
{
horizontal = 1;
place = (-18, 39);
place = (-18, 39);
type = Stem;
},
{
horizontal = 1;
place = (855, -20);
target = down;
type = TopGhost;
},
{
horizontal = 1;
place = (720, 63);
place = (720, 63);
type = Stem;
},
{
horizontal = 1;
place = (788, 62);
place = (788, 62);
type = Stem;
}
);
layerId = m01;
shapes = (
{
closed = 1;
nodes = (
(600,-18,o),
(776,150,o),
(776,357,c),
(776,529,o),
(649,662,o),
(475,662,c),
(264,662,o),
(85,491,o),
(85,288,c),
(85,115,o),
(209,-18,o),
(383,-18,c)
);
},
{
closed = 1;
nodes = (
(258,22,o),
(185,113,o),
(185,262,c),
(185,437,o),
(286,622,o),
(476,623,c),
(598,624,o),
(676,528,o),
(676,388,c),
(676,179,o),
(546,19,o),
(384,21,c)
);
},
{
closed = 1;
nodes = (
(624,720,o),
(676,765,o),
(691,836,c),
(692,839,o),
(693,843,o),
(692,849,c),
(693,853,o),
(688,856,o),
(681,855,c),
(675,855,o),
(668,853,o),
(667,849,c),
(648,795,o),
(634,783,o),
(613,783,c),
(601,783,o),
(586,789,o),
(560,810,c),
(521,841,o),
(500,850,o),
(470,850,c),
(409,850,o),
(366,809,o),
(344,723,c),
(343,710,o),
(365,715,o),
(371,723,c),
(374,733,o),
(377,737,o),
(377,741,c),
(393,777,o),
(405,788,o),
(424,788,c),
(437,788,o),
(446,785,o),
(477,759,c),
(509,733,o),
(539,720,o),
(566,720,c)
);
}
);
width = 819;
}
);
unicode = 213;
},
{
glyphname = OE;
lastChange = "2023-05-15 06:06:49 +0000";
layers = (
{
hints = (
{
horizontal = 1;
place = (609, 38);
place = (609, 38);
type = Stem;
},
{
horizontal = 1;
place = (-6, 37);
place = (-6, 37);
type = Stem;
},
{
horizontal = 1;
place = (308, 37);
place = (308, 37);
type = Stem;
},
{
place = (93, 98);
place = (93, 98);
type = Stem;
},
{
horizontal = 1;
place = (651, -20);
target = down;
type = TopGhost;
},
{
horizontal = 1;
place = (-2, 21);
target = up;
type = BottomGhost;
}
);
layerId = m01;
shapes = (
{
closed = 1;
nodes = (
(438,-6,o),
(482,-2,o),
(526,-2,c),
(926,-2,l),
(945,-2,o),
(950,3,o),
(954,13,c),
(966,42,o),
(1000,106,o),
(1005,139,c),
(1006,147,o),
(998,150,o),
(993,149,c),
(988,149,o),
(981,148,o),
(977,144,c),
(957,113,o),
(940,98,o),
(911,78,c),
(867,48,o),
(824,36,o),
(761,36,c),
(710,36,l),
(660,36,o),
(610,42,o),
(623,97,c),
(634,144,o),
(653,236,o),
(663,296,c),
(665,306,o),
(679,305,o),
(690,308,c),
(817,308,l),
(895,308,o),
(913,292,o),
(913,239,c),
(913,236,o),
(912,233,o),
(912,230,c),
(914,216,o),
(938,220,o),
(942,228,c),
(953,266,o),
(964,347,o),
(975,397,c),
(977,404,o),
(977,411,o),
(971,413,c),
(964,415,o),
(956,416,o),
(949,410,c),
(934,364,o),
(903,345,o),
(856,345,c),
(695,345,l),
(686,343,o),
(673,350,o),
(675,356,c),
(688,411,o),
(711,531,o),
(722,591,c),
(724,605,o),
(745,609,o),
(754,609,c),
(897,609,l),
(972,609,o),
(1000,584,o),
(1000,515,c),
(1000,502,l),
(1003,496,o),
(1022,492,o),
(1026,502,c),
(1031,511,o),
(1049,579,o),
(1052,630,c),
(1055,643,o),
(1048,646,o),
(1039,647,c),
(973,651,o),
(745,644,o),
(654,647,c),
(611,648,o),
(567,651,o),
(524,651,c),
(459,651,o),
(406,645,o),
(356,631,c),
(202,589,o),
(93,445,o),
(93,286,c),
(93,109,o),
(213,-6,o),
(394,-6,c)
);
},
{
closed = 1;
nodes = (
(272,31,o),
(191,120,o),
(191,267,c),
(191,354,o),
(224,442,o),
(282,509,c),
(342,580,o),
(415,615,o),
(504,615,c),
(586,615,o),
(621,590,o),
(621,547,c),
(621,536,o),
(620,521,o),
(617,508,c),
(549,171,l),
(529,74,o),
(508,31,o),
(403,31,c)
);
}
);
width = 1049;
}
);
unicode = 338;
},
{
glyphname = P;
lastChange = "2023-05-15 06:06:49 +0000";
layers = (
{
hints = (
{
place = (488, 101);
place = (488, 101);
type = Stem;
},
{
horizontal = 1;
place = (610, 36);
place = (610, 36);
type = Stem;
},
{
horizontal = 1;
place = (-3, 34);
place = (-3, 34);
type = Stem;
},
{
horizontal = 1;
place = (647, -20);
target = down;
type = TopGhost;
}
);
layerId = m01;
shapes = (
{
closed = 1;
nodes = (
(72,0,o),
(171,-1,o),
(252,-3,c),
(267,-5,o),
(276,31,o),
(258,31,c),
(244,31,l),
(194,31,o),
(175,46,o),
(175,78,c),
(175,90,o),
(177,102,o),
(180,114,c),
(279,583,l),
(284,605,o),
(294,607,o),
(301,607,c),
(342,607,o),
(379,610,o),
(418,597,c),
(461,583,o),
(488,538,o),
(488,479,c),
(488,435,o),
(475,392,o),
(451,357,c),
(411,298,o),
(338,271,o),
(267,281,c),
(249,283,o),
(248,257,o),
(261,251,c),
(304,242,o),
(372,250,o),
(413,259,c),
(515,283,o),
(589,369,o),
(589,465,c),
(589,523,o),
(565,571,o),
(519,604,c),
(473,637,o),
(428,646,o),
(332,646,c),
(278,646,o),
(169,645,o),
(111,647,c),
(97,647,o),
(88,606,o),
(106,611,c),
(116,610,l),
(157,610,o),
(177,593,o),
(177,569,c),
(177,560,o),
(174,547,o),
(170,526,c),
(87,128,l),
(71,50,o),
(51,33,o),
(-6,31,c),
(-19,30,o),
(-25,-3,o),
(-11,-3,c)
);
}
);
width = 564;
}
);
unicode = 80;
},
{
glyphname = Thorn;
lastChange = "2023-05-15 06:06:49 +0000";
layers = (
{
hints = (
{
place = (504, 96);
place = (504, 96);
type = Stem;
},
{
horizontal = 1;
place = (485, 37);
place = (485, 37);
type = Stem;
},
{
horizontal = 1;
place = (617, 30);
place = (617, 30);
type = Stem;
},
{
horizontal = 1;
place = (-4, 35);
place = (-4, 35);
type = Stem;
},
{
horizontal = 1;
place = (122, 32);
place = (122, 32);
type = Stem;
},
{
horizontal = 1;
place = (649, -20);
target = down;
type = TopGhost;
}
);
layerId = m01;
shapes = (
{
closed = 1;
nodes = (
(107,1,o),
(233,-2,o),
(287,-4,c),
(297,-4,o),
(303,5,o),
(306,11,c),
(307,18,l),
(308,27,o),
(302,31,o),
(288,31,c),
(242,31,o),
(219,46,o),
(224,78,c),
(243,200,o),
(275,341,o),
(301,473,c),
(302,477,o),
(315,485,o),
(324,485,c),
(422,485,o),
(504,480,o),
(504,354,c),
(504,241,o),
(433,154,o),
(315,154,c),
(301,154,o),
(281,163,o),
(277,144,c),
(272,124,o),
(319,122,o),
(333,122,c),
(465,122,o),
(600,186,o),
(600,341,c),
(600,399,o),
(577,447,o),
(533,480,c),
(474,525,o),
(407,522,o),
(336,522,c),
(321,522,o),
(312,530,o),
(314,540,c),
(326,592,o),
(348,614,o),
(399,617,c),
(408,617,o),
(417,640,o),
(406,646,c),
(401,648,o),
(398,649,o),
(394,649,c),
(333,647,o),
(240,645,o),
(169,647,c),
(162,647,o),
(154,642,o),
(152,635,c),
(151,628,l),
(150,619,o),
(157,614,o),
(169,614,c),
(208,614,o),
(231,599,o),
(227,574,c),
(201,428,o),
(171,277,o),
(141,128,c),
(127,57,o),
(110,38,o),
(64,32,c),
(53,31,o),
(47,31,o),
(44,16,c),
(43,10,o),
(45,-4,o),
(59,-4,c)
);
}
);
width = 573;
}
);
unicode = 222;
},
{
glyphname = Q;
lastChange = "2023-05-15 06:06:49 +0000";
layers = (
{
hints = (
{
horizontal = 1;
place = (626, 36);
place = (626, 36);
type = Stem;
},
{
horizontal = 1;
place = (-189, 21);
target = up;
type = BottomGhost;
},
{
place = (61, 104);
place = (61, 104);
type = Stem;
},
{
place = (667, 105);
place = (667, 105);
type = Stem;
}
);
layerId = m01;
shapes = (
{
closed = 1;
nodes = (
(706,-189,o),
(738,-173,o),
(771,-145,c),
(781,-137,o),
(764,-107,o),
(751,-118,c),
(723,-132,o),
(700,-136,o),
(658,-125,c),
(618,-115,o),
(523,-57,o),
(490,-33,c),
(475,-22,o),
(474,-11,o),
(483,-9,c),
(660,31,o),
(772,185,o),
(772,357,c),
(772,531,o),
(641,662,o),
(453,662,c),
(236,662,o),
(61,489,o),
(61,287,c),
(61,145,o),
(163,18,o),
(303,-13,c),
(307,-14,o),
(328,-29,o),
(333,-32,c),
(421,-90,o),
(540,-189,o),
(650,-189,c)
);
},
{
closed = 1;
nodes = (
(250,16,o),
(165,112,o),
(165,261,c),
(165,432,o),
(276,626,o),
(462,626,c),
(589,626,o),
(667,528,o),
(667,386,c),
(667,178,o),
(555,16,o),
(383,16,c)
);
}
);
width = 798;
}
);
unicode = 81;
},
{
glyphname = R;
lastChange = "2023-05-15 06:06:49 +0000";
layers = (
{
hints = (
{
horizontal = 1;
place = (-4, 26);
place = (-4, 26);
type = Stem;
},
{
horizontal = 1;
place = (611, 35);
place = (611, 35);
type = Stem;
},
{
horizontal = 1;
place = (274, 38);
place = (274, 38);
type = Stem;
},
{
horizontal = 1;
place = (648, -20);
target = down;
type = TopGhost;
},
{
horizontal = 1;
place = (-12, 21);
target = up;
type = BottomGhost;
}
);
layerId = m01;
shapes = (
{
closed = 1;
nodes = (
(648,-12,o),
(653,-12,o),
(657,-10,c),
(660,-9,o),
(663,-8,o),
(672,-4,c),
(680,-1,o),
(684,22,o),
(670,22,c),
(640,23,o),
(612,33,o),
(589,52,c),
(557,77,o),
(533,101,o),
(508,151,c),
(492,184,o),
(477,217,o),
(462,250,c),
(457,261,o),
(451,271,o),
(448,278,c),
(445,283,o),
(438,292,o),
(446,294,c),
(556,318,o),
(627,390,o),
(627,484,c),
(627,583,o),
(547,645,o),
(430,646,c),
(364,646,o),
(231,646,o),
(165,648,c),
(147,648,o),
(141,611,o),
(156,611,c),
(175,611,l),
(216,611,o),
(236,594,o),
(236,568,c),
(236,561,o),
(234,553,o),
(230,532,c),
(142,116,l),
(127,46,o),
(108,43,o),
(43,34,c),
(36,33,l),
(21,35,o),
(11,-4,o),
(30,-4,c),
(100,-2,o),
(237,-4,o),
(305,-4,c),
(314,-4,l),
(320,-4,o),
(323,6,o),
(324,10,c),
(328,25,o),
(323,30,o),
(319,31,c),
(303,32,l),
(253,35,o),
(232,46,o),
(232,78,c),
(232,90,o),
(236,102,o),
(239,114,c),
(270,263,l),
(271,270,o),
(280,274,o),
(286,274,c),
(306,275,o),
(319,276,o),
(337,277,c),
(347,277,o),
(349,269,o),
(350,267,c),
(359,249,o),
(364,238,o),
(382,195,c),
(397,159,o),
(408,120,o),
(429,87,c),
(483,3,o),
(542,-12,o),
(636,-12,c)
);
},
{
closed = 1;
nodes = (
(282,312,o),
(284,328,o),
(287,341,c),
(340,593,l),
(341,599,o),
(350,608,o),
(362,608,c),
(386,608,o),
(397,608,o),
(422,605,c),
(447,602,o),
(471,594,o),
(490,579,c),
(562,521,o),
(518,391,o),
(445,349,c),
(381,312,o),
(364,312,o),
(290,312,c)
);
}
);
width = 644;
}
);
unicode = 82;
},
{
glyphname = S;
lastChange = "2023-05-15 06:06:49 +0000";
layers = (
{
hints = (
{
horizontal = 1;
place = (-18, 37);
place = (-18, 37);
type = Stem;
},
{
horizontal = 1;
place = (616, 37);
place = (616, 37);
type = Stem;
},
{
place = (389, 83);
place = (389, 83);
type = Stem;
},
{
place = (126, 78);
place = (126, 78);
type = Stem;
}
);
layerId = m01;
shapes = (
{
closed = 1;
nodes = (
(380,-18,o),
(472,59,o),
(472,170,c),
(472,217,o),
(447,266,o),
(414,299,c),
(392,321,o),
(356,350,o),
(286,401,c),
(216,453,o),
(204,482,o),
(204,520,c),
(204,576,o),
(247,616,o),
(327,616,c),
(415,616,o),
(456,567,o),
(456,474,c),
(456,468,o),
(465,465,o),
(472,465,c),
(477,465,o),
(486,467,o),
(488,474,c),
(496,517,o),
(505,590,o),
(510,641,c),
(511,653,o),
(485,657,o),
(479,645,c),
(471,637,o),
(461,634,o),
(450,634,c),
(430,634,o),
(412,639,o),
(393,643,c),
(373,648,o),
(351,653,o),
(327,653,c),
(210,653,o),
(126,577,o),
(126,482,c),
(126,418,o),
(156,365,o),
(262,290,c),
(315,252,o),
(389,200,o),
(389,133,c),
(389,66,o),
(335,19,o),
(240,19,c),
(131,19,o),
(75,77,o),
(75,174,c),
(75,180,o),
(76,184,o),
(76,196,c),
(78,209,o),
(50,211,o),
(46,198,c),
(32,156,o),
(18,102,o),
(13,66,c),
(12,60,o),
(15,48,o),
(17,46,c),
(87,7,o),
(165,-18,o),
(237,-18,c)
);
}
);
width = 517;
}
);
unicode = 83;
},
{
glyphname = Scaron;
lastChange = "2023-05-15 06:06:49 +0000";
layers = (
{
hints = (
{
horizontal = 1;
place = (-18, 37);
place = (-18, 37);
type = Stem;
},
{
horizontal = 1;
place = (616, 37);
place = (616, 37);
type = Stem;
},
{
place = (389, 83);
place = (389, 83);
type = Stem;
},
{
place = (126, 78);
place = (126, 78);
type = Stem;
}
);
layerId = m01;
shapes = (
{
closed = 1;
nodes = (
(380,-18,o),
(472,59,o),
(472,170,c),
(472,217,o),
(447,266,o),
(414,299,c),
(392,321,o),
(356,350,o),
(286,401,c),
(215,453,o),
(204,482,o),
(204,520,c),
(204,576,o),
(247,616,o),
(327,616,c),
(415,616,o),
(456,567,o),
(456,474,c),
(456,468,o),
(465,465,o),
(472,465,c),
(477,465,o),
(486,467,o),
(488,474,c),
(496,517,o),
(505,590,o),
(510,641,c),
(511,653,o),
(485,657,o),
(479,645,c),
(471,637,o),
(461,634,o),
(450,634,c),
(430,634,o),
(412,639,o),
(393,643,c),
(373,648,o),
(351,653,o),
(327,653,c),
(210,653,o),
(126,577,o),
(126,482,c),
(126,418,o),
(156,365,o),
(262,290,c),
(315,252,o),
(389,200,o),
(389,133,c),
(389,66,o),
(335,19,o),
(240,19,c),
(131,19,o),
(75,77,o),
(75,174,c),
(75,180,o),
(76,184,o),
(76,196,c),
(78,209,o),
(50,211,o),
(46,198,c),
(32,156,o),
(18,102,o),
(13,66,c),
(12,60,o),
(15,48,o),
(17,46,c),
(87,7,o),
(165,-18,o),
(237,-18,c)
);
},
{
closed = 1;
nodes = (
(355,692,l),
(369,692,o),
(380,695,o),
(386,699,c),
(529,843,l),
(550,865,o),
(521,860,o),
(512,855,c),
(374,768,l),
(366,763,o),
(359,761,o),
(354,766,c),
(280,855,l),
(276,864,o),
(258,864,o),
(260,855,c),
(297,703,l),
(299,700,o),
(303,690,o),
(313,692,c)
);
}
);
width = 517;
}
);
unicode = 352;
},
{
glyphname = T;
lastChange = "2023-05-15 06:40:40 +0000";
layers = (
{
hints = (
{
horizontal = 1;
place = (678, -20);
target = down;
type = TopGhost;
},
{
horizontal = 1;
place = (605, 41);
place = (605, 41);
type = Stem;
},
{
horizontal = 1;
place = (-5, 40);
place = (-5, 40);
type = Stem;
},
{
horizontal = 1;
place = (679, -20);
target = down;
type = TopGhost;
},
{
horizontal = 1;
place = (-4, 21);
target = up;
type = BottomGhost;
}
);
layerId = m01;
shapes = (
{
closed = 1;
nodes = (
(442,-5,o),
(451,8,o),
(451,20,c),
(452,27,o),
(447,36,o),
(442,37,c),
(428,41,o),
(414,37,o),
(403,37,c),
(355,42,o),
(340,53,o),
(353,114,c),
(453,585,l),
(455,596,o),
(463,604,o),
(471,605,c),
(593,605,l),
(632,605,o),
(649,595,o),
(657,578,c),
(661,569,o),
(663,558,o),
(665,545,c),
(666,532,o),
(665,518,o),
(666,502,c),
(666,488,o),
(695,494,o),
(697,501,c),
(701,521,o),
(711,550,o),
(715,582,c),
(719,614,o),
(729,644,o),
(732,669,c),
(733,674,o),
(725,678,o),
(718,678,c),
(714,678,o),
(706,677,o),
(703,673,c),
(679,650,o),
(667,646,o),
(594,646,c),
(594,646,o),
(478,648,o),
(407,646,c),
(336,644,o),
(204,646,o),
(204,646,c),
(166,646,o),
(155,651,o),
(138,672,c),
(138,677,o),
(130,679,o),
(125,679,c),
(120,679,o),
(111,677,o),
(110,671,c),
(97,596,o),
(80,543,o),
(75,506,c),
(67,494,o),
(98,487,o),
(103,499,c),
(123,544,o),
(134,564,o),
(157,583,c),
(180,601,o),
(208,605,o),
(258,605,c),
(342,605,l),
(345,605,o),
(362,605,o),
(357,581,c),
(256,116,l),
(242,53,o),
(229,39,o),
(179,35,c),
(173,35,o),
(168,37,o),
(161,37,c),
(151,37,o),
(142,32,o),
(139,23,c),
(138,18,o),
(136,13,o),
(136,8,c),
(136,-3,o),
(148,-4,o),
(157,-4,c),
(224,-3,o),
(346,-1,o),
(431,-5,c)
);
}
);
width = 664;
}
);
unicode = 84;
},
{
glyphname = U;
lastChange = "2023-05-15 06:06:49 +0000";
layers = (
{
hints = (
{
horizontal = 1;
place = (-18, 37);
place = (-18, 37);
type = Stem;
},
{
horizontal = 1;
place = (610, 38);
place = (610, 38);
type = Stem;
}
);
layerId = m01;
shapes = (
{
closed = 1;
nodes = (
(451,-18,o),
(537,17,o),
(594,110,c),
(617,147,o),
(627,176,o),
(638,236,c),
(689,507,l),
(706,596,o),
(728,607,o),
(783,614,c),
(801,611,o),
(806,650,o),
(788,648,c),
(783,648,o),
(776,650,o),
(771,648,c),
(743,648,o),
(728,650,o),
(685,648,c),
(642,646,o),
(603,648,o),
(570,648,c),
(556,652,o),
(547,614,o),
(563,614,c),
(609,614,o),
(651,610,o),
(651,551,c),
(651,541,o),
(650,531,o),
(647,515,c),
(597,248,l),
(572,114,o),
(518,19,o),
(360,19,c),
(242,19,o),
(180,80,o),
(180,169,c),
(180,195,o),
(184,229,o),
(192,266,c),
(249,529,l),
(265,602,o),
(274,614,o),
(348,610,c),
(358,609,o),
(361,629,o),
(362,636,c),
(362,645,o),
(356,648,o),
(348,648,c),
(288,645,o),
(155,646,o),
(85,648,c),
(70,650,o),
(63,612,o),
(78,612,c),
(95,612,l),
(136,612,o),
(157,599,o),
(157,568,c),
(157,560,o),
(156,549,o),
(151,527,c),
(96,272,l),
(81,204,o),
(74,147,o),
(115,84,c),
(161,15,o),
(226,-18,o),
(343,-18,c)
);
}
);
width = 748;
}
);
unicode = 85;
},
{
glyphname = Uacute;
lastChange = "2023-05-15 06:06:49 +0000";
layers = (
{
hints = (
{
horizontal = 1;
place = (-18, 37);
place = (-18, 37);
type = Stem;
},
{
horizontal = 1;
place = (610, 38);
place = (610, 38);
type = Stem;
}
);
layerId = m01;
shapes = (
{
closed = 1;
nodes = (
(451,-18,o),
(537,17,o),
(594,110,c),
(617,147,o),
(627,176,o),
(638,236,c),
(689,507,l),
(706,596,o),
(728,607,o),
(783,614,c),
(801,611,o),
(806,650,o),
(788,648,c),
(783,648,o),
(776,650,o),
(771,648,c),
(743,648,o),
(728,649,o),
(685,648,c),
(642,646,o),
(603,648,o),
(570,648,c),
(556,652,o),
(547,614,o),
(563,614,c),
(609,614,o),
(651,610,o),
(651,551,c),
(651,541,o),
(650,531,o),
(647,515,c),
(597,248,l),
(572,114,o),
(518,19,o),
(360,19,c),
(242,19,o),
(180,80,o),
(180,169,c),
(180,195,o),
(184,229,o),
(192,266,c),
(249,529,l),
(265,602,o),
(274,614,o),
(348,610,c),
(357,609,o),
(361,629,o),
(362,636,c),
(362,645,o),
(356,648,o),
(348,648,c),
(288,645,o),
(155,646,o),
(85,648,c),
(70,650,o),
(63,612,o),
(78,612,c),
(95,612,l),
(136,612,o),
(157,599,o),
(157,568,c),
(157,560,o),
(156,549,o),
(151,527,c),
(96,272,l),
(81,204,o),
(74,147,o),
(115,84,c),
(161,15,o),
(226,-18,o),
(343,-18,c)
);
},
{
closed = 1;
nodes = (
(523,743,o),
(578,801,o),
(615,857,c),
(622,868,o),
(614,882,o),
(602,880,c),
(545,877,l),
(533,876,o),
(523,874,o),
(519,865,c),
(512,823,o),
(489,759,o),
(479,727,c),
(475,714,o),
(491,710,o),
(500,720,c)
);
}
);
width = 748;
}
);
unicode = 218;
},
{
glyphname = Ucircumflex;
lastChange = "2023-05-15 06:06:49 +0000";
layers = (
{
hints = (
{
horizontal = 1;
place = (-18, 37);
place = (-18, 37);
type = Stem;
},
{
horizontal = 1;
place = (610, 38);
place = (610, 38);
type = Stem;
},
{
horizontal = 1;
place = (886, -20);
target = down;
type = TopGhost;
}
);
layerId = m01;
shapes = (
{
closed = 1;
nodes = (
(451,-18,o),
(537,17,o),
(594,110,c),
(617,147,o),
(627,176,o),
(638,236,c),
(689,507,l),
(706,596,o),
(728,607,o),
(783,614,c),
(801,611,o),
(806,650,o),
(788,648,c),
(783,648,o),
(776,650,o),
(771,648,c),
(743,648,o),
(728,649,o),
(685,648,c),
(642,646,o),
(603,648,o),
(570,648,c),
(556,652,o),
(547,614,o),
(563,614,c),
(609,614,o),
(651,610,o),
(651,551,c),
(651,541,o),
(650,531,o),
(647,515,c),
(597,248,l),
(572,114,o),
(518,19,o),
(360,19,c),
(242,19,o),
(180,80,o),
(180,169,c),
(180,195,o),
(184,229,o),
(192,266,c),
(249,529,l),
(265,602,o),
(274,614,o),
(348,610,c),
(357,609,o),
(361,629,o),
(362,636,c),
(362,645,o),
(356,648,o),
(348,648,c),
(288,645,o),
(155,646,o),
(85,648,c),
(70,650,o),
(63,612,o),
(78,612,c),
(95,612,l),
(136,612,o),
(157,599,o),
(157,568,c),
(157,560,o),
(156,549,o),
(151,527,c),
(96,272,l),
(81,204,o),
(74,147,o),
(115,84,c),
(161,15,o),
(226,-18,o),
(343,-18,c)
);
},
{
closed = 1;
nodes = (
(506,813,l),
(514,818,o),
(519,815,o),
(522,810,c),
(595,724,l),
(599,717,o),
(617,714,o),
(615,724,c),
(579,875,l),
(577,884,o),
(566,886,o),
(559,886,c),
(511,886,l),
(499,886,o),
(496,883,o),
(488,877,c),
(346,734,l),
(321,709,o),
(350,715,o),
(364,724,c)
);
}
);
width = 748;
}
);
unicode = 219;
},
{
glyphname = Udieresis;
lastChange = "2023-05-15 06:06:49 +0000";
layers = (
{
hints = (
{
horizontal = 1;
place = (725, 107);
place = (725, 107);
type = Stem;
},
{
horizontal = 1;
place = (-18, 37);
place = (-18, 37);
type = Stem;
},
{
horizontal = 1;
place = (610, 38);
place = (610, 38);
type = Stem;
},
{
horizontal = 1;
place = (831, -20);
target = down;
type = TopGhost;
}
);
layerId = m01;
shapes = (
{
closed = 1;
nodes = (
(451,-18,o),
(537,17,o),
(594,110,c),
(617,147,o),
(627,176,o),
(638,236,c),
(689,507,l),
(706,596,o),
(728,607,o),
(783,614,c),
(801,611,o),
(806,650,o),
(788,648,c),
(783,648,o),
(776,650,o),
(771,648,c),
(743,648,o),
(728,649,o),
(685,648,c),
(642,646,o),
(603,648,o),
(570,648,c),
(556,652,o),
(547,614,o),
(563,614,c),
(609,614,o),
(651,610,o),
(651,551,c),
(651,541,o),
(650,531,o),
(647,515,c),
(597,248,l),
(572,114,o),
(518,19,o),
(360,19,c),
(242,19,o),
(180,80,o),
(180,169,c),
(180,195,o),
(184,229,o),
(192,266,c),
(249,529,l),
(265,602,o),
(274,614,o),
(348,610,c),
(357,609,o),
(361,629,o),
(362,636,c),
(362,645,o),
(356,648,o),
(348,648,c),
(288,645,o),
(155,646,o),
(85,648,c),
(70,650,o),
(63,612,o),
(78,612,c),
(95,612,l),
(136,612,o),
(157,599,o),
(157,568,c),
(157,560,o),
(156,549,o),
(151,527,c),
(96,272,l),
(81,204,o),
(74,147,o),
(115,84,c),
(161,15,o),
(226,-18,o),
(343,-18,c)
);
},
{
closed = 1;
nodes = (
(439,725,o),
(464,750,o),
(464,778,c),
(464,808,o),
(439,831,o),
(410,831,c),
(380,831,o),
(356,808,o),
(356,778,c),
(356,750,o),
(380,725,o),
(410,725,c)
);
},
{
closed = 1;
nodes = (
(603,725,o),
(627,750,o),
(627,779,c),
(627,809,o),
(603,832,o),
(573,832,c),
(543,832,o),
(518,809,o),
(518,779,c),
(518,750,o),
(543,725,o),
(573,725,c)
);
}
);
width = 748;
}
);
unicode = 220;
},
{
glyphname = Ugrave;
lastChange = "2023-05-15 06:06:49 +0000";
layers = (
{
hints = (
{
horizontal = 1;
place = (-18, 37);
place = (-18, 37);
type = Stem;
},
{
horizontal = 1;
place = (610, 38);
place = (610, 38);
type = Stem;
},
{
horizontal = 1;
place = (876, -20);
target = down;
type = TopGhost;
}
);
layerId = m01;
shapes = (
{
closed = 1;
nodes = (
(451,-18,o),
(537,17,o),
(594,110,c),
(617,147,o),
(627,176,o),
(638,236,c),
(689,507,l),
(706,596,o),
(728,607,o),
(783,614,c),
(801,611,o),
(806,650,o),
(788,648,c),
(783,648,o),
(776,650,o),
(771,648,c),
(743,648,o),
(728,649,o),
(685,648,c),
(642,646,o),
(603,648,o),
(570,648,c),
(556,652,o),
(547,614,o),
(563,614,c),
(609,614,o),
(651,610,o),
(651,551,c),
(651,541,o),
(650,531,o),
(647,515,c),
(597,248,l),
(572,114,o),
(518,19,o),
(360,19,c),
(242,19,o),
(180,80,o),
(180,169,c),
(180,195,o),
(184,229,o),
(192,266,c),
(249,529,l),
(265,602,o),
(274,614,o),
(348,610,c),
(357,609,o),
(361,629,o),
(362,636,c),
(362,645,o),
(356,648,o),
(348,648,c),
(288,645,o),
(155,646,o),
(85,648,c),
(70,650,o),
(63,612,o),
(78,612,c),
(95,612,l),
(136,612,o),
(157,599,o),
(157,568,c),
(157,560,o),
(156,549,o),
(151,527,c),
(96,272,l),
(81,204,o),
(74,147,o),
(115,84,c),
(161,15,o),
(226,-18,o),
(343,-18,c)
);
},
{
closed = 1;
nodes = (
(485,711,o),
(506,710,o),
(503,723,c),
(493,758,o),
(470,840,o),
(459,862,c),
(452,875,o),
(443,876,o),
(433,876,c),
(377,876,l),
(371,876,o),
(354,866,o),
(366,854,c),
(399,820,o),
(453,754,o),
(480,718,c)
);
}
);
width = 748;
}
);
unicode = 217;
},
{
glyphname = V;
lastChange = "2023-05-15 06:06:49 +0000";
layers = (
{
hints = (
{
horizontal = 1;
place = (612, 36);
place = (612, 36);
type = Stem;
},
{
place = (118, 96);
place = (118, 96);
type = Stem;
},
{
horizontal = 1;
place = (649, -20);
target = down;
type = TopGhost;
},
{
place = (132, 95);
place = (132, 95);
type = Stem;
},
{
horizontal = 1;
place = (647, -20);
target = down;
type = TopGhost;
}
);
layerId = m01;
shapes = (
{
closed = 1;
nodes = (
(617,524,l),
(660,575,o),
(688,602,o),
(730,615,c),
(750,617,o),
(752,648,o),
(736,648,c),
(643,645,o),
(604,647,o),
(537,649,c),
(521,649,o),
(520,612,o),
(531,612,c),
(543,612,o),
(556,612,o),
(568,611,c),
(584,609,o),
(593,603,o),
(593,584,c),
(593,569,o),
(586,554,o),
(554,517,c),
(219,122,l),
(215,116,o),
(202,113,o),
(202,121,c),
(227,530,l),
(231,590,o),
(245,615,o),
(303,610,c),
(308,611,o),
(316,610,o),
(320,611,c),
(338,612,o),
(341,648,o),
(326,647,c),
(261,644,o),
(178,644,o),
(64,647,c),
(47,647,o),
(46,609,o),
(62,611,c),
(67,611,l),
(110,611,o),
(132,597,o),
(132,548,c),
(132,531,l),
(105,-8,l),
(102,-29,o),
(147,-23,o),
(154,-15,c)
);
}
);
width = 607;
}
);
unicode = 86;
},
{
glyphname = W;
lastChange = "2023-05-15 06:06:49 +0000";
layers = (
{
hints = (
{
place = (467, 101);
place = (467, 101);
type = Stem;
},
{
horizontal = 1;
place = (611, 36);
place = (611, 36);
type = Stem;
},
{
horizontal = 1;
place = (-16, 21);
target = up;
type = BottomGhost;
},
{
place = (485, 83);
place = (485, 83);
type = Stem;
}
);
layerId = m01;
shapes = (
{
closed = 1;
nodes = (
(488,-16,o),
(507,-14,o),
(510,-9,c),
(896,531,l),
(936,587,o),
(962,606,o),
(994,614,c),
(997,614,o),
(1003,616,o),
(1006,619,c),
(1010,625,o),
(1012,636,o),
(1010,642,c),
(1008,645,o),
(1002,647,o),
(998,647,c),
(930,646,o),
(860,646,o),
(804,647,c),
(789,649,o),
(782,611,o),
(797,611,c),
(804,611,o),
(814,612,o),
(821,612,c),
(844,611,o),
(863,605,o),
(863,577,c),
(863,563,o),
(854,545,o),
(836,520,c),
(581,162,l),
(576,155,o),
(554,140,o),
(555,149,c),
(582,535,l),
(587,601,o),
(587,604,o),
(660,612,c),
(671,612,o),
(681,647,o),
(664,647,c),
(589,646,o),
(489,646,o),
(416,647,c),
(403,647,o),
(398,611,o),
(414,613,c),
(476,611,o),
(485,603,o),
(485,560,c),
(485,525,l),
(201,163,l),
(191,150,o),
(179,151,o),
(180,159,c),
(218,523,l),
(226,595,o),
(233,605,o),
(298,613,c),
(309,613,o),
(317,648,o),
(300,647,c),
(235,644,o),
(118,645,o),
(62,647,c),
(54,647,o),
(52,637,o),
(50,632,c),
(48,621,o),
(52,613,o),
(61,612,c),
(70,610,o),
(79,611,o),
(88,611,c),
(107,610,o),
(126,606,o),
(126,558,c),
(126,552,o),
(126,546,o),
(125,540,c),
(79,-7,l),
(78,-19,o),
(120,-21,o),
(128,-11,c),
(128,-11,o),
(447,406,o),
(460,423,c),
(468,433,o),
(484,440,o),
(483,427,c),
(452,-6,l),
(452,-13,o),
(465,-16,o),
(477,-16,c)
);
}
);
width = 897;
}
);
unicode = 87;
},
{
glyphname = X;
lastChange = "2023-05-15 06:06:49 +0000";
layers = (
{
hints = (
{
horizontal = 1;
place = (613, 34);
place = (613, 34);
type = Stem;
},
{
horizontal = 1;
place = (-4, 32);
place = (-4, 32);
type = Stem;
},
{
horizontal = 1;
place = (646, -20);
target = down;
type = TopGhost;
}
);
layerId = m01;
shapes = (
{
closed = 1;
nodes = (
(52,-1,o),
(170,-1,o),
(230,-4,c),
(235,-4,o),
(240,5,o),
(242,10,c),
(244,16,o),
(243,27,o),
(237,28,c),
(163,33,o),
(139,52,o),
(201,114,c),
(364,279,l),
(372,287,o),
(385,290,o),
(389,287,c),
(425,224,o),
(472,133,o),
(498,81,c),
(522,34,o),
(497,31,o),
(441,28,c),
(436,29,o),
(432,19,o),
(431,13,c),
(430,7,o),
(430,-4,o),
(439,-4,c),
(504,0,o),
(632,-1,o),
(692,-4,c),
(702,-5,o),
(712,26,o),
(697,28,c),
(637,38,o),
(621,43,o),
(586,109,c),
(547,185,o),
(500,276,o),
(463,340,c),
(453,358,o),
(455,371,o),
(460,377,c),
(613,536,l),
(665,590,o),
(708,609,o),
(767,617,c),
(780,617,o),
(791,652,o),
(769,647,c),
(705,644,o),
(605,645,o),
(531,647,c),
(517,650,o),
(511,613,o),
(528,615,c),
(585,612,o),
(596,604,o),
(596,588,c),
(596,577,o),
(590,565,o),
(572,548,c),
(510,489,o),
(464,436,o),
(440,410,c),
(434,406,o),
(424,411,o),
(422,416,c),
(351,556,l),
(346,566,o),
(338,578,o),
(338,590,c),
(338,607,o),
(349,612,o),
(408,613,c),
(418,612,o),
(425,646,o),
(409,646,c),
(339,644,o),
(200,644,o),
(133,646,c),
(121,646,o),
(116,612,o),
(127,612,c),
(195,610,o),
(222,595,o),
(244,554,c),
(359,341,l),
(363,334,o),
(357,325,o),
(350,318,c),
(129,94,l),
(98,63,o),
(85,43,o),
(39,35,c),
(29,33,o),
(16,33,o),
(0,31,c),
(-14,29,o),
(-18,-5,o),
(-6,-4,c)
);
}
);
width = 704;
}
);
unicode = 88;
},
{
glyphname = Y;
lastChange = "2023-05-15 06:40:40 +0000";
layers = (
{
hints = (
{
horizontal = 1;
place = (-3, 40);
place = (-3, 40);
type = Stem;
},
{
horizontal = 1;
place = (647, -20);
target = down;
type = TopGhost;
}
);
layerId = m01;
shapes = (
{
closed = 1;
nodes = (
(249,1,o),
(394,0,o),
(464,-3,c),
(475,-3,o),
(481,28,o),
(472,34,c),
(465,39,o),
(450,36,o),
(442,36,c),
(400,35,o),
(383,45,o),
(377,59,c),
(370,75,o),
(377,97,o),
(380,114,c),
(410,261,l),
(660,549,l),
(701,596,o),
(713,602,o),
(755,618,c),
(755,619,o),
(761,622,o),
(764,633,c),
(766,639,o),
(761,647,o),
(753,646,c),
(707,645,o),
(639,645,o),
(589,646,c),
(583,648,o),
(576,648,o),
(569,647,c),
(557,649,o),
(553,617,o),
(565,615,c),
(608,613,o),
(623,603,o),
(623,586,c),
(623,574,o),
(616,564,o),
(586,529,c),
(412,328,l),
(407,322,o),
(393,316,o),
(392,320,c),
(293,547,l),
(266,609,o),
(275,610,o),
(330,615,c),
(337,614,o),
(340,621,o),
(342,629,c),
(345,641,o),
(340,646,o),
(334,647,c),
(275,642,o),
(168,644,o),
(116,647,c),
(110,647,o),
(105,637,o),
(104,632,c),
(101,614,o),
(111,615,o),
(123,614,c),
(153,611,o),
(167,599,o),
(191,545,c),
(314,264,l),
(283,116,l),
(275,76,o),
(265,59,o),
(250,49,c),
(243,45,o),
(234,42,o),
(224,40,c),
(213,39,o),
(200,38,o),
(186,37,c),
(171,36,l),
(157,35,o),
(153,-1,o),
(167,-3,c)
);
}
);
width = 653;
}
);
unicode = 89;
},
{
glyphname = Yacute;
lastChange = "2023-05-15 06:06:49 +0000";
layers = (
{
hints = (
{
horizontal = 1;
place = (-3, 40);
place = (-3, 40);
type = Stem;
},
{
horizontal = 1;
place = (646, -20);
target = down;
type = TopGhost;
}
);
layerId = m01;
shapes = (
{
closed = 1;
nodes = (
(249,1,o),
(394,0,o),
(463,-3,c),
(475,-3,o),
(481,28,o),
(472,34,c),
(465,39,o),
(450,36,o),
(442,36,c),
(400,35,o),
(383,45,o),
(377,59,c),
(370,75,o),
(377,97,o),
(380,114,c),
(410,261,l),
(660,549,l),
(701,596,o),
(713,602,o),
(754,618,c),
(755,618,o),
(761,622,o),
(764,633,c),
(766,639,o),
(761,647,o),
(753,646,c),
(707,645,o),
(639,645,o),
(589,646,c),
(583,648,o),
(576,648,o),
(569,647,c),
(557,649,o),
(553,617,o),
(565,615,c),
(608,613,o),
(623,603,o),
(623,586,c),
(623,574,o),
(616,564,o),
(586,529,c),
(408,323,l),
(403,317,o),
(393,316,o),
(392,320,c),
(293,547,l),
(266,609,o),
(275,610,o),
(330,615,c),
(337,614,o),
(340,621,o),
(342,629,c),
(345,640,o),
(340,646,o),
(334,646,c),
(275,642,o),
(167,644,o),
(116,646,c),
(110,647,o),
(105,637,o),
(104,632,c),
(101,614,o),
(111,615,o),
(123,614,c),
(153,611,o),
(167,599,o),
(191,545,c),
(314,264,l),
(283,116,l),
(275,76,o),
(264,59,o),
(250,49,c),
(243,45,o),
(234,42,o),
(224,40,c),
(213,39,o),
(200,38,o),
(186,37,c),
(171,36,l),
(157,35,o),
(153,-1,o),
(166,-3,c)
);
},
{
closed = 1;
nodes = (
(470,743,o),
(526,801,o),
(562,857,c),
(569,868,o),
(561,882,o),
(549,880,c),
(492,877,l),
(480,876,o),
(470,874,o),
(466,865,c),
(459,823,o),
(436,759,o),
(426,727,c),
(422,714,o),
(439,710,o),
(447,720,c)
);
}
);
width = 653;
}
);
unicode = 221;
},
{
glyphname = Ydieresis;
lastChange = "2023-05-15 06:06:49 +0000";
layers = (
{
hints = (
{
place = (500, 108);
place = (500, 108);
type = Stem;
},
{
horizontal = 1;
place = (702, 107);
place = (702, 107);
type = Stem;
},
{
place = (337, 108);
place = (337, 108);
type = Stem;
},
{
horizontal = 1;
place = (-3, 40);
place = (-3, 40);
type = Stem;
},
{
horizontal = 1;
place = (646, -20);
target = down;
type = TopGhost;
},
{
horizontal = 1;
place = (808, -20);
target = down;
type = TopGhost;
}
);
layerId = m01;
shapes = (
{
closed = 1;
nodes = (
(249,1,o),
(394,0,o),
(463,-3,c),
(475,-3,o),
(481,28,o),
(472,34,c),
(465,39,o),
(450,36,o),
(442,36,c),
(400,35,o),
(383,45,o),
(377,59,c),
(370,75,o),
(377,97,o),
(380,114,c),
(410,261,l),
(660,549,l),
(701,596,o),
(713,602,o),
(754,618,c),
(755,618,o),
(761,622,o),
(764,633,c),
(766,639,o),
(761,647,o),
(753,646,c),
(707,645,o),
(639,645,o),
(589,646,c),
(583,648,o),
(576,648,o),
(569,647,c),
(557,649,o),
(553,617,o),
(565,615,c),
(608,613,o),
(623,603,o),
(623,586,c),
(623,574,o),
(616,564,o),
(586,529,c),
(408,323,l),
(403,317,o),
(393,316,o),
(392,320,c),
(293,547,l),
(266,609,o),
(275,610,o),
(330,615,c),
(337,614,o),
(340,621,o),
(342,629,c),
(345,640,o),
(340,646,o),
(334,646,c),
(275,642,o),
(167,644,o),
(116,646,c),
(110,647,o),
(105,637,o),
(104,632,c),
(101,614,o),
(111,615,o),
(123,614,c),
(153,611,o),
(167,599,o),
(191,545,c),
(314,264,l),
(283,116,l),
(275,76,o),
(264,59,o),
(250,49,c),
(243,45,o),
(234,42,o),
(224,40,c),
(213,39,o),
(200,38,o),
(186,37,c),
(171,36,l),
(157,35,o),
(153,-1,o),
(166,-3,c)
);
},
{
closed = 1;
nodes = (
(420,702,o),
(445,727,o),
(445,755,c),
(445,785,o),
(420,808,o),
(391,808,c),
(361,808,o),
(337,785,o),
(337,755,c),
(337,727,o),
(361,702,o),
(391,702,c)
);
},
{
closed = 1;
nodes = (
(584,702,o),
(608,727,o),
(608,756,c),
(608,786,o),
(584,809,o),
(554,809,c),
(524,809,o),
(500,786,o),
(500,756,c),
(500,727,o),
(524,702,o),
(554,702,c)
);
}
);
width = 653;
}
);
unicode = 376;
},
{
glyphname = Z;
lastChange = "2023-05-15 06:06:49 +0000";
layers = (
{
hints = (
{
horizontal = 1;
place = (-2, 43);
place = (-2, 43);
type = Stem;
},
{
horizontal = 1;
place = (606, 40);
place = (606, 40);
type = Stem;
}
);
layerId = m01;
shapes = (
{
closed = 1;
nodes = (
(585,-2,l),
(594,-2,o),
(611,4,o),
(614,10,c),
(631,64,o),
(649,118,o),
(660,175,c),
(662,182,o),
(661,188,o),
(657,189,c),
(652,191,o),
(637,189,o),
(632,186,c),
(603,136,o),
(581,106,o),
(553,81,c),
(519,50,o),
(502,41,o),
(436,41,c),
(186,42,l),
(177,42,o),
(154,46,o),
(164,56,c),
(281,179,o),
(555,459,o),
(723,616,c),
(728,633,o),
(729,649,o),
(704,646,c),
(577,645,o),
(352,644,o),
(228,646,c),
(224,646,o),
(209,643,o),
(207,637,c),
(193,595,o),
(174,513,o),
(167,471,c),
(165,458,o),
(199,459,o),
(201,469,c),
(239,568,o),
(290,606,o),
(389,606,c),
(557,606,l),
(563,606,o),
(580,601,o),
(573,594,c),
(405,432,o),
(162,186,o),
(23,43,c),
(16,36,o),
(6,24,o),
(6,13,c),
(6,6,o),
(7,-1,o),
(11,-2,c)
);
}
);
width = 687;
}
);
unicode = 90;
},
{
glyphname = Zcaron;
lastChange = "2023-05-15 06:06:49 +0000";
layers = (
{
hints = (
{
horizontal = 1;
place = (-2, 43);
place = (-2, 43);
type = Stem;
},
{
horizontal = 1;
place = (605, 41);
place = (605, 41);
type = Stem;
}
);
layerId = m01;
shapes = (
{
closed = 1;
nodes = (
(585,-2,l),
(594,-2,o),
(611,4,o),
(614,10,c),
(631,64,o),
(649,118,o),
(660,175,c),
(662,182,o),
(661,188,o),
(657,189,c),
(652,191,o),
(637,189,o),
(632,186,c),
(603,136,o),
(581,106,o),
(553,81,c),
(519,50,o),
(502,41,o),
(436,41,c),
(186,42,l),
(177,42,o),
(154,46,o),
(164,56,c),
(281,179,o),
(555,459,o),
(723,616,c),
(728,633,o),
(728,649,o),
(704,646,c),
(577,645,o),
(352,644,o),
(228,646,c),
(224,646,o),
(209,643,o),
(207,637,c),
(193,595,o),
(174,513,o),
(167,471,c),
(165,458,o),
(199,459,o),
(201,468,c),
(239,568,o),
(290,605,o),
(389,605,c),
(557,605,l),
(563,605,o),
(580,601,o),
(573,594,c),
(405,432,o),
(162,186,o),
(23,43,c),
(16,36,o),
(6,24,o),
(6,13,c),
(6,6,o),
(7,-1,o),
(11,-2,c)
);
},
{
closed = 1;
nodes = (
(480,692,l),
(494,692,o),
(505,695,o),
(511,699,c),
(654,843,l),
(675,865,o),
(646,860,o),
(637,855,c),
(499,768,l),
(491,763,o),
(484,761,o),
(479,766,c),
(405,855,l),
(401,864,o),
(383,864,o),
(385,855,c),
(422,703,l),
(424,700,o),
(428,690,o),
(438,692,c)
);
}
);
width = 687;
}
);
unicode = 381;
},
{
glyphname = a;
lastChange = "2023-05-15 06:06:49 +0000";
layers = (
{
hints = (
{
horizontal = 1;
place = (428, -20);
target = down;
type = TopGhost;
},
{
horizontal = 1;
place = (-12, 21);
target = up;
type = BottomGhost;
},
{
place = (32, 73);
place = (32, 73);
type = Stem;
}
);
layerId = m01;
shapes = (
{
closed = 1;
nodes = (
(131,-12,o),
(210,69,o),
(241,103,c),
(245,107,o),
(252,104,o),
(250,95,c),
(246,77,o),
(244,66,o),
(244,46,c),
(243,17,o),
(250,-12,o),
(278,-12,c),
(295,-12,o),
(319,8,o),
(340,28,c),
(361,49,o),
(381,70,o),
(390,80,c),
(395,85,o),
(396,88,o),
(395,93,c),
(394,106,o),
(380,122,o),
(374,107,c),
(364,95,o),
(354,83,o),
(342,73,c),
(336,68,o),
(322,64,o),
(322,78,c),
(322,84,o),
(324,100,o),
(330,130,c),
(387,413,l),
(386,422,o),
(383,428,o),
(378,428,c),
(319,427,o),
(270,416,o),
(217,385,c),
(111,323,o),
(32,202,o),
(32,99,c),
(32,44,o),
(59,-12,o),
(96,-12,c)
);
},
{
closed = 1;
nodes = (
(120,52,o),
(105,76,o),
(105,120,c),
(105,206,o),
(141,289,o),
(197,327,c),
(223,345,o),
(253,358,o),
(294,363,c),
(300,364,o),
(302,349,o),
(301,342,c),
(264,167,l),
(248,151,o),
(144,52,o),
(132,52,c)
);
}
);
width = 420;
}
);
unicode = 97;
},
{
glyphname = aacute;
lastChange = "2023-05-15 06:06:49 +0000";
layers = (
{
hints = (
{
horizontal = 1;
place = (428, -20);
target = down;
type = TopGhost;
},
{
horizontal = 1;
place = (-12, 21);
target = up;
type = BottomGhost;
},
{
place = (32, 73);
place = (32, 73);
type = Stem;
}
);
layerId = m01;
shapes = (
{
closed = 1;
nodes = (
(133,-12,o),
(221,81,o),
(247,109,c),
(251,113,o),
(253,106,o),
(252,101,c),
(248,83,o),
(244,65,o),
(244,46,c),
(243,17,o),
(250,-12,o),
(278,-12,c),
(295,-12,o),
(319,8,o),
(340,28,c),
(361,49,o),
(381,70,o),
(390,80,c),
(395,85,o),
(396,88,o),
(395,93,c),
(394,106,o),
(380,122,o),
(374,107,c),
(364,95,o),
(354,83,o),
(342,73,c),
(336,68,o),
(321,52,o),
(321,69,c),
(321,75,o),
(323,91,o),
(329,121,c),
(386,413,l),
(386,422,o),
(383,428,o),
(378,428,c),
(319,427,o),
(270,416,o),
(217,385,c),
(111,323,o),
(32,202,o),
(32,99,c),
(32,44,o),
(59,-12,o),
(96,-12,c)
);
},
{
closed = 1;
nodes = (
(120,52,o),
(105,76,o),
(105,120,c),
(105,206,o),
(141,289,o),
(197,327,c),
(223,345,o),
(253,358,o),
(294,363,c),
(300,364,o),
(304,362,o),
(303,355,c),
(264,167,l),
(248,151,o),
(144,52,o),
(132,52,c)
);
},
{
closed = 1;
nodes = (
(276,524,o),
(331,582,o),
(368,638,c),
(375,649,o),
(367,664,o),
(355,661,c),
(298,658,l),
(286,657,o),
(276,655,o),
(272,646,c),
(265,604,o),
(242,540,o),
(232,508,c),
(228,495,o),
(244,491,o),
(252,501,c)
);
}
);
width = 420;
}
);
unicode = 225;
},
{
glyphname = acircumflex;
lastChange = "2023-05-15 06:06:49 +0000";
layers = (
{
hints = (
{
horizontal = 1;
place = (428, -20);
target = down;
type = TopGhost;
},
{
horizontal = 1;
place = (-12, 21);
target = up;
type = BottomGhost;
},
{
horizontal = 1;
place = (660, -20);
target = down;
type = TopGhost;
},
{
place = (32, 73);
place = (32, 73);
type = Stem;
}
);
layerId = m01;
shapes = (
{
closed = 1;
nodes = (
(133,-12,o),
(221,81,o),
(247,109,c),
(251,113,o),
(253,106,o),
(252,101,c),
(248,83,o),
(244,65,o),
(244,46,c),
(243,17,o),
(250,-12,o),
(278,-12,c),
(295,-12,o),
(319,8,o),
(340,28,c),
(361,49,o),
(381,70,o),
(390,80,c),
(395,85,o),
(396,88,o),
(395,93,c),
(394,106,o),
(380,122,o),
(374,107,c),
(364,95,o),
(354,83,o),
(342,73,c),
(336,68,o),
(321,52,o),
(321,69,c),
(321,75,o),
(323,91,o),
(329,121,c),
(386,413,l),
(386,422,o),
(383,428,o),
(378,428,c),
(319,427,o),
(270,416,o),
(217,385,c),
(111,323,o),
(32,202,o),
(32,99,c),
(32,44,o),
(59,-12,o),
(96,-12,c)
);
},
{
closed = 1;
nodes = (
(120,52,o),
(105,76,o),
(105,120,c),
(105,206,o),
(141,289,o),
(197,327,c),
(223,345,o),
(253,358,o),
(294,363,c),
(300,364,o),
(304,362,o),
(303,355,c),
(264,167,l),
(248,151,o),
(144,52,o),
(132,52,c)
);
},
{
closed = 1;
nodes = (
(321,583,l),
(330,589,o),
(347,582,o),
(352,577,c),
(361,567,o),
(398,521,o),
(416,500,c),
(419,493,o),
(439,490,o),
(435,500,c),
(392,648,l),
(389,657,o),
(379,660,o),
(372,660,c),
(332,660,l),
(320,658,o),
(317,657,o),
(309,650,c),
(168,511,l),
(142,485,o),
(171,491,o),
(185,500,c)
);
}
);
width = 420;
}
);
unicode = 226;
},
{
glyphname = adieresis;
lastChange = "2023-05-15 06:06:49 +0000";
layers = (
{
hints = (
{
place = (303, 111);
place = (303, 111);
type = Stem;
},
{
horizontal = 1;
place = (496, 114);
place = (496, 114);
type = Stem;
},
{
place = (141, 109);
place = (141, 109);
type = Stem;
},
{
horizontal = 1;
place = (-12, 62);
place = (-12, 62);
type = Stem;
},
{
horizontal = 1;
place = (428, -20);
target = down;
type = TopGhost;
},
{
place = (32, 71);
place = (32, 71);
type = Stem;
},
{
horizontal = 1;
place = (609, -20);
target = down;
type = TopGhost;
}
);
layerId = m01;
shapes = (
{
closed = 1;
nodes = (
(129,-12,o),
(212,74,o),
(246,110,c),
(253,117,o),
(252,110,o),
(251,105,c),
(242,63,o),
(231,-12,o),
(277,-12,c),
(306,-12,o),
(358,49,o),
(382,76,c),
(388,83,o),
(395,86,o),
(392,97,c),
(391,102,o),
(387,107,o),
(383,109,c),
(381,111,o),
(374,109,o),
(370,104,c),
(361,93,o),
(333,60,o),
(323,60,c),
(321,60,o),
(319,62,o),
(319,69,c),
(319,75,o),
(322,92,o),
(328,121,c),
(385,416,l),
(385,425,o),
(381,428,o),
(376,428,c),
(318,428,o),
(269,417,o),
(216,386,c),
(110,323,o),
(32,202,o),
(32,99,c),
(32,44,o),
(59,-12,o),
(95,-12,c)
);
},
{
closed = 1;
nodes = (
(119,50,o),
(103,77,o),
(103,120,c),
(103,207,o),
(139,290,o),
(195,328,c),
(222,346,o),
(252,360,o),
(293,365,c),
(305,367,o),
(303,361,o),
(302,354,c),
(264,166,l),
(247,151,o),
(144,50,o),
(131,50,c)
);
},
{
closed = 1;
nodes = (
(225,496,o),
(250,522,o),
(250,553,c),
(250,584,o),
(225,609,o),
(195,609,c),
(165,609,o),
(141,584,o),
(141,553,c),
(141,523,o),
(165,496,o),
(195,496,c)
);
},
{
closed = 1;
nodes = (
(390,496,o),
(414,523,o),
(414,554,c),
(414,585,o),
(389,610,o),
(359,610,c),
(328,610,o),
(303,585,o),
(303,554,c),
(303,522,o),
(328,496,o),
(359,496,c)
);
}
);
width = 420;
}
);
unicode = 228;
},
{
glyphname = agrave;
lastChange = "2023-05-15 06:06:49 +0000";
layers = (
{
hints = (
{
horizontal = 1;
place = (657, -20);
target = down;
type = TopGhost;
},
{
horizontal = 1;
place = (428, -20);
target = down;
type = TopGhost;
},
{
horizontal = 1;
place = (-12, 21);
target = up;
type = BottomGhost;
},
{
place = (32, 73);
place = (32, 73);
type = Stem;
}
);
layerId = m01;
shapes = (
{
closed = 1;
nodes = (
(133,-12,o),
(221,81,o),
(247,109,c),
(251,113,o),
(253,106,o),
(252,101,c),
(248,83,o),
(244,65,o),
(244,46,c),
(243,17,o),
(250,-12,o),
(278,-12,c),
(295,-12,o),
(319,8,o),
(340,28,c),
(361,49,o),
(381,70,o),
(390,80,c),
(395,85,o),
(396,88,o),
(395,93,c),
(394,106,o),
(380,122,o),
(374,107,c),
(364,95,o),
(354,83,o),
(342,73,c),
(336,68,o),
(321,52,o),
(321,69,c),
(321,75,o),
(323,91,o),
(329,121,c),
(386,413,l),
(386,422,o),
(383,428,o),
(378,428,c),
(319,427,o),
(270,416,o),
(217,385,c),
(111,323,o),
(32,202,o),
(32,99,c),
(32,44,o),
(59,-12,o),
(96,-12,c)
);
},
{
closed = 1;
nodes = (
(120,52,o),
(105,76,o),
(105,120,c),
(105,206,o),
(141,289,o),
(197,327,c),
(223,345,o),
(253,358,o),
(294,363,c),
(300,364,o),
(304,362,o),
(303,355,c),
(264,167,l),
(248,151,o),
(144,52,o),
(132,52,c)
);
},
{
closed = 1;
nodes = (
(328,492,o),
(349,491,o),
(346,504,c),
(336,539,o),
(313,621,o),
(302,643,c),
(295,656,o),
(286,657,o),
(276,657,c),
(220,657,l),
(213,657,o),
(197,647,o),
(209,635,c),
(242,601,o),
(295,535,o),
(322,499,c)
);
}
);
width = 420;
}
);
unicode = 224;
},
{
glyphname = aring;
lastChange = "2023-05-15 06:06:49 +0000";
layers = (
{
hints = (
{
horizontal = 1;
place = (472, 43);
place = (472, 43);
type = Stem;
},
{
horizontal = 1;
place = (624, 43);
place = (624, 43);
type = Stem;
},
{
horizontal = 1;
place = (428, -20);
target = down;
type = TopGhost;
},
{
horizontal = 1;
place = (-12, 21);
target = up;
type = BottomGhost;
},
{
place = (32, 73);
place = (32, 73);
type = Stem;
},
{
place = (213, 43);
place = (213, 43);
type = Stem;
},
{
place = (363, 41);
place = (363, 41);
type = Stem;
}
);
layerId = m01;
shapes = (
{
closed = 1;
nodes = (
(133,-12,o),
(221,81,o),
(247,109,c),
(251,113,o),
(253,106,o),
(252,101,c),
(248,83,o),
(244,65,o),
(244,46,c),
(243,17,o),
(250,-12,o),
(278,-12,c),
(295,-12,o),
(319,8,o),
(340,28,c),
(361,49,o),
(381,70,o),
(390,80,c),
(395,85,o),
(396,88,o),
(395,93,c),
(394,106,o),
(380,122,o),
(374,107,c),
(364,95,o),
(354,83,o),
(342,73,c),
(336,68,o),
(321,52,o),
(321,69,c),
(321,75,o),
(323,91,o),
(329,121,c),
(386,413,l),
(386,422,o),
(383,428,o),
(378,428,c),
(319,427,o),
(270,416,o),
(217,385,c),
(111,323,o),
(32,202,o),
(32,99,c),
(32,44,o),
(59,-12,o),
(96,-12,c)
);
},
{
closed = 1;
nodes = (
(120,52,o),
(105,76,o),
(105,120,c),
(105,206,o),
(141,289,o),
(197,327,c),
(223,345,o),
(253,358,o),
(294,363,c),
(300,364,o),
(304,362,o),
(303,355,c),
(264,167,l),
(248,151,o),
(144,52,o),
(132,52,c)
);
},
{
closed = 1;
nodes = (
(362,472,o),
(404,515,o),
(404,569,c),
(404,623,o),
(362,667,o),
(309,667,c),
(257,667,o),
(213,623,o),
(213,569,c),
(213,515,o),
(257,472,o),
(309,472,c)
);
},
{
closed = 1;
nodes = (
(279,515,o),
(256,540,o),
(256,569,c),
(256,600,o),
(279,624,o),
(309,624,c),
(338,624,o),
(363,600,o),
(363,569,c),
(363,540,o),
(338,515,o),
(309,515,c)
);
}
);
width = 420;
}
);
unicode = 229;
},
{
glyphname = atilde;
lastChange = "2023-05-15 06:06:49 +0000";
layers = (
{
hints = (
{
horizontal = 1;
place = (428, -20);
target = down;
type = TopGhost;
},
{
place = (32, 73);
place = (32, 73);
type = Stem;
},
{
horizontal = 1;
place = (-12, 21);
target = up;
type = BottomGhost;
},
{
horizontal = 1;
place = (631, -20);
target = down;
type = TopGhost;
},
{
horizontal = 1;
place = (496, 63);
place = (496, 63);
type = Stem;
},
{
horizontal = 1;
place = (564, 62);
place = (564, 62);
type = Stem;
}
);
layerId = m01;
shapes = (
{
closed = 1;
nodes = (
(133,-12,o),
(221,81,o),
(247,109,c),
(251,113,o),
(253,106,o),
(252,101,c),
(248,83,o),
(244,65,o),
(244,46,c),
(243,17,o),
(250,-12,o),
(278,-12,c),
(295,-12,o),
(319,8,o),
(340,28,c),
(361,49,o),
(381,70,o),
(390,80,c),
(395,85,o),
(396,88,o),
(395,93,c),
(394,106,o),
(380,122,o),
(374,107,c),
(364,95,o),
(354,83,o),
(342,73,c),
(336,68,o),
(321,52,o),
(321,69,c),
(321,75,o),
(323,91,o),
(329,121,c),
(386,413,l),
(386,422,o),
(383,428,o),
(378,428,c),
(319,427,o),
(270,416,o),
(217,385,c),
(111,323,o),
(32,202,o),
(32,99,c),
(32,44,o),
(59,-12,o),
(96,-12,c)
);
},
{
closed = 1;
nodes = (
(120,52,o),
(105,76,o),
(105,120,c),
(105,206,o),
(141,289,o),
(197,327,c),
(223,345,o),
(253,358,o),
(294,363,c),
(300,364,o),
(304,362,o),
(303,355,c),
(264,167,l),
(248,151,o),
(144,52,o),
(132,52,c)
);
},
{
closed = 1;
nodes = (
(402,496,o),
(455,541,o),
(470,612,c),
(470,615,o),
(471,619,o),
(470,625,c),
(471,629,o),
(466,632,o),
(460,631,c),
(454,631,o),
(446,629,o),
(445,625,c),
(426,571,o),
(412,559,o),
(391,559,c),
(379,559,o),
(365,565,o),
(338,586,c),
(300,617,o),
(279,626,o),
(249,626,c),
(188,626,o),
(144,585,o),
(122,499,c),
(121,486,o),
(143,491,o),
(149,499,c),
(152,509,o),
(155,513,o),
(156,517,c),
(171,553,o),
(184,564,o),
(203,564,c),
(216,564,o),
(224,561,o),
(256,535,c),
(288,509,o),
(317,496,o),
(344,496,c)
);
}
);
width = 420;
}
);
unicode = 227;
},
{
glyphname = ae;
lastChange = "2023-05-15 06:06:49 +0000";
layers = (
{
hints = (
{
place = (531, 66);
place = (531, 66);
type = Stem;
},
{
horizontal = 1;
place = (425, -20);
target = down;
type = TopGhost;
},
{
horizontal = 1;
place = (-14, 48);
place = (-14, 48);
type = Stem;
},
{
place = (37, 74);
place = (37, 74);
type = Stem;
},
{
horizontal = 1;
place = (392, 32);
place = (392, 32);
type = Stem;
},
{
horizontal = 1;
place = (-13, 21);
target = up;
type = BottomGhost;
},
{
horizontal = 1;
place = (-14, 63);
place = (-14, 63);
type = Stem;
}
);
layerId = m01;
shapes = (
{
closed = 1;
nodes = (
(416,-14,o),
(476,9,o),
(546,56,c),
(551,60,o),
(553,67,o),
(549,72,c),
(541,79,l),
(538,82,o),
(532,85,o),
(527,82,c),
(471,47,o),
(447,34,o),
(421,34,c),
(383,34,o),
(353,70,o),
(353,123,c),
(353,144,o),
(354,153,o),
(359,178,c),
(360,185,o),
(368,187,o),
(371,188,c),
(407,197,o),
(453,214,o),
(496,233,c),
(559,260,o),
(597,303,o),
(597,350,c),
(597,394,o),
(559,425,o),
(510,425,c),
(472,425,o),
(442,413,o),
(408,385,c),
(404,381,o),
(393,376,o),
(396,387,c),
(401,408,l),
(402,416,o),
(397,424,o),
(387,424,c),
(208,424,o),
(37,268,o),
(37,104,c),
(37,59,o),
(51,21,o),
(79,-1,c),
(89,-9,o),
(99,-13,o),
(108,-13,c),
(140,-13,o),
(230,71,o),
(267,106,c),
(274,112,o),
(277,105,o),
(277,98,c),
(283,36,o),
(323,-14,o),
(375,-14,c)
);
},
{
closed = 1;
nodes = (
(127,49,o),
(111,77,o),
(111,130,c),
(111,217,o),
(153,295,o),
(219,335,c),
(250,353,o),
(270,360,o),
(314,366,c),
(320,367,o),
(320,352,o),
(318,341,c),
(281,159,l),
(199,76,o),
(163,49,o),
(142,49,c)
);
},
{
closed = 1;
nodes = (
(379,220,o),
(367,220,o),
(369,228,c),
(396,337,o),
(440,392,o),
(491,392,c),
(514,392,o),
(531,374,o),
(531,348,c),
(531,320,o),
(514,288,o),
(488,270,c),
(459,249,o),
(419,232,o),
(384,222,c)
);
}
);
width = 583;
}
);
unicode = 230;
},
{
glyphname = b;
lastChange = "2023-05-15 06:06:49 +0000";
layers = (
{
hints = (
{
horizontal = 1;
place = (-12, 34);
place = (-12, 34);
type = Stem;
},
{
horizontal = 1;
place = (365, 68);
place = (365, 68);
type = Stem;
}
);
layerId = m01;
shapes = (
{
closed = 1;
nodes = (
(317,-12,o),
(443,256,o),
(357,406,c),
(349,420,o),
(339,433,o),
(327,433,c),
(293,433,o),
(220,353,o),
(184,313,c),
(176,303,o),
(175,322,o),
(177,335,c),
(193,431,o),
(231,624,o),
(254,723,c),
(263,763,o),
(245,766,o),
(209,745,c),
(124,695,l),
(112,688,o),
(110,659,o),
(137,671,c),
(147,674,o),
(157,681,o),
(164,684,c),
(171,687,o),
(175,689,o),
(170,668,c),
(128,487,o),
(100,328,o),
(68,146,c),
(55,72,o),
(62,-12,o),
(162,-12,c)
);
},
{
closed = 1;
nodes = (
(121,22,o),
(133,100,o),
(141,143,c),
(155,223,l),
(157,234,o),
(161,245,o),
(167,252,c),
(194,285,o),
(259,365,o),
(283,365,c),
(296,365,o),
(311,330,o),
(311,265,c),
(311,195,o),
(259,22,o),
(176,22,c)
);
}
);
width = 415;
}
);
unicode = 98;
},
{
glyphname = c;
lastChange = "2023-05-15 06:06:49 +0000";
layers = (
{
hints = (
{
horizontal = 1;
place = (-12, 55);
place = (-12, 55);
type = Stem;
},
{
horizontal = 1;
place = (347, 82);
place = (347, 82);
type = Stem;
}
);
layerId = m01;
shapes = (
{
closed = 1;
nodes = (
(189,-12,o),
(250,23,o),
(298,81,c),
(305,95,o),
(279,119,o),
(271,103,c),
(240,65,o),
(205,43,o),
(177,43,c),
(82,43,o),
(150,252,o),
(171,306,c),
(190,354,o),
(210,374,o),
(228,374,c),
(235,374,o),
(241,372,o),
(253,365,c),
(270,356,o),
(282,347,o),
(302,347,c),
(322,347,o),
(334,365,o),
(334,386,c),
(334,414,o),
(309,429,o),
(278,429,c),
(142,429,o),
(53,212,o),
(53,100,c),
(53,34,o),
(89,-12,o),
(144,-12,c)
);
}
);
width = 320;
}
);
unicode = 99;
},
{
glyphname = ccedilla;
lastChange = "2023-05-15 06:06:49 +0000";
layers = (
{
hints = (
{
horizontal = 1;
place = (347, 82);
place = (347, 82);
type = Stem;
},
{
place = (53, 140);
place = (53, 140);
type = Stem;
},
{
horizontal = 1;
place = (-12, 21);
target = up;
type = BottomGhost;
},
{
place = (146, 47);
place = (146, 47);
type = Stem;
}
);
layerId = m01;
shapes = (
{
closed = 1;
nodes = (
(135,-192,o),
(193,-156,o),
(193,-92,c),
(193,-58,o),
(174,-34,o),
(145,-29,c),
(141,-28,o),
(137,-25,o),
(139,-21,c),
(141,-16,l),
(145,-10,o),
(144,-12,o),
(153,-12,c),
(196,-8,o),
(253,27,o),
(298,81,c),
(305,95,o),
(279,119,o),
(271,103,c),
(240,65,o),
(205,43,o),
(177,43,c),
(82,43,o),
(150,252,o),
(171,306,c),
(190,354,o),
(210,374,o),
(228,374,c),
(235,374,o),
(241,372,o),
(253,365,c),
(270,356,o),
(282,347,o),
(302,347,c),
(322,347,o),
(334,365,o),
(334,386,c),
(334,414,o),
(309,429,o),
(278,429,c),
(142,429,o),
(53,212,o),
(53,100,c),
(53,43,o),
(78,1,o),
(120,-9,c),
(124,-10,o),
(124,-16,o),
(122,-21,c),
(101,-62,l),
(99,-68,o),
(102,-76,o),
(106,-77,c),
(133,-80,o),
(146,-89,o),
(146,-111,c),
(146,-148,o),
(114,-174,o),
(47,-171,c),
(43,-171,o),
(39,-173,o),
(38,-177,c),
(36,-183,l),
(35,-187,o),
(41,-189,o),
(46,-190,c)
);
}
);
width = 320;
}
);
unicode = 231;
},
{
glyphname = d;
lastChange = "2023-05-15 06:06:49 +0000";
layers = (
{
hints = (
{
horizontal = 1;
place = (-12, 61);
place = (-12, 61);
type = Stem;
},
{
place = (49, 74);
place = (49, 74);
type = Stem;
},
{
place = (123, 134);
place = (123, 134);
type = Stem;
}
);
layerId = m01;
shapes = (
{
closed = 1;
nodes = (
(143,-12,o),
(202,37,o),
(265,117,c),
(269,121,o),
(271,113,o),
(269,106,c),
(268,101,o),
(269,102,o),
(264,81,c),
(259,56,o),
(257,37,o),
(257,25,c),
(257,4,o),
(266,-12,o),
(284,-12,c),
(314,-12,o),
(373,39,o),
(410,98,c),
(415,117,o),
(396,130,o),
(388,119,c),
(367,89,o),
(353,72,o),
(344,64,c),
(334,55,o),
(337,66,o),
(337,78,c),
(459,718,l),
(468,764,o),
(436,753,o),
(417,742,c),
(313,683,l),
(295,678,o),
(303,640,o),
(321,652,c),
(337,660,o),
(348,668,o),
(364,677,c),
(376,682,o),
(378,683,o),
(374,663,c),
(332,427,l),
(331,422,o),
(325,410,o),
(319,415,c),
(283,448,o),
(237,431,o),
(201,405,c),
(109,336,o),
(49,224,o),
(49,117,c),
(49,47,o),
(72,-12,o),
(112,-12,c)
);
},
{
closed = 1;
nodes = (
(137,49,o),
(123,73,o),
(123,123,c),
(123,188,o),
(143,259,o),
(180,324,c),
(207,371,o),
(233,393,o),
(256,393,c),
(279,393,o),
(300,373,o),
(314,337,c),
(286,191,l),
(225,104,o),
(170,49,o),
(151,49,c)
);
}
);
width = 450;
}
);
unicode = 100;
},
{
glyphname = eth;
lastChange = "2023-05-15 06:06:49 +0000";
layers = (
{
hints = (
{
horizontal = 1;
place = (-13, 49);
place = (-13, 49);
type = Stem;
},
{
horizontal = 1;
place = (379, 50);
place = (379, 50);
type = Stem;
},
{
place = (46, 76);
place = (46, 76);
type = Stem;
},
{
place = (308, 85);
place = (308, 85);
type = Stem;
}
);
layerId = m01;
shapes = (
{
closed = 1;
nodes = (
(232,-13,o),
(344,111,o),
(370,187,c),
(382,223,o),
(393,308,o),
(393,360,c),
(393,388,o),
(390,417,o),
(384,447,c),
(376,486,o),
(371,506,o),
(355,536,c),
(350,545,o),
(354,552,o),
(361,554,c),
(415,572,l),
(420,574,o),
(422,582,o),
(421,588,c),
(419,596,o),
(416,601,o),
(409,599,c),
(346,579,l),
(341,577,o),
(330,575,o),
(324,583,c),
(298,618,o),
(266,644,o),
(227,661,c),
(221,663,o),
(217,664,o),
(209,659,c),
(202,650,l),
(200,642,o),
(203,633,o),
(207,630,c),
(245,602,o),
(257,590,o),
(271,566,c),
(275,559,o),
(271,553,o),
(263,551,c),
(181,526,l),
(174,524,o),
(172,520,o),
(174,513,c),
(176,504,o),
(182,498,o),
(191,501,c),
(273,526,l),
(283,529,o),
(292,527,o),
(295,520,c),
(305,496,o),
(311,472,o),
(314,442,c),
(317,416,o),
(303,429,o),
(288,429,c),
(260,429,o),
(223,414,o),
(183,387,c),
(95,327,o),
(46,244,o),
(46,151,c),
(46,63,o),
(88,-13,o),
(144,-13,c)
);
},
{
closed = 1;
nodes = (
(151,36,o),
(122,82,o),
(122,155,c),
(122,275,o),
(181,379,o),
(238,379,c),
(274,379,o),
(308,329,o),
(308,263,c),
(308,139,o),
(247,36,o),
(185,36,c)
);
}
);
width = 424;
}
);
unicode = 240;
},
{
glyphname = e;
lastChange = "2023-05-15 06:40:40 +0000";
layers = (
{
hints = (
{
horizontal = 1;
place = (-12, 51);
place = (-12, 51);
type = Stem;
},
{
horizontal = 1;
place = (392, 39);
place = (392, 39);
type = Stem;
},
{
place = (38, 76);
place = (38, 76);
type = Stem;
},
{
place = (290, 59);
place = (290, 59);
type = Stem;
}
);
layerId = m01;
shapes = (
{
closed = 1;
nodes = (
(186,-12,o),
(252,12,o),
(312,64,c),
(324,79,o),
(313,106,o),
(296,93,c),
(248,56,o),
(215,40,o),
(187,39,c),
(145,38,o),
(114,71,o),
(114,129,c),
(114,143,o),
(114,157,o),
(117,170,c),
(119,186,o),
(127,189,o),
(144,194,c),
(157,198,o),
(171,202,o),
(186,206,c),
(211,214,o),
(237,224,o),
(261,236,c),
(310,261,o),
(349,297,o),
(349,356,c),
(349,403,o),
(315,431,o),
(263,431,c),
(146,431,o),
(38,283,o),
(38,133,c),
(38,53,o),
(82,-12,o),
(143,-12,c)
);
},
{
closed = 1;
nodes = (
(145,235,o),
(132,235,o),
(132,240,c),
(146,299,o),
(176,390,o),
(249,392,c),
(277,393,o),
(292,372,o),
(290,344,c),
(289,317,o),
(270,284,o),
(233,265,c),
(203,250,o),
(184,244,o),
(150,236,c)
);
}
);
width = 364;
}
);
unicode = 101;
},
{
glyphname = eacute;
lastChange = "2023-05-15 06:06:49 +0000";
layers = (
{
hints = (
{
horizontal = 1;
place = (-12, 51);
place = (-12, 51);
type = Stem;
},
{
horizontal = 1;
place = (392, 39);
place = (392, 39);
type = Stem;
},
{
place = (38, 76);
place = (38, 76);
type = Stem;
},
{
place = (290, 59);
place = (290, 59);
type = Stem;
}
);
layerId = m01;
shapes = (
{
closed = 1;
nodes = (
(186,-12,o),
(252,12,o),
(312,64,c),
(324,79,o),
(313,106,o),
(296,93,c),
(248,56,o),
(215,40,o),
(187,39,c),
(145,38,o),
(114,71,o),
(114,129,c),
(114,143,o),
(114,157,o),
(117,170,c),
(119,186,o),
(127,189,o),
(144,194,c),
(157,198,o),
(171,202,o),
(186,206,c),
(211,214,o),
(237,224,o),
(261,236,c),
(310,261,o),
(349,297,o),
(349,356,c),
(349,403,o),
(315,431,o),
(263,431,c),
(146,431,o),
(38,283,o),
(38,133,c),
(38,53,o),
(82,-12,o),
(143,-12,c)
);
},
{
closed = 1;
nodes = (
(145,235,o),
(132,235,o),
(132,240,c),
(146,299,o),
(176,390,o),
(249,392,c),
(277,393,o),
(292,372,o),
(290,344,c),
(289,317,o),
(270,284,o),
(233,265,c),
(202,250,o),
(184,244,o),
(150,236,c)
);
},
{
closed = 1;
nodes = (
(250,524,o),
(305,582,o),
(341,638,c),
(348,649,o),
(340,664,o),
(328,661,c),
(271,658,l),
(259,657,o),
(249,655,o),
(245,646,c),
(238,604,o),
(217,540,o),
(206,508,c),
(202,495,o),
(218,491,o),
(226,501,c)
);
}
);
width = 364;
}
);
unicode = 233;
},
{
glyphname = ecircumflex;
lastChange = "2023-05-15 06:06:49 +0000";
layers = (
{
hints = (
{
horizontal = 1;
place = (-12, 51);
place = (-12, 51);
type = Stem;
},
{
horizontal = 1;
place = (392, 39);
place = (392, 39);
type = Stem;
},
{
horizontal = 1;
place = (662, -20);
target = down;
type = TopGhost;
},
{
place = (38, 76);
place = (38, 76);
type = Stem;
},
{
place = (290, 59);
place = (290, 59);
type = Stem;
}
);
layerId = m01;
shapes = (
{
closed = 1;
nodes = (
(186,-12,o),
(252,12,o),
(312,64,c),
(324,79,o),
(313,106,o),
(296,93,c),
(248,56,o),
(215,40,o),
(187,39,c),
(145,38,o),
(114,71,o),
(114,129,c),
(114,143,o),
(114,157,o),
(117,170,c),
(119,186,o),
(127,189,o),
(144,194,c),
(157,198,o),
(171,202,o),
(186,206,c),
(211,214,o),
(237,224,o),
(261,236,c),
(310,261,o),
(349,297,o),
(349,356,c),
(349,403,o),
(315,431,o),
(263,431,c),
(146,431,o),
(38,283,o),
(38,133,c),
(38,53,o),
(82,-12,o),
(143,-12,c)
);
},
{
closed = 1;
nodes = (
(145,235,o),
(132,235,o),
(132,240,c),
(146,299,o),
(176,390,o),
(249,392,c),
(277,393,o),
(292,372,o),
(290,344,c),
(289,317,o),
(270,284,o),
(233,265,c),
(202,250,o),
(184,244,o),
(150,236,c)
);
},
{
closed = 1;
nodes = (
(288,582,l),
(297,588,o),
(314,581,o),
(319,576,c),
(328,566,o),
(365,520,o),
(383,499,c),
(386,492,o),
(406,489,o),
(402,499,c),
(366,650,l),
(364,659,o),
(353,662,o),
(346,662,c),
(299,662,l),
(287,660,o),
(283,660,o),
(276,652,c),
(135,510,l),
(109,484,o),
(138,490,o),
(152,499,c)
);
}
);
width = 364;
}
);
unicode = 234;
},
{
glyphname = edieresis;
lastChange = "2023-05-15 06:06:49 +0000";
layers = (
{
hints = (
{
place = (283, 103);
place = (283, 103);
type = Stem;
},
{
horizontal = 1;
place = (506, 101);
place = (506, 101);
type = Stem;
},
{
place = (129, 102);
place = (129, 102);
type = Stem;
},
{
horizontal = 1;
place = (-12, 51);
place = (-12, 51);
type = Stem;
},
{
horizontal = 1;
place = (392, 39);
place = (392, 39);
type = Stem;
},
{
place = (38, 76);
place = (38, 76);
type = Stem;
},
{
place = (283, 66);
place = (283, 66);
type = Stem;
}
);
layerId = m01;
shapes = (
{
closed = 1;
nodes = (
(186,-12,o),
(252,12,o),
(312,64,c),
(324,79,o),
(313,106,o),
(296,93,c),
(248,56,o),
(215,40,o),
(187,39,c),
(145,38,o),
(114,71,o),
(114,129,c),
(114,143,o),
(114,157,o),
(117,170,c),
(119,186,o),
(127,189,o),
(144,194,c),
(157,198,o),
(171,202,o),
(186,206,c),
(211,214,o),
(237,224,o),
(261,236,c),
(310,261,o),
(349,297,o),
(349,356,c),
(349,403,o),
(315,431,o),
(263,431,c),
(146,431,o),
(38,283,o),
(38,133,c),
(38,53,o),
(82,-12,o),
(143,-12,c)
);
},
{
closed = 1;
nodes = (
(145,235,o),
(132,235,o),
(132,240,c),
(146,299,o),
(176,390,o),
(249,392,c),
(277,393,o),
(292,372,o),
(290,344,c),
(289,317,o),
(270,284,o),
(233,265,c),
(202,250,o),
(184,244,o),
(150,236,c)
);
},
{
closed = 1;
nodes = (
(208,506,o),
(231,529,o),
(231,556,c),
(231,584,o),
(208,607,o),
(180,607,c),
(152,607,o),
(129,584,o),
(129,556,c),
(129,529,o),
(152,506,o),
(180,506,c)
);
},
{
closed = 1;
nodes = (
(364,506,o),
(386,529,o),
(386,557,c),
(386,585,o),
(364,607,o),
(335,607,c),
(307,607,o),
(283,585,o),
(283,557,c),
(283,529,o),
(307,506,o),
(335,506,c)
);
}
);
width = 364;
}
);
unicode = 235;
},
{
glyphname = egrave;
lastChange = "2023-05-15 06:06:49 +0000";
layers = (
{
hints = (
{
horizontal = 1;
place = (-12, 51);
place = (-12, 51);
type = Stem;
},
{
horizontal = 1;
place = (392, 39);
place = (392, 39);
type = Stem;
},
{
horizontal = 1;
place = (657, -20);
target = down;
type = TopGhost;
},
{
place = (38, 76);
place = (38, 76);
type = Stem;
},
{
place = (290, 59);
place = (290, 59);
type = Stem;
}
);
layerId = m01;
shapes = (
{
closed = 1;
nodes = (
(186,-12,o),
(252,12,o),
(312,64,c),
(324,79,o),
(313,106,o),
(296,93,c),
(248,56,o),
(215,40,o),
(187,39,c),
(145,38,o),
(114,71,o),
(114,129,c),
(114,143,o),
(114,157,o),
(117,170,c),
(119,186,o),
(127,189,o),
(144,194,c),
(157,198,o),
(171,202,o),
(186,206,c),
(211,214,o),
(237,224,o),
(261,236,c),
(310,261,o),
(349,297,o),
(349,356,c),
(349,403,o),
(315,431,o),
(263,431,c),
(146,431,o),
(38,283,o),
(38,133,c),
(38,53,o),
(82,-12,o),
(143,-12,c)
);
},
{
closed = 1;
nodes = (
(145,235,o),
(132,235,o),
(132,240,c),
(146,299,o),
(176,390,o),
(249,392,c),
(277,393,o),
(292,372,o),
(290,344,c),
(289,317,o),
(270,284,o),
(233,265,c),
(202,250,o),
(184,244,o),
(150,236,c)
);
},
{
closed = 1;
nodes = (
(301,492,o),
(323,491,o),
(319,504,c),
(309,539,o),
(287,621,o),
(275,643,c),
(268,656,o),
(259,657,o),
(250,657,c),
(194,657,l),
(187,657,o),
(171,647,o),
(183,635,c),
(216,601,o),
(269,535,o),
(296,499,c)
);
}
);
width = 364;
}
);
unicode = 232;
},
{
glyphname = f;
lastChange = "2023-05-15 06:06:49 +0000";
layers = (
{
hints = (
{
horizontal = 1;
place = (-274, 45);
place = (-274, 45);
type = Stem;
},
{
horizontal = 1;
place = (374, 45);
place = (374, 45);
type = Stem;
},
{
horizontal = 1;
place = (710, 48);
place = (710, 48);
type = Stem;
}
);
layerId = m01;
shapes = (
{
closed = 1;
nodes = (
(-62,-274,o),
(-29,-260,o),
(1,-238,c),
(106,-161,o),
(131,-7,o),
(152,112,c),
(196,362,l),
(201,372,o),
(198,371,o),
(211,374,c),
(261,374,l),
(275,374,o),
(288,419,o),
(271,419,c),
(216,419,l),
(209,420,o),
(208,431,o),
(210,442,c),
(223,518,l),
(237,601,o),
(251,649,o),
(268,675,c),
(281,696,o),
(303,710,o),
(320,710,c),
(358,711,o),
(364,672,o),
(397,668,c),
(418,666,o),
(443,672,o),
(444,699,c),
(445,732,o),
(406,758,o),
(366,758,c),
(318,758,o),
(266,730,o),
(229,684,c),
(203,651,o),
(184,615,o),
(164,556,c),
(150,516,o),
(137,454,o),
(131,418,c),
(122,415,o),
(114,412,o),
(106,410,c),
(97,408,o),
(87,406,o),
(72,405,c),
(58,404,o),
(55,370,o),
(69,374,c),
(108,374,l),
(115,374,o),
(121,365,o),
(120,357,c),
(101,245,o),
(84,134,o),
(62,19,c),
(52,-31,o),
(37,-132,o),
(16,-175,c),
(0,-206,o),
(-31,-229,o),
(-59,-229,c),
(-74,-229,o),
(-85,-221,o),
(-95,-211,c),
(-106,-201,o),
(-118,-185,o),
(-133,-184,c),
(-151,-182,o),
(-172,-182,o),
(-178,-215,c),
(-184,-245,o),
(-142,-274,o),
(-99,-274,c)
);
}
);
width = 283;
}
);
unicode = 102;
},
{
glyphname = g;
lastChange = "2023-05-15 06:06:49 +0000";
layers = (
{
hints = (
{
horizontal = 1;
place = (-275, 29);
place = (-275, 29);
type = Stem;
},
{
horizontal = 1;
place = (390, 40);
place = (390, 40);
type = Stem;
},
{
place = (-83, 69);
place = (-83, 69);
type = Stem;
},
{
place = (50, 76);
place = (50, 76);
type = Stem;
},
{
place = (285, 79);
place = (285, 79);
type = Stem;
}
);
layerId = m01;
shapes = (
{
closed = 1;
nodes = (
(234,-275,o),
(332,-234,o),
(332,-170,c),
(332,-137,o),
(299,-105,o),
(210,-44,c),
(155,-7,o),
(142,7,o),
(142,19,c),
(142,27,o),
(147,36,o),
(176,49,c),
(213,65,o),
(268,99,o),
(296,124,c),
(337,160,o),
(364,219,o),
(364,276,c),
(364,302,o),
(361,322,o),
(349,353,c),
(346,360,o),
(356,363,o),
(359,362,c),
(390,359,l),
(411,353,o),
(408,421,o),
(390,421,c),
(373,421,o),
(314,428,o),
(276,430,c),
(231,432,o),
(196,414,o),
(162,386,c),
(99,334,o),
(50,258,o),
(50,193,c),
(50,139,o),
(74,90,o),
(115,59,c),
(118,57,o),
(125,50,o),
(117,44,c),
(90,24,o),
(74,5,o),
(90,-29,c),
(92,-33,o),
(91,-39,o),
(84,-43,c),
(47,-63,o),
(12,-83,o),
(-23,-107,c),
(-61,-132,o),
(-83,-158,o),
(-83,-184,c),
(-83,-240,o),
(2,-275,o),
(111,-275,c)
);
},
{
closed = 1;
nodes = (
(35,-246,o),
(-14,-214,o),
(-14,-174,c),
(-14,-142,o),
(16,-116,o),
(102,-67,c),
(107,-64,o),
(118,-64,o),
(124,-70,c),
(160,-101,o),
(193,-127,o),
(233,-156,c),
(257,-173,o),
(264,-185,o),
(264,-193,c),
(264,-220,o),
(208,-246,o),
(112,-246,c)
);
},
{
closed = 1;
nodes = (
(155,89,o),
(126,130,o),
(126,185,c),
(126,211,o),
(133,247,o),
(147,287,c),
(171,358,o),
(199,390,o),
(231,390,c),
(261,390,o),
(285,352,o),
(285,289,c),
(285,231,o),
(269,173,o),
(242,132,c),
(223,104,o),
(202,89,o),
(183,89,c)
);
}
);
width = 398;
}
);
unicode = 103;
},
{
glyphname = h;
lastChange = "2023-05-15 06:06:49 +0000";
layers = (
{
hints = (
{
horizontal = 1;
place = (375, 56);
place = (375, 56);
type = Stem;
},
{
horizontal = 1;
place = (-7, 21);
target = up;
type = BottomGhost;
},
{
horizontal = 1;
place = (-12, 21);
target = up;
type = BottomGhost;
}
);
layerId = m01;
shapes = (
{
closed = 1;
nodes = (
(338,-12,o),
(398,38,o),
(444,101,c),
(450,111,o),
(438,135,o),
(425,125,c),
(383,76,o),
(366,58,o),
(357,58,c),
(350,58,o),
(351,71,o),
(352,74,c),
(410,302,l),
(417,330,o),
(436,431,o),
(376,431,c),
(330,431,o),
(274,388,o),
(184,261,c),
(179,254,o),
(174,262,o),
(177,276,c),
(266,728,l),
(273,765,o),
(245,758,o),
(219,743,c),
(122,688,l),
(111,683,o),
(117,648,o),
(134,661,c),
(153,672,o),
(167,679,o),
(174,681,c),
(178,683,o),
(182,676,o),
(180,668,c),
(149,504,o),
(86,182,o),
(52,19,c),
(50,11,o),
(49,-8,o),
(62,-7,c),
(78,-8,o),
(88,-7,o),
(99,-7,c),
(106,-7,o),
(113,-7,o),
(117,-3,c),
(122,2,o),
(127,27,o),
(129,35,c),
(132,51,o),
(138,83,o),
(156,169,c),
(183,209,o),
(308,375,o),
(334,375,c),
(355,375,o),
(338,313,o),
(335,303,c),
(283,97,l),
(278,78,o),
(259,-12,o),
(307,-12,c)
);
}
);
width = 457;
}
);
unicode = 104;
},
{
glyphname = i;
lastChange = "2023-05-15 06:06:49 +0000";
layers = (
{
hints = (
{
horizontal = 1;
place = (641, -20);
target = down;
type = TopGhost;
},
{
horizontal = 1;
place = (-11, 21);
target = up;
type = BottomGhost;
},
{
place = (165, 79);
place = (165, 79);
type = Stem;
}
);
layerId = m01;
shapes = (
{
closed = 1;
nodes = (
(138,-11,o),
(203,60,o),
(225,88,c),
(233,97,o),
(218,133,o),
(204,114,c),
(196,102,o),
(169,72,o),
(155,62,c),
(144,52,o),
(143,65,o),
(146,80,c),
(203,367,l),
(207,386,o),
(215,431,o),
(182,432,c),
(158,432,o),
(110,394,o),
(60,331,c),
(49,317,o),
(67,292,o),
(76,304,c),
(81,310,o),
(104,336,o),
(117,348,c),
(129,358,o),
(126,340,o),
(122,322,c),
(71,71,l),
(67,51,o),
(56,-10,o),
(99,-11,c)
);
},
{
closed = 1;
nodes = (
(223,519,o),
(243,561,o),
(244,605,c),
(244,624,o),
(238,641,o),
(215,641,c),
(185,642,o),
(166,597,o),
(165,557,c),
(165,535,o),
(175,520,o),
(193,520,c)
);
}
);
width = 258;
}
);
unicode = 105;
},
{
glyphname = idotless;
lastChange = "2023-05-15 06:06:49 +0000";
layers = (
{
hints = (
{
horizontal = 1;
place = (425, -20);
target = down;
type = TopGhost;
},
{
horizontal = 1;
place = (-14, 21);
target = up;
type = BottomGhost;
}
);
layerId = m01;
shapes = (
{
closed = 1;
nodes = (
(114,-14,o),
(135,0,o),
(163,26,c),
(184,46,o),
(202,66,o),
(218,87,c),
(225,96,o),
(222,104,o),
(219,110,c),
(211,115,o),
(205,116,o),
(194,101,c),
(167,71,l),
(157,60,o),
(138,35,o),
(144,77,c),
(163,154,o),
(186,277,o),
(199,361,c),
(202,381,o),
(208,425,o),
(177,425,c),
(153,425,o),
(113,390,o),
(54,322,c),
(50,315,o),
(55,293,o),
(69,300,c),
(80,307,o),
(96,322,o),
(102,332,c),
(112,344,o),
(123,345,o),
(119,321,c),
(112,272,o),
(85,136,o),
(70,67,c),
(65,42,o),
(58,-14,o),
(98,-14,c)
);
}
);
width = 258;
}
);
unicode = 305;
},
{
glyphname = iacute;
lastChange = "2023-05-15 06:06:49 +0000";
layers = (
{
hints = (
{
horizontal = 1;
place = (-11, 21);
target = up;
type = BottomGhost;
}
);
layerId = m01;
shapes = (
{
closed = 1;
nodes = (
(138,-11,o),
(203,60,o),
(225,88,c),
(233,97,o),
(218,133,o),
(204,114,c),
(196,102,o),
(169,72,o),
(155,62,c),
(144,52,o),
(143,65,o),
(146,80,c),
(203,367,l),
(207,386,o),
(215,431,o),
(182,432,c),
(158,432,o),
(110,394,o),
(60,331,c),
(49,317,o),
(67,292,o),
(76,304,c),
(81,310,o),
(104,336,o),
(117,348,c),
(129,358,o),
(126,340,o),
(122,322,c),
(71,71,l),
(67,51,o),
(56,-10,o),
(99,-11,c)
);
},
{
closed = 1;
nodes = (
(197,524,o),
(252,582,o),
(289,638,c),
(296,649,o),
(287,664,o),
(276,661,c),
(218,658,l),
(206,657,o),
(196,655,o),
(193,646,c),
(185,604,o),
(164,540,o),
(153,508,c),
(149,495,o),
(165,491,o),
(173,501,c)
);
}
);
width = 258;
}
);
unicode = 237;
},
{
glyphname = icircumflex;
lastChange = "2023-05-15 06:06:49 +0000";
layers = (
{
hints = (
{
horizontal = 1;
place = (-11, 21);
target = up;
type = BottomGhost;
},
{
horizontal = 1;
place = (662, -20);
target = down;
type = TopGhost;
}
);
layerId = m01;
shapes = (
{
closed = 1;
nodes = (
(138,-11,o),
(203,60,o),
(225,88,c),
(233,97,o),
(218,133,o),
(204,114,c),
(196,102,o),
(169,72,o),
(155,62,c),
(144,52,o),
(143,65,o),
(146,80,c),
(203,367,l),
(207,386,o),
(215,431,o),
(182,432,c),
(158,432,o),
(110,394,o),
(60,331,c),
(49,317,o),
(67,292,o),
(76,304,c),
(81,310,o),
(104,336,o),
(117,348,c),
(129,358,o),
(126,340,o),
(122,322,c),
(71,71,l),
(67,51,o),
(56,-10,o),
(99,-11,c)
);
},
{
closed = 1;
nodes = (
(204,588,l),
(213,594,o),
(218,590,o),
(221,585,c),
(284,499,l),
(287,492,o),
(307,489,o),
(303,499,c),
(269,650,l),
(267,659,o),
(256,662,o),
(249,662,c),
(209,662,l),
(197,660,o),
(194,659,o),
(186,652,c),
(56,510,l),
(32,483,o),
(59,490,o),
(73,499,c)
);
}
);
width = 258;
}
);
unicode = 238;
},
{
glyphname = idieresis;
lastChange = "2023-05-15 06:06:49 +0000";
layers = (
{
hints = (
{
place = (223, 109);
place = (223, 109);
type = Stem;
},
{
horizontal = 1;
place = (504, 106);
place = (504, 106);
type = Stem;
},
{
place = (62, 108);
place = (62, 108);
type = Stem;
},
{
horizontal = 1;
place = (-11, 21);
target = up;
type = BottomGhost;
},
{
horizontal = 1;
place = (609, -20);
target = down;
type = TopGhost;
}
);
layerId = m01;
shapes = (
{
closed = 1;
nodes = (
(138,-11,o),
(203,60,o),
(225,88,c),
(233,97,o),
(218,133,o),
(204,114,c),
(196,102,o),
(169,72,o),
(155,62,c),
(144,52,o),
(143,65,o),
(146,80,c),
(203,367,l),
(207,386,o),
(215,431,o),
(182,432,c),
(158,432,o),
(110,394,o),
(60,331,c),
(49,317,o),
(67,292,o),
(76,304,c),
(81,310,o),
(104,336,o),
(117,348,c),
(129,358,o),
(126,340,o),
(122,322,c),
(71,71,l),
(67,51,o),
(56,-10,o),
(99,-11,c)
);
},
{
closed = 1;
nodes = (
(145,504,o),
(170,528,o),
(170,556,c),
(170,586,o),
(145,609,o),
(116,609,c),
(86,609,o),
(62,586,o),
(62,556,c),
(62,528,o),
(86,504,o),
(116,504,c)
);
},
{
closed = 1;
nodes = (
(308,504,o),
(332,528,o),
(332,557,c),
(332,587,o),
(308,610,o),
(278,610,c),
(248,610,o),
(223,587,o),
(223,557,c),
(223,528,o),
(248,504,o),
(278,504,c)
);
}
);
width = 258;
}
);
unicode = 239;
},
{
glyphname = igrave;
lastChange = "2023-05-15 06:06:49 +0000";
layers = (
{
hints = (
{
horizontal = 1;
place = (657, -20);
target = down;
type = TopGhost;
},
{
horizontal = 1;
place = (-11, 21);
target = up;
type = BottomGhost;
}
);
layerId = m01;
shapes = (
{
closed = 1;
nodes = (
(138,-11,o),
(203,60,o),
(225,88,c),
(233,97,o),
(218,133,o),
(204,114,c),
(196,102,o),
(169,72,o),
(155,62,c),
(144,52,o),
(143,65,o),
(146,80,c),
(203,367,l),
(207,386,o),
(215,431,o),
(182,432,c),
(158,432,o),
(110,394,o),
(60,331,c),
(49,317,o),
(67,292,o),
(76,304,c),
(81,310,o),
(104,336,o),
(117,348,c),
(129,358,o),
(126,340,o),
(122,322,c),
(71,71,l),
(67,51,o),
(56,-10,o),
(99,-11,c)
);
},
{
closed = 1;
nodes = (
(212,492,o),
(233,491,o),
(229,504,c),
(219,539,o),
(197,621,o),
(185,643,c),
(178,656,o),
(169,657,o),
(160,657,c),
(104,657,l),
(97,657,o),
(81,647,o),
(93,635,c),
(126,601,o),
(179,535,o),
(206,499,c)
);
}
);
width = 258;
}
);
unicode = 236;
},
{
glyphname = j;
lastChange = "2023-05-15 06:06:49 +0000";
layers = (
{
hints = (
{
horizontal = 1;
place = (521, 123);
place = (521, 123);
type = Stem;
},
{
horizontal = 1;
place = (-272, 21);
target = up;
type = BottomGhost;
}
);
layerId = m01;
shapes = (
{
closed = 1;
nodes = (
(-23,-272,o),
(18,-232,o),
(49,-189,c),
(91,-131,o),
(111,-73,o),
(129,4,c),
(208,339,l),
(213,360,o),
(226,424,o),
(188,423,c),
(162,423,o),
(115,387,o),
(65,324,c),
(55,316,o),
(71,292,o),
(85,304,c),
(88,307,o),
(98,318,o),
(108,328,c),
(116,336,o),
(140,361,o),
(133,330,c),
(43,-57,l),
(37,-82,o),
(35,-100,o),
(26,-132,c),
(7,-203,o),
(-17,-255,o),
(-58,-226,c),
(-65,-221,o),
(-71,-211,o),
(-76,-204,c),
(-84,-195,o),
(-93,-186,o),
(-107,-184,c),
(-130,-181,o),
(-143,-195,o),
(-145,-216,c),
(-147,-240,o),
(-123,-272,o),
(-82,-272,c)
);
},
{
closed = 1;
nodes = (
(240,521,o),
(250,547,o),
(256,579,c),
(260,603,o),
(272,645,o),
(230,644,c),
(194,643,o),
(184,604,o),
(178,559,c),
(175,536,o),
(192,521,o),
(210,521,c)
);
}
);
width = 245;
}
);
unicode = 106;
},
{
glyphname = k;
lastChange = "2023-05-15 06:06:49 +0000";
layers = (
{
hints = (
{
horizontal = 1;
place = (202, 29);
place = (202, 29);
type = Stem;
},
{
horizontal = 1;
place = (375, 57);
place = (375, 57);
type = Stem;
},
{
horizontal = 1;
place = (-10, 21);
target = up;
type = BottomGhost;
}
);
layerId = m01;
shapes = (
{
closed = 1;
nodes = (
(85,-10,o),
(92,-10,o),
(105,-10,c),
(133,-10,o),
(127,8,o),
(129,18,c),
(162,187,l),
(163,193,o),
(168,195,o),
(172,191,c),
(188,173,o),
(205,148,o),
(231,107,c),
(258,63,o),
(280,32,o),
(323,2,c),
(336,-7,o),
(349,-10,o),
(366,-10,c),
(395,11,o),
(425,47,o),
(449,78,c),
(455,84,o),
(441,115,o),
(426,99,c),
(426,97,o),
(392,63,o),
(386,57,c),
(368,54,o),
(337,80,o),
(312,117,c),
(289,151,l),
(279,166,o),
(272,176,o),
(255,193,c),
(251,198,o),
(251,202,o),
(258,202,c),
(401,201,o),
(459,256,o),
(452,343,c),
(449,387,o),
(423,432,o),
(388,432,c),
(336,432,o),
(228,331,o),
(188,292,c),
(185,289,o),
(184,304,o),
(186,312,c),
(270,728,l),
(278,768,o),
(254,762,o),
(231,748,c),
(133,690,l),
(114,684,o),
(134,651,o),
(144,661,c),
(153,666,o),
(161,671,o),
(169,675,c),
(174,678,o),
(189,686,o),
(186,671,c),
(55,15,l),
(51,3,o),
(54,-9,o),
(72,-10,c)
);
},
{
closed = 1;
nodes = (
(188,231,o),
(173,236,o),
(182,245,c),
(258,324,o),
(329,375,o),
(353,375,c),
(374,375,o),
(387,353,o),
(387,332,c),
(388,271,o),
(358,249,o),
(314,238,c),
(292,233,o),
(267,231,o),
(241,231,c),
(219,231,o),
(209,231,o),
(188,231,c)
);
}
);
width = 459;
}
);
unicode = 107;
},
{
glyphname = l;
lastChange = "2023-05-15 06:06:49 +0000";
layers = (
{
hints = (
{
horizontal = 1;
place = (-13, 21);
target = up;
type = BottomGhost;
}
);
layerId = m01;
shapes = (
{
closed = 1;
nodes = (
(132,-13,o),
(176,22,o),
(224,81,c),
(230,97,o),
(209,114,o),
(204,101,c),
(166,57,o),
(148,43,o),
(141,43,c),
(135,43,o),
(134,47,o),
(137,63,c),
(264,720,l),
(275,776,o),
(236,758,o),
(208,741,c),
(115,685,l),
(103,681,o),
(110,643,o),
(126,655,c),
(147,667,o),
(162,676,o),
(172,680,c),
(182,687,o),
(183,677,o),
(182,670,c),
(68,78,l),
(61,41,o),
(55,-13,o),
(102,-13,c)
);
}
);
width = 256;
}
);
unicode = 108;
},
{
glyphname = lslash;
lastChange = "2023-05-15 06:06:49 +0000";
layers = (
{
hints = (
{
horizontal = 1;
place = (-15, 21);
target = up;
type = BottomGhost;
}
);
layerId = m01;
shapes = (
{
closed = 1;
nodes = (
(131,-15,o),
(171,16,o),
(222,78,c),
(231,93,o),
(214,110,o),
(207,103,c),
(165,55,o),
(146,38,o),
(138,38,c),
(131,38,o),
(135,57,o),
(136,60,c),
(185,311,l),
(187,323,o),
(194,336,o),
(201,342,c),
(274,404,l),
(283,412,o),
(287,418,o),
(291,432,c),
(306,487,l),
(309,499,o),
(303,509,o),
(296,502,c),
(269,480,o),
(243,457,o),
(217,433,c),
(210,427,o),
(211,447,o),
(213,455,c),
(254,662,l),
(265,718,o),
(226,700,o),
(197,683,c),
(106,630,l),
(100,626,o),
(100,619,o),
(103,614,c),
(107,607,l),
(110,600,o),
(117,602,o),
(123,605,c),
(135,612,o),
(145,617,o),
(153,621,c),
(167,628,o),
(174,625,o),
(172,616,c),
(124,369,l),
(119,355,o),
(116,350,o),
(108,343,c),
(46,290,l),
(41,285,o),
(31,274,o),
(27,259,c),
(14,204,l),
(9,184,o),
(29,196,o),
(36,202,c),
(58,221,o),
(69,231,o),
(91,250,c),
(100,259,o),
(100,251,o),
(95,225,c),
(66,75,l),
(60,45,o),
(55,-15,o),
(100,-15,c)
);
}
);
width = 233;
}
);
unicode = 322;
},
{
glyphname = m;
lastChange = "2023-05-15 06:06:49 +0000";
layers = (
{
hints = (
{
horizontal = 1;
place = (361, 64);
place = (361, 64);
type = Stem;
},
{
horizontal = 1;
place = (-11, 21);
target = up;
type = BottomGhost;
},
{
horizontal = 1;
place = (427, -20);
target = down;
type = TopGhost;
},
{
horizontal = 1;
place = (-12, 21);
target = up;
type = BottomGhost;
}
);
layerId = m01;
shapes = (
{
closed = 1;
nodes = (
(128,-12,o),
(135,1,o),
(136,10,c),
(138,16,o),
(138,19,o),
(139,21,c),
(142,43,o),
(146,64,o),
(150,86,c),
(158,126,o),
(167,156,o),
(181,180,c),
(204,219,o),
(293,361,o),
(333,361,c),
(339,361,o),
(336,345,o),
(333,332,c),
(272,18,l),
(270,8,o),
(269,-11,o),
(289,-11,c),
(300,-11,o),
(305,-11,o),
(321,-11,c),
(331,-12,o),
(339,-1,o),
(342,12,c),
(362,115,l),
(366,138,o),
(375,162,o),
(389,189,c),
(425,256,o),
(435,266,o),
(458,297,c),
(483,330,o),
(502,351,o),
(516,358,c),
(536,367,o),
(536,357,o),
(533,339,c),
(513,236,o),
(497,159,o),
(477,51,c),
(473,32,o),
(466,-12,o),
(502,-12,c),
(530,-12,o),
(583,34,o),
(629,99,c),
(636,109,o),
(622,138,o),
(609,121,c),
(605,116,o),
(593,100,o),
(581,85,c),
(557,57,o),
(549,57,o),
(552,72,c),
(603,337,l),
(607,359,o),
(617,425,o),
(574,425,c),
(513,425,o),
(443,339,o),
(405,273,c),
(403,269,o),
(393,262,o),
(395,270,c),
(401,299,o),
(408,345,o),
(408,379,c),
(408,406,o),
(397,427,o),
(377,427,c),
(338,427,o),
(289,379,o),
(248,328,c),
(206,277,o),
(201,268,o),
(195,260,c),
(189,250,o),
(181,248,o),
(182,252,c),
(207,384,l),
(209,396,o),
(213,427,o),
(188,427,c),
(164,427,o),
(96,370,o),
(54,303,c),
(47,279,o),
(69,281,o),
(76,289,c),
(89,305,o),
(100,322,o),
(116,336,c),
(124,343,o),
(127,336,o),
(125,324,c),
(65,13,l),
(62,-4,o),
(69,-11,o),
(84,-11,c),
(93,-11,o),
(102,-12,o),
(112,-12,c)
);
}
);
width = 681;
}
);
unicode = 109;
},
{
glyphname = n;
lastChange = "2023-05-15 06:06:49 +0000";
layers = (
{
hints = (
{
horizontal = 1;
place = (362, 67);
place = (362, 67);
type = Stem;
},
{
horizontal = 1;
place = (-11, 21);
target = up;
type = BottomGhost;
},
{
horizontal = 1;
place = (-12, 21);
target = up;
type = BottomGhost;
}
);
layerId = m01;
shapes = (
{
closed = 1;
nodes = (
(341,-12,o),
(397,24,o),
(443,93,c),
(453,108,l),
(454,115,o),
(452,123,o),
(448,127,c),
(444,131,o),
(437,134,o),
(432,126,c),
(427,120,o),
(409,98,o),
(391,78,c),
(373,57,o),
(357,47,o),
(352,48,c),
(345,50,o),
(353,71,o),
(355,76,c),
(384,178,o),
(402,256,o),
(414,303,c),
(423,340,o),
(435,429,o),
(376,429,c),
(307,429,o),
(237,333,o),
(185,262,c),
(185,262,o),
(170,237,o),
(175,258,c),
(172,250,o),
(197,374,o),
(197,374,c),
(202,399,o),
(201,428,o),
(178,429,c),
(145,431,o),
(68,330,o),
(50,305,c),
(40,291,o),
(53,263,o),
(66,279,c),
(79,296,o),
(83,303,o),
(97,319,c),
(102,324,o),
(116,346,o),
(111,319,c),
(51,14,l),
(45,-5,o),
(58,-11,o),
(71,-11,c),
(98,-11,l),
(116,-11,o),
(119,-8,o),
(123,11,c),
(154,159,l),
(180,195,o),
(296,362,o),
(335,362,c),
(349,362,o),
(343,331,o),
(341,319,c),
(326,247,o),
(291,122,o),
(278,69,c),
(270,39,o),
(267,-12,o),
(309,-12,c)
);
}
);
width = 469;
}
);
unicode = 110;
},
{
glyphname = ntilde;
lastChange = "2023-05-15 06:06:49 +0000";
layers = (
{
hints = (
{
horizontal = 1;
place = (631, -20);
target = down;
type = TopGhost;
},
{
horizontal = 1;
place = (496, 63);
place = (496, 63);
type = Stem;
},
{
horizontal = 1;
place = (362, 67);
place = (362, 67);
type = Stem;
},
{
horizontal = 1;
place = (-11, 21);
target = up;
type = BottomGhost;
},
{
horizontal = 1;
place = (564, 62);
place = (564, 62);
type = Stem;
},
{
horizontal = 1;
place = (-12, 21);
target = up;
type = BottomGhost;
}
);
layerId = m01;
shapes = (
{
closed = 1;
nodes = (
(340,-12,o),
(396,24,o),
(442,93,c),
(452,108,l),
(453,115,o),
(451,123,o),
(447,127,c),
(443,131,o),
(436,134,o),
(431,126,c),
(426,120,o),
(408,98,o),
(390,78,c),
(372,57,o),
(356,47,o),
(351,48,c),
(344,50,o),
(352,71,o),
(354,76,c),
(383,178,o),
(401,256,o),
(413,303,c),
(422,340,o),
(434,429,o),
(375,429,c),
(306,429,o),
(246,340,o),
(194,269,c),
(194,269,o),
(169,237,o),
(173,258,c),
(171,250,o),
(196,374,o),
(196,374,c),
(201,399,o),
(200,428,o),
(177,429,c),
(144,431,o),
(67,330,o),
(49,305,c),
(39,291,o),
(52,263,o),
(65,279,c),
(78,296,o),
(82,302,o),
(96,319,c),
(101,324,o),
(116,346,o),
(108,304,c),
(50,14,l),
(44,-5,o),
(57,-11,o),
(70,-11,c),
(97,-11,l),
(115,-11,o),
(118,-8,o),
(122,11,c),
(153,159,l),
(179,195,o),
(295,362,o),
(334,362,c),
(348,362,o),
(342,331,o),
(340,319,c),
(325,247,o),
(290,122,o),
(277,69,c),
(269,39,o),
(266,-12,o),
(308,-12,c)
);
},
{
closed = 1;
nodes = (
(407,496,o),
(460,541,o),
(475,612,c),
(475,615,o),
(476,619,o),
(475,625,c),
(476,629,o),
(471,632,o),
(465,631,c),
(459,631,o),
(451,629,o),
(450,625,c),
(431,571,o),
(417,559,o),
(396,559,c),
(384,559,o),
(370,565,o),
(343,586,c),
(305,617,o),
(284,626,o),
(254,626,c),
(193,626,o),
(149,585,o),
(127,499,c),
(126,486,o),
(148,491,o),
(154,499,c),
(157,509,o),
(160,513,o),
(161,517,c),
(176,553,o),
(189,564,o),
(208,564,c),
(221,564,o),
(229,561,o),
(261,535,c),
(293,509,o),
(322,496,o),
(349,496,c)
);
}
);
width = 469;
}
);
unicode = 241;
},
{
glyphname = o;
lastChange = "2023-05-15 06:06:49 +0000";
layers = (
{
hints = (
{
horizontal = 1;
place = (-12, 49);
place = (-12, 49);
type = Stem;
},
{
horizontal = 1;
place = (379, 50);
place = (379, 50);
type = Stem;
},
{
place = (38, 77);
place = (38, 77);
type = Stem;
},
{
place = (299, 75);
place = (299, 75);
type = Stem;
}
);
layerId = m01;
shapes = (
{
closed = 1;
nodes = (
(147,-12,o),
(167,-6,o),
(189,4,c),
(238,25,o),
(290,68,o),
(320,107,c),
(355,153,o),
(374,212,o),
(374,273,c),
(374,353,o),
(325,429,o),
(277,429,c),
(252,429,o),
(211,411,o),
(174,385,c),
(89,327,o),
(38,242,o),
(38,155,c),
(38,71,o),
(85,-12,o),
(133,-12,c)
);
},
{
closed = 1;
nodes = (
(146,37,o),
(115,85,o),
(115,152,c),
(115,275,o),
(171,379,o),
(228,379,c),
(265,379,o),
(299,330,o),
(299,260,c),
(299,140,o),
(238,37,o),
(177,37,c)
);
}
);
width = 401;
}
);
unicode = 111;
},
{
glyphname = oacute;
lastChange = "2023-05-15 06:06:49 +0000";
layers = (
{
hints = (
{
horizontal = 1;
place = (-12, 49);
place = (-12, 49);
type = Stem;
},
{
horizontal = 1;
place = (379, 50);
place = (379, 50);
type = Stem;
},
{
place = (38, 77);
place = (38, 77);
type = Stem;
},
{
place = (299, 75);
place = (299, 75);
type = Stem;
}
);
layerId = m01;
shapes = (
{
closed = 1;
nodes = (
(147,-12,o),
(167,-6,o),
(189,4,c),
(238,25,o),
(290,68,o),
(320,107,c),
(355,153,o),
(374,211,o),
(374,273,c),
(374,353,o),
(325,429,o),
(277,429,c),
(252,429,o),
(211,411,o),
(174,385,c),
(89,327,o),
(38,242,o),
(38,155,c),
(38,71,o),
(85,-12,o),
(133,-12,c)
);
},
{
closed = 1;
nodes = (
(146,37,o),
(115,85,o),
(115,152,c),
(115,275,o),
(171,379,o),
(228,379,c),
(265,379,o),
(299,330,o),
(299,260,c),
(299,140,o),
(238,37,o),
(177,37,c)
);
},
{
closed = 1;
nodes = (
(276,524,o),
(331,582,o),
(368,638,c),
(375,649,o),
(367,664,o),
(355,661,c),
(298,658,l),
(286,657,o),
(276,655,o),
(272,646,c),
(265,604,o),
(242,540,o),
(232,508,c),
(228,495,o),
(244,491,o),
(252,501,c)
);
}
);
width = 401;
}
);
unicode = 243;
},
{
glyphname = ocircumflex;
lastChange = "2023-05-15 06:06:49 +0000";
layers = (
{
hints = (
{
horizontal = 1;
place = (-12, 49);
place = (-12, 49);
type = Stem;
},
{
horizontal = 1;
place = (379, 50);
place = (379, 50);
type = Stem;
},
{
horizontal = 1;
place = (647, -20);
target = down;
type = TopGhost;
},
{
place = (38, 77);
place = (38, 77);
type = Stem;
},
{
place = (299, 75);
place = (299, 75);
type = Stem;
}
);
layerId = m01;
shapes = (
{
closed = 1;
nodes = (
(147,-12,o),
(167,-6,o),
(189,4,c),
(238,25,o),
(290,68,o),
(320,107,c),
(355,153,o),
(374,211,o),
(374,273,c),
(374,353,o),
(325,429,o),
(277,429,c),
(252,429,o),
(211,411,o),
(174,385,c),
(89,327,o),
(38,242,o),
(38,155,c),
(38,71,o),
(85,-12,o),
(133,-12,c)
);
},
{
closed = 1;
nodes = (
(146,37,o),
(115,85,o),
(115,152,c),
(115,275,o),
(171,379,o),
(228,379,c),
(265,379,o),
(299,330,o),
(299,260,c),
(299,140,o),
(238,37,o),
(177,37,c)
);
},
{
closed = 1;
nodes = (
(296,573,l),
(305,579,o),
(309,575,o),
(313,570,c),
(386,484,l),
(389,477,o),
(409,474,o),
(405,484,c),
(369,635,l),
(367,644,o),
(356,647,o),
(349,647,c),
(301,647,l),
(289,645,o),
(285,645,o),
(278,637,c),
(137,495,l),
(111,469,o),
(140,475,o),
(154,484,c)
);
}
);
width = 401;
}
);
unicode = 244;
},
{
glyphname = odieresis;
lastChange = "2023-05-15 06:06:49 +0000";
layers = (
{
hints = (
{
place = (299, 108);
place = (299, 108);
type = Stem;
},
{
horizontal = 1;
place = (494, 106);
place = (494, 106);
type = Stem;
},
{
place = (136, 107);
place = (136, 107);
type = Stem;
},
{
horizontal = 1;
place = (-12, 49);
place = (-12, 49);
type = Stem;
},
{
horizontal = 1;
place = (379, 50);
place = (379, 50);
type = Stem;
},
{
place = (38, 77);
place = (38, 77);
type = Stem;
},
{
horizontal = 1;
place = (599, -20);
target = down;
type = TopGhost;
},
{
place = (299, 75);
place = (299, 75);
type = Stem;
}
);
layerId = m01;
shapes = (
{
closed = 1;
nodes = (
(147,-12,o),
(167,-6,o),
(189,4,c),
(238,25,o),
(290,68,o),
(320,107,c),
(355,153,o),
(374,211,o),
(374,273,c),
(374,353,o),
(325,429,o),
(277,429,c),
(252,429,o),
(211,411,o),
(174,385,c),
(89,327,o),
(38,242,o),
(38,155,c),
(38,71,o),
(85,-12,o),
(133,-12,c)
);
},
{
closed = 1;
nodes = (
(146,37,o),
(115,85,o),
(115,152,c),
(115,275,o),
(171,379,o),
(228,379,c),
(265,379,o),
(299,330,o),
(299,260,c),
(299,140,o),
(238,37,o),
(177,37,c)
);
},
{
closed = 1;
nodes = (
(219,494,o),
(243,518,o),
(243,546,c),
(243,576,o),
(219,599,o),
(190,599,c),
(160,599,o),
(136,576,o),
(136,546,c),
(136,518,o),
(160,494,o),
(190,494,c)
);
},
{
closed = 1;
nodes = (
(383,494,o),
(407,518,o),
(407,547,c),
(407,577,o),
(383,600,o),
(353,600,c),
(323,600,o),
(298,577,o),
(298,547,c),
(298,518,o),
(323,494,o),
(353,494,c)
);
}
);
width = 401;
}
);
unicode = 246;
},
{
glyphname = ograve;
lastChange = "2023-05-15 06:06:49 +0000";
layers = (
{
hints = (
{
horizontal = 1;
place = (-12, 49);
place = (-12, 49);
type = Stem;
},
{
horizontal = 1;
place = (379, 50);
place = (379, 50);
type = Stem;
},
{
horizontal = 1;
place = (657, -20);
target = down;
type = TopGhost;
},
{
place = (38, 77);
place = (38, 77);
type = Stem;
},
{
place = (299, 75);
place = (299, 75);
type = Stem;
}
);
layerId = m01;
shapes = (
{
closed = 1;
nodes = (
(147,-12,o),
(167,-6,o),
(189,4,c),
(238,25,o),
(290,68,o),
(320,107,c),
(355,153,o),
(374,211,o),
(374,273,c),
(374,353,o),
(325,429,o),
(277,429,c),
(252,429,o),
(211,411,o),
(174,385,c),
(89,327,o),
(38,242,o),
(38,155,c),
(38,71,o),
(85,-12,o),
(133,-12,c)
);
},
{
closed = 1;
nodes = (
(146,37,o),
(115,85,o),
(115,152,c),
(115,275,o),
(171,379,o),
(228,379,c),
(265,379,o),
(299,330,o),
(299,260,c),
(299,140,o),
(238,37,o),
(177,37,c)
);
},
{
closed = 1;
nodes = (
(311,492,o),
(332,491,o),
(329,504,c),
(319,539,o),
(296,621,o),
(285,643,c),
(278,656,o),
(269,657,o),
(259,657,c),
(203,657,l),
(196,657,o),
(180,647,o),
(192,635,c),
(225,601,o),
(278,535,o),
(305,499,c)
);
}
);
width = 401;
}
);
unicode = 242;
},
{
glyphname = oslash;
lastChange = "2023-05-15 06:06:49 +0000";
layers = (
{
hints = (
{
horizontal = 1;
place = (-14, 48);
place = (-14, 48);
type = Stem;
},
{
horizontal = 1;
place = (375, 50);
place = (375, 50);
type = Stem;
},
{
place = (46, 76);
place = (46, 76);
type = Stem;
},
{
place = (305, 76);
place = (305, 76);
type = Stem;
}
);
layerId = m01;
shapes = (
{
closed = 1;
nodes = (
(154,-14,o),
(174,-8,o),
(196,2,c),
(245,23,o),
(297,65,o),
(327,104,c),
(362,150,o),
(381,208,o),
(381,270,c),
(381,300,o),
(376,326,o),
(366,350,c),
(363,356,o),
(366,365,o),
(371,370,c),
(397,398,l),
(401,402,o),
(405,409,o),
(401,413,c),
(390,424,l),
(386,429,o),
(383,427,o),
(379,422,c),
(357,396,l),
(351,389,o),
(347,385,o),
(343,390,c),
(325,411,o),
(304,425,o),
(284,425,c),
(243,425,o),
(170,383,o),
(124,334,c),
(75,282,o),
(46,215,o),
(46,150,c),
(46,120,o),
(51,90,o),
(61,64,c),
(62,61,o),
(64,53,o),
(60,48,c),
(28,10,l),
(26,7,o),
(25,2,o),
(28,-2,c),
(35,-11,l),
(37,-14,o),
(42,-17,o),
(47,-11,c),
(74,21,l),
(77,25,o),
(82,23,o),
(86,18,c),
(102,-3,o),
(120,-14,o),
(140,-14,c)
);
},
{
closed = 1;
nodes = (
(166,34,o),
(149,49,o),
(136,77,c),
(132,85,o),
(133,91,o),
(140,98,c),
(180,143,o),
(256,231,o),
(294,280,c),
(305,294,o),
(305,260,o),
(305,256,c),
(305,137,o),
(245,34,o),
(184,34,c)
);
},
{
closed = 1;
nodes = (
(127,126,o),
(122,135,o),
(122,153,c),
(122,271,o),
(179,375,o),
(235,375,c),
(257,375,o),
(277,358,o),
(291,328,c),
(293,324,o),
(290,317,o),
(285,312,c),
(247,269,o),
(171,179,o),
(134,133,c)
);
}
);
width = 403;
}
);
unicode = 248;
},
{
glyphname = otilde;
lastChange = "2023-05-15 06:06:49 +0000";
layers = (
{
hints = (
{
place = (299, 75);
place = (299, 75);
type = Stem;
},
{
horizontal = 1;
place = (379, 50);
place = (379, 50);
type = Stem;
},
{
place = (38, 77);
place = (38, 77);
type = Stem;
},
{
horizontal = 1;
place = (-12, 49);
place = (-12, 49);
type = Stem;
},
{
horizontal = 1;
place = (631, -20);
target = down;
type = TopGhost;
},
{
horizontal = 1;
place = (496, 63);
place = (496, 63);
type = Stem;
},
{
horizontal = 1;
place = (564, 62);
place = (564, 62);
type = Stem;
}
);
layerId = m01;
shapes = (
{
closed = 1;
nodes = (
(147,-12,o),
(167,-6,o),
(189,4,c),
(238,25,o),
(290,68,o),
(320,107,c),
(355,153,o),
(374,211,o),
(374,273,c),
(374,353,o),
(325,429,o),
(277,429,c),
(252,429,o),
(211,411,o),
(174,385,c),
(89,327,o),
(38,242,o),
(38,155,c),
(38,71,o),
(85,-12,o),
(133,-12,c)
);
},
{
closed = 1;
nodes = (
(146,37,o),
(115,85,o),
(115,152,c),
(115,275,o),
(171,379,o),
(228,379,c),
(265,379,o),
(299,330,o),
(299,260,c),
(299,140,o),
(238,37,o),
(177,37,c)
);
},
{
closed = 1;
nodes = (
(396,496,o),
(449,541,o),
(464,612,c),
(464,615,o),
(465,619,o),
(464,625,c),
(465,629,o),
(460,632,o),
(454,631,c),
(448,631,o),
(440,629,o),
(439,625,c),
(420,571,o),
(406,559,o),
(385,559,c),
(373,559,o),
(359,565,o),
(332,586,c),
(294,617,o),
(273,626,o),
(243,626,c),
(182,626,o),
(138,585,o),
(116,499,c),
(115,486,o),
(137,491,o),
(143,499,c),
(146,509,o),
(149,513,o),
(150,517,c),
(165,553,o),
(178,564,o),
(197,564,c),
(210,564,o),
(218,561,o),
(250,535,c),
(282,509,o),
(311,496,o),
(338,496,c)
);
}
);
width = 401;
}
);
unicode = 245;
},
{
glyphname = oe;
lastChange = "2023-05-15 06:06:49 +0000";
layers = (
{
hints = (
{
place = (528, 64);
place = (528, 64);
type = Stem;
},
{
horizontal = 1;
place = (379, 45);
place = (379, 45);
type = Stem;
},
{
place = (33, 75);
place = (33, 75);
type = Stem;
},
{
horizontal = 1;
place = (-15, 47);
place = (-15, 47);
type = Stem;
},
{
place = (286, 60);
place = (286, 60);
type = Stem;
},
{
horizontal = 1;
place = (-14, 21);
target = up;
type = BottomGhost;
},
{
horizontal = 1;
place = (392, 32);
place = (392, 32);
type = Stem;
}
);
layerId = m01;
shapes = (
{
closed = 1;
nodes = (
(150,-15,o),
(187,1,o),
(217,20,c),
(238,34,o),
(251,43,o),
(271,64,c),
(277,70,o),
(284,64,o),
(286,58,c),
(305,12,o),
(336,-14,o),
(377,-14,c),
(424,-14,o),
(485,6,o),
(548,55,c),
(559,66,o),
(544,96,o),
(533,84,c),
(498,57,o),
(465,32,o),
(418,32,c),
(372,32,o),
(346,63,o),
(346,129,c),
(346,145,o),
(347,155,o),
(349,171,c),
(350,181,o),
(358,185,o),
(363,186,c),
(406,197,o),
(457,215,o),
(503,238,c),
(559,266,o),
(592,304,o),
(592,346,c),
(592,394,o),
(556,424,o),
(503,424,c),
(445,424,o),
(397,398,o),
(360,348,c),
(355,341,o),
(350,336,o),
(347,347,c),
(331,398,o),
(305,424,o),
(265,424,c),
(237,424,o),
(205,411,o),
(171,388,c),
(82,327,o),
(33,237,o),
(33,138,c),
(33,58,o),
(74,-15,o),
(127,-15,c)
);
},
{
closed = 1;
nodes = (
(136,36,o),
(108,81,o),
(108,159,c),
(108,168,l),
(108,288,o),
(167,379,o),
(227,379,c),
(258,379,o),
(286,334,o),
(286,265,c),
(286,144,o),
(230,36,o),
(178,36,c)
);
},
{
closed = 1;
nodes = (
(368,219,o),
(356,217,o),
(358,226,c),
(384,343,o),
(425,392,o),
(481,392,c),
(509,392,o),
(528,372,o),
(528,345,c),
(528,294,o),
(477,250,o),
(376,222,c)
);
}
);
width = 581;
}
);
unicode = 339;
},
{
glyphname = p;
lastChange = "2023-05-15 06:06:49 +0000";
layers = (
{
hints = (
{
place = (339, 75);
place = (339, 75);
type = Stem;
},
{
horizontal = 1;
place = (428, -20);
target = down;
type = TopGhost;
},
{
horizontal = 1;
place = (-275, 34);
place = (-275, 34);
type = Stem;
},
{
horizontal = 1;
place = (429, -20);
target = down;
type = TopGhost;
}
);
layerId = m01;
shapes = (
{
closed = 1;
nodes = (
(-15,-274,o),
(61,-271,o),
(164,-275,c),
(183,-276,o),
(184,-241,o),
(171,-241,c),
(103,-238,o),
(94,-234,o),
(94,-208,c),
(94,-204,o),
(95,-200,o),
(95,-194,c),
(97,-184,o),
(99,-170,o),
(104,-147,c),
(131,-21,l),
(133,-16,o),
(135,-8,o),
(140,-9,c),
(288,-49,o),
(414,143,o),
(414,274,c),
(414,331,o),
(395,428,o),
(341,428,c),
(309,428,o),
(280,403,o),
(255,374,c),
(244,360,o),
(233,347,o),
(224,334,c),
(210,313,o),
(195,287,o),
(200,315,c),
(205,341,o),
(210,368,o),
(210,394,c),
(210,414,o),
(205,429,o),
(187,429,c),
(158,429,o),
(90,374,o),
(39,298,c),
(26,279,o),
(50,263,o),
(58,273,c),
(66,283,o),
(91,317,o),
(111,334,c),
(140,359,o),
(127,324,o),
(124,307,c),
(31,-145,l),
(27,-166,l),
(16,-222,o),
(7,-233,o),
(-40,-239,c),
(-40,-239,o),
(-52,-240,o),
(-56,-241,c),
(-55,-242,l),
(-62,-244,o),
(-66,-253,o),
(-67,-258,c),
(-68,-264,o),
(-66,-276,o),
(-58,-275,c)
);
},
{
closed = 1;
nodes = (
(174,21,o),
(161,28,o),
(153,34,c),
(148,37,o),
(146,42,o),
(147,48,c),
(179,208,l),
(198,238,o),
(224,277,o),
(248,310,c),
(272,343,o),
(294,366,o),
(304,366,c),
(323,366,o),
(339,330,o),
(339,270,c),
(339,140,o),
(262,21,o),
(185,21,c)
);
}
);
width = 445;
}
);
unicode = 112;
},
{
glyphname = thorn;
lastChange = "2023-05-15 06:06:49 +0000";
layers = (
{
hints = (
{
horizontal = 1;
place = (-16, 36);
place = (-16, 36);
type = Stem;
},
{
horizontal = 1;
place = (700, -20);
target = down;
type = TopGhost;
},
{
place = (355, 75);
place = (355, 75);
type = Stem;
}
);
layerId = m01;
shapes = (
{
closed = 1;
nodes = (
(4,-239,o),
(105,-241,o),
(160,-243,c),
(172,-244,o),
(177,-238,o),
(181,-229,c),
(185,-211,o),
(174,-210,o),
(158,-209,c),
(110,-205,o),
(104,-200,o),
(104,-178,c),
(104,-159,o),
(111,-135,o),
(114,-117,c),
(129,-39,l),
(132,-24,o),
(142,-11,o),
(147,-12,c),
(159,-15,o),
(171,-16,o),
(185,-16,c),
(311,-16,o),
(430,126,o),
(430,272,c),
(430,314,o),
(419,357,o),
(401,390,c),
(370,446,o),
(335,428,o),
(294,393,c),
(262,365,o),
(239,341,o),
(204,295,c),
(199,288,o),
(198,311,o),
(205,348,c),
(256,603,l),
(260,623,o),
(277,700,o),
(240,700,c),
(213,700,o),
(154,646,o),
(99,577,c),
(95,571,o),
(91,566,o),
(101,556,c),
(108,549,o),
(116,551,o),
(124,561,c),
(156,600,l),
(186,636,o),
(180,594,o),
(178,583,c),
(14,-246,o),
(41,-111,o),
(36,-136,c),
(27,-184,o),
(10,-204,o),
(-27,-210,c),
(-32,-211,o),
(-38,-212,o),
(-43,-212,c),
(-55,-211,o),
(-60,-214,o),
(-63,-219,c),
(-68,-231,o),
(-61,-244,o),
(-48,-243,c)
);
},
{
closed = 1;
nodes = (
(186,20,o),
(144,37,o),
(149,61,c),
(175,194,l),
(179,216,o),
(182,220,o),
(194,237,c),
(249,314,o),
(300,364,o),
(317,364,c),
(336,364,o),
(355,327,o),
(355,268,c),
(355,138,o),
(279,20,o),
(202,20,c)
);
}
);
width = 446;
}
);
unicode = 254;
},
{
glyphname = q;
lastChange = "2023-05-15 06:06:49 +0000";
layers = (
{
hints = (
{
horizontal = 1;
place = (-15, 64);
place = (-15, 64);
type = Stem;
},
{
horizontal = 1;
place = (363, 66);
place = (363, 66);
type = Stem;
},
{
place = (52, 75);
place = (52, 75);
type = Stem;
}
);
layerId = m01;
shapes = (
{
closed = 1;
nodes = (
(202,-274,o),
(253,-273,o),
(343,-275,c),
(363,-278,o),
(371,-238,o),
(350,-241,c),
(323,-241,o),
(286,-246,o),
(286,-209,c),
(286,-188,o),
(292,-169,o),
(296,-148,c),
(407,400,l),
(411,421,o),
(401,429,o),
(385,429,c),
(283,429,o),
(198,377,o),
(134,299,c),
(81,236,o),
(52,169,o),
(52,106,c),
(52,46,o),
(79,-15,o),
(116,-15,c),
(156,-15,o),
(229,59,o),
(263,95,c),
(271,103,o),
(269,77,o),
(268,71,c),
(223,-144,o),
(218,-166,o),
(214,-187,c),
(206,-230,o),
(199,-235,o),
(134,-241,c),
(119,-238,o),
(108,-273,o),
(125,-275,c)
);
},
{
closed = 1;
nodes = (
(140,49,o),
(127,69,o),
(127,122,c),
(127,200,o),
(161,283,o),
(212,325,c),
(239,347,o),
(269,360,o),
(321,363,c),
(323,363,o),
(326,362,o),
(322,342,c),
(290,171,l),
(209,84,o),
(174,49,o),
(156,49,c)
);
}
);
width = 426;
}
);
unicode = 113;
},
{
glyphname = r;
lastChange = "2023-05-15 06:06:49 +0000";
layers = (
{
hints = (
{
horizontal = 1;
place = (428, -20);
target = down;
type = TopGhost;
},
{
horizontal = 1;
place = (-12, 21);
target = up;
type = BottomGhost;
}
);
layerId = m01;
shapes = (
{
closed = 1;
nodes = (
(80,-12,o),
(91,-12,o),
(101,-12,c),
(120,-12,o),
(123,3,o),
(125,15,c),
(127,27,o),
(135,60,o),
(137,72,c),
(141,89,o),
(147,120,o),
(159,153,c),
(169,179,o),
(186,219,o),
(207,263,c),
(227,304,o),
(250,336,o),
(279,341,c),
(285,339,o),
(290,337,o),
(296,335,c),
(330,324,o),
(345,353,o),
(341,392,c),
(339,419,o),
(318,428,o),
(301,428,c),
(245,428,o),
(194,315,o),
(167,246,c),
(163,235,o),
(159,228,o),
(161,242,c),
(163,248,o),
(163,252,o),
(165,262,c),
(170,286,o),
(176,317,o),
(181,350,c),
(184,371,o),
(196,428,o),
(161,428,c),
(137,428,o),
(102,390,o),
(41,315,c),
(27,299,o),
(47,276,o),
(58,294,c),
(61,298,o),
(82,326,o),
(96,339,c),
(112,354,o),
(110,334,o),
(109,324,c),
(97,235,o),
(72,90,o),
(57,15,c),
(55,3,o),
(53,-12,o),
(70,-12,c)
);
}
);
width = 323;
}
);
unicode = 114;
},
{
glyphname = s;
lastChange = "2023-05-15 06:06:49 +0000";
layers = (
{
hints = (
{
horizontal = 1;
place = (387, 42);
place = (387, 42);
type = Stem;
},
{
horizontal = 1;
place = (-12, 44);
place = (-12, 44);
type = Stem;
},
{
horizontal = 1;
place = (318, 111);
place = (318, 111);
type = Stem;
}
);
layerId = m01;
shapes = (
{
closed = 1;
nodes = (
(194,-12,o),
(258,40,o),
(258,122,c),
(258,155,o),
(245,186,o),
(215,221,c),
(194,245,o),
(148,291,o),
(148,324,c),
(148,350,o),
(178,387,o),
(203,387,c),
(222,387,o),
(239,358,o),
(249,341,c),
(257,328,o),
(267,318,o),
(280,318,c),
(299,318,o),
(313,336,o),
(313,357,c),
(313,390,o),
(271,429,o),
(236,429,c),
(203,429,o),
(166,410,o),
(136,378,c),
(78,318,o),
(78,268,o),
(130,205,c),
(156,173,o),
(207,123,o),
(207,79,c),
(207,53,o),
(186,32,o),
(158,32,c),
(131,32,o),
(108,50,o),
(86,64,c),
(63,78,o),
(20,90,o),
(14,41,c),
(10,6,o),
(47,-12,o),
(95,-12,c)
);
}
);
width = 320;
}
);
unicode = 115;
},
{
glyphname = scaron;
lastChange = "2023-05-15 06:06:49 +0000";
layers = (
{
hints = (
{
horizontal = 1;
place = (387, 42);
place = (387, 42);
type = Stem;
},
{
horizontal = 1;
place = (-12, 44);
place = (-12, 44);
type = Stem;
},
{
horizontal = 1;
place = (318, 111);
place = (318, 111);
type = Stem;
}
);
layerId = m01;
shapes = (
{
closed = 1;
nodes = (
(194,-12,o),
(258,40,o),
(258,122,c),
(258,155,o),
(245,186,o),
(215,221,c),
(194,245,o),
(148,291,o),
(148,324,c),
(148,350,o),
(178,387,o),
(203,387,c),
(222,387,o),
(239,358,o),
(249,341,c),
(257,328,o),
(267,318,o),
(280,318,c),
(299,318,o),
(313,336,o),
(313,357,c),
(313,390,o),
(271,429,o),
(236,429,c),
(203,429,o),
(166,410,o),
(136,378,c),
(78,318,o),
(78,268,o),
(130,205,c),
(156,173,o),
(207,123,o),
(207,79,c),
(207,53,o),
(186,32,o),
(158,32,c),
(131,32,o),
(108,50,o),
(86,64,c),
(63,78,o),
(20,90,o),
(14,41,c),
(10,6,o),
(47,-12,o),
(95,-12,c)
);
},
{
closed = 1;
nodes = (
(241,478,l),
(255,478,o),
(266,481,o),
(272,485,c),
(415,629,l),
(436,651,o),
(407,646,o),
(398,641,c),
(260,554,l),
(252,549,o),
(245,547,o),
(240,552,c),
(166,641,l),
(162,650,o),
(144,650,o),
(146,641,c),
(183,489,l),
(185,486,o),
(189,476,o),
(199,478,c)
);
}
);
width = 320;
}
);
unicode = 353;
},
{
glyphname = germandbls;
lastChange = "2023-05-15 06:06:49 +0000";
layers = (
{
hints = (
{
place = (401, 74);
place = (401, 74);
type = Stem;
},
{
horizontal = 1;
place = (666, 33);
place = (666, 33);
type = Stem;
},
{
horizontal = 1;
place = (-243, 44);
place = (-243, 44);
type = Stem;
},
{
horizontal = 1;
place = (-16, 39);
place = (-16, 39);
type = Stem;
},
{
horizontal = 1;
place = (-243, 93);
place = (-243, 93);
type = Stem;
},
{
place = (344, 78);
place = (344, 78);
type = Stem;
},
{
horizontal = 1;
place = (-16, 78);
place = (-16, 78);
type = Stem;
}
);
layerId = m01;
shapes = (
{
closed = 1;
nodes = (
(-58,-243,o),
(-22,-227,o),
(9,-195,c),
(96,-106,o),
(125,32,o),
(145,149,c),
(160,235,o),
(193,490,o),
(238,590,c),
(258,635,o),
(300,666,o),
(336,666,c),
(373,666,o),
(401,633,o),
(401,583,c),
(401,529,o),
(376,476,o),
(339,446,c),
(317,428,o),
(304,424,o),
(265,416,c),
(260,416,o),
(256,413,o),
(255,408,c),
(254,397,l),
(253,393,o),
(256,388,o),
(259,387,c),
(281,374,o),
(288,369,o),
(299,358,c),
(327,329,o),
(344,280,o),
(344,225,c),
(344,108,o),
(304,23,o),
(260,23,c),
(240,23,o),
(227,62,o),
(196,62,c),
(178,62,o),
(164,47,o),
(164,29,c),
(164,0,o),
(191,-16,o),
(224,-16,c),
(263,-16,o),
(302,5,o),
(338,42,c),
(391,97,o),
(422,172,o),
(422,245,c),
(422,317,o),
(395,367,o),
(338,397,c),
(331,400,o),
(338,407,o),
(347,410,c),
(364,415,o),
(366,417,o),
(382,426,c),
(438,455,o),
(475,513,o),
(475,570,c),
(475,642,o),
(423,699,o),
(356,699,c),
(251,699,o),
(178,598,o),
(147,509,c),
(97,367,o),
(69,126,o),
(48,1,c),
(36,-66,o),
(25,-109,o),
(10,-143,c),
(-5,-177,o),
(-33,-199,o),
(-54,-199,c),
(-68,-199,o),
(-80,-194,o),
(-104,-174,c),
(-125,-157,o),
(-138,-150,o),
(-155,-150,c),
(-174,-150,o),
(-190,-165,o),
(-190,-184,c),
(-190,-219,o),
(-145,-243,o),
(-97,-243,c)
);
}
);
width = 446;
}
);
unicode = 223;
},
{
glyphname = t;
lastChange = "2023-05-15 06:06:49 +0000";
layers = (
{
hints = (
{
horizontal = 1;
place = (-12, 21);
target = up;
type = BottomGhost;
}
);
layerId = m01;
shapes = (
{
closed = 1;
nodes = (
(137,-12,o),
(194,24,o),
(250,87,c),
(261,99,o),
(243,128,o),
(230,114,c),
(214,96,o),
(170,62,o),
(154,53,c),
(143,46,o),
(131,48,o),
(137,74,c),
(135,68,o),
(202,366,o),
(202,366,c),
(204,371,o),
(210,372,o),
(213,373,c),
(272,373,l),
(281,372,o),
(287,385,o),
(289,396,c),
(291,408,o),
(289,421,o),
(281,421,c),
(225,421,l),
(222,420,o),
(213,423,o),
(213,425,c),
(216,436,o),
(224,460,o),
(259,548,c),
(259,568,o),
(240,562,o),
(233,551,c),
(195,489,o),
(157,435,o),
(82,397,c),
(70,391,o),
(74,373,o),
(89,373,c),
(120,373,l),
(128,372,o),
(130,364,o),
(128,356,c),
(111,287,o),
(96,223,o),
(80,154,c),
(65,93,o),
(59,51,o),
(59,33,c),
(59,5,o),
(75,-12,o),
(99,-12,c)
);
}
);
width = 294;
}
);
unicode = 116;
},
{
glyphname = u;
lastChange = "2023-05-15 06:06:49 +0000";
layers = (
{
hints = (
{
horizontal = 1;
place = (430, -20);
target = down;
type = TopGhost;
},
{
horizontal = 1;
place = (-12, 21);
target = up;
type = BottomGhost;
},
{
horizontal = 1;
place = (427, -20);
target = down;
type = TopGhost;
}
);
layerId = m01;
shapes = (
{
closed = 1;
nodes = (
(158,-12,o),
(245,69,o),
(319,182,c),
(327,194,o),
(324,166,o),
(322,158,c),
(310,110,o),
(302,67,o),
(302,23,c),
(302,5,o),
(309,-12,o),
(326,-12,c),
(349,-12,o),
(414,42,o),
(463,106,c),
(468,119,o),
(448,143,o),
(438,129,c),
(428,115,o),
(417,101,o),
(405,88,c),
(381,62,o),
(380,75,o),
(382,85,c),
(445,401,l),
(447,413,o),
(450,431,o),
(427,430,c),
(408,430,o),
(407,429,o),
(392,430,c),
(375,431,o),
(373,423,o),
(371,411,c),
(365,376,o),
(360,339,o),
(349,305,c),
(340,275,o),
(330,255,o),
(310,227,c),
(271,173,o),
(231,119,o),
(179,71,c),
(153,48,o),
(159,101,o),
(162,111,c),
(210,353,l),
(214,373,o),
(225,427,o),
(191,427,c),
(145,427,o),
(75,330,o),
(58,307,c),
(50,296,o),
(66,275,o),
(80,292,c),
(86,300,o),
(111,329,o),
(125,339,c),
(135,347,o),
(133,331,o),
(131,323,c),
(89,114,l),
(85,92,o),
(65,-12,o),
(114,-12,c)
);
}
);
width = 487;
}
);
unicode = 117;
},
{
glyphname = uacute;
lastChange = "2023-05-15 06:06:49 +0000";
layers = (
{
hints = (
{
horizontal = 1;
place = (430, -20);
target = down;
type = TopGhost;
},
{
horizontal = 1;
place = (-12, 21);
target = up;
type = BottomGhost;
},
{
horizontal = 1;
place = (427, -20);
target = down;
type = TopGhost;
}
);
layerId = m01;
shapes = (
{
closed = 1;
nodes = (
(158,-12,o),
(248,74,o),
(322,187,c),
(330,199,o),
(326,176,o),
(324,169,c),
(312,120,o),
(302,67,o),
(302,23,c),
(302,5,o),
(309,-12,o),
(326,-12,c),
(349,-12,o),
(414,42,o),
(463,106,c),
(468,119,o),
(448,143,o),
(438,129,c),
(428,115,o),
(416,101,o),
(405,88,c),
(381,62,o),
(380,75,o),
(382,85,c),
(445,401,l),
(447,413,o),
(450,431,o),
(427,430,c),
(408,430,o),
(407,429,o),
(392,430,c),
(375,431,o),
(373,423,o),
(371,411,c),
(365,376,o),
(360,339,o),
(349,305,c),
(340,275,o),
(330,254,o),
(310,227,c),
(271,173,o),
(230,118,o),
(179,71,c),
(153,47,o),
(159,101,o),
(162,111,c),
(210,353,l),
(214,373,o),
(225,427,o),
(191,427,c),
(145,427,o),
(75,330,o),
(58,307,c),
(50,296,o),
(66,275,o),
(80,292,c),
(86,300,o),
(111,329,o),
(125,339,c),
(135,347,o),
(133,332,o),
(131,324,c),
(89,114,l),
(85,92,o),
(65,-12,o),
(114,-12,c)
);
},
{
closed = 1;
nodes = (
(313,524,o),
(368,582,o),
(405,638,c),
(412,649,o),
(403,664,o),
(392,661,c),
(334,658,l),
(322,657,o),
(312,655,o),
(309,646,c),
(301,604,o),
(280,540,o),
(269,508,c),
(265,495,o),
(281,491,o),
(289,501,c)
);
}
);
width = 487;
}
);
unicode = 250;
},
{
glyphname = ucircumflex;
lastChange = "2023-05-15 06:06:49 +0000";
layers = (
{
hints = (
{
horizontal = 1;
place = (430, -20);
target = down;
type = TopGhost;
},
{
horizontal = 1;
place = (-12, 21);
target = up;
type = BottomGhost;
},
{
horizontal = 1;
place = (667, -20);
target = down;
type = TopGhost;
},
{
horizontal = 1;
place = (427, -20);
target = down;
type = TopGhost;
}
);
layerId = m01;
shapes = (
{
closed = 1;
nodes = (
(158,-12,o),
(248,74,o),
(322,187,c),
(330,199,o),
(326,176,o),
(324,169,c),
(312,120,o),
(302,67,o),
(302,23,c),
(302,5,o),
(309,-12,o),
(326,-12,c),
(349,-12,o),
(414,42,o),
(463,106,c),
(468,119,o),
(448,143,o),
(438,129,c),
(428,115,o),
(416,101,o),
(405,88,c),
(381,62,o),
(380,75,o),
(382,85,c),
(445,401,l),
(447,413,o),
(450,431,o),
(427,430,c),
(408,430,o),
(407,429,o),
(392,430,c),
(375,431,o),
(373,423,o),
(371,411,c),
(365,376,o),
(360,339,o),
(349,305,c),
(340,275,o),
(330,254,o),
(310,227,c),
(271,173,o),
(230,118,o),
(179,71,c),
(153,47,o),
(159,101,o),
(162,111,c),
(210,353,l),
(214,373,o),
(225,427,o),
(191,427,c),
(145,427,o),
(75,330,o),
(58,307,c),
(50,296,o),
(66,275,o),
(80,292,c),
(86,300,o),
(111,329,o),
(125,339,c),
(135,347,o),
(135,344,o),
(133,336,c),
(89,114,l),
(85,92,o),
(65,-12,o),
(114,-12,c)
);
},
{
closed = 1;
nodes = (
(332,591,l),
(341,597,o),
(359,590,o),
(363,585,c),
(373,575,o),
(410,529,o),
(428,507,c),
(431,500,o),
(451,497,o),
(447,507,c),
(404,655,l),
(401,664,o),
(391,667,o),
(384,667,c),
(344,667,l),
(332,665,o),
(329,664,o),
(321,657,c),
(180,518,l),
(154,493,o),
(183,498,o),
(197,507,c)
);
}
);
width = 487;
}
);
unicode = 251;
},
{
glyphname = udieresis;
lastChange = "2023-05-15 06:06:49 +0000";
layers = (
{
hints = (
{
place = (346, 108);
place = (346, 108);
type = Stem;
},
{
horizontal = 1;
place = (505, 106);
place = (505, 106);
type = Stem;
},
{
place = (184, 107);
place = (184, 107);
type = Stem;
},
{
horizontal = 1;
place = (430, -20);
target = down;
type = TopGhost;
},
{
horizontal = 1;
place = (-12, 21);
target = up;
type = BottomGhost;
},
{
horizontal = 1;
place = (610, -20);
target = down;
type = TopGhost;
},
{
horizontal = 1;
place = (427, -20);
target = down;
type = TopGhost;
}
);
layerId = m01;
shapes = (
{
closed = 1;
nodes = (
(158,-12,o),
(248,74,o),
(322,187,c),
(330,199,o),
(326,176,o),
(324,169,c),
(312,120,o),
(302,67,o),
(302,23,c),
(302,5,o),
(309,-12,o),
(326,-12,c),
(349,-12,o),
(414,42,o),
(463,106,c),
(468,119,o),
(448,143,o),
(438,129,c),
(428,115,o),
(416,101,o),
(405,88,c),
(381,62,o),
(380,75,o),
(382,85,c),
(445,401,l),
(447,413,o),
(450,431,o),
(427,430,c),
(408,430,o),
(407,429,o),
(392,430,c),
(375,431,o),
(373,423,o),
(371,411,c),
(365,376,o),
(360,339,o),
(349,305,c),
(340,275,o),
(330,254,o),
(310,227,c),
(271,173,o),
(230,118,o),
(179,71,c),
(153,47,o),
(159,101,o),
(162,111,c),
(210,353,l),
(214,373,o),
(225,427,o),
(191,427,c),
(145,427,o),
(75,330,o),
(58,307,c),
(50,296,o),
(66,275,o),
(80,292,c),
(86,300,o),
(111,329,o),
(125,339,c),
(135,347,o),
(135,344,o),
(133,336,c),
(89,114,l),
(85,92,o),
(65,-12,o),
(114,-12,c)
);
},
{
closed = 1;
nodes = (
(266,505,o),
(291,529,o),
(291,557,c),
(291,587,o),
(266,610,o),
(237,610,c),
(207,610,o),
(184,587,o),
(184,557,c),
(184,529,o),
(207,505,o),
(237,505,c)
);
},
{
closed = 1;
nodes = (
(431,505,o),
(454,529,o),
(454,558,c),
(454,588,o),
(430,611,o),
(400,611,c),
(371,611,o),
(346,588,o),
(346,558,c),
(346,529,o),
(371,505,o),
(400,505,c)
);
}
);
width = 487;
}
);
unicode = 252;
},
{
glyphname = ugrave;
lastChange = "2023-05-15 06:06:49 +0000";
layers = (
{
hints = (
{
horizontal = 1;
place = (657, -20);
target = down;
type = TopGhost;
},
{
horizontal = 1;
place = (430, -20);
target = down;
type = TopGhost;
},
{
horizontal = 1;
place = (-12, 21);
target = up;
type = BottomGhost;
},
{
horizontal = 1;
place = (427, -20);
target = down;
type = TopGhost;
}
);
layerId = m01;
shapes = (
{
closed = 1;
nodes = (
(158,-12,o),
(248,74,o),
(322,187,c),
(330,199,o),
(326,176,o),
(324,169,c),
(312,120,o),
(302,67,o),
(302,23,c),
(302,5,o),
(309,-12,o),
(326,-12,c),
(349,-12,o),
(414,42,o),
(463,106,c),
(468,119,o),
(448,143,o),
(438,129,c),
(428,115,o),
(416,101,o),
(405,88,c),
(381,62,o),
(380,75,o),
(382,85,c),
(445,401,l),
(447,413,o),
(450,431,o),
(427,430,c),
(408,430,o),
(407,429,o),
(392,430,c),
(375,431,o),
(373,423,o),
(371,411,c),
(365,376,o),
(360,339,o),
(349,305,c),
(340,275,o),
(330,254,o),
(310,227,c),
(271,173,o),
(230,118,o),
(179,71,c),
(153,47,o),
(159,101,o),
(162,111,c),
(210,353,l),
(214,373,o),
(225,427,o),
(191,427,c),
(145,427,o),
(75,330,o),
(58,307,c),
(50,296,o),
(66,275,o),
(80,292,c),
(86,300,o),
(111,329,o),
(125,339,c),
(135,347,o),
(135,344,o),
(133,336,c),
(89,114,l),
(85,92,o),
(65,-12,o),
(114,-12,c)
);
},
{
closed = 1;
nodes = (
(325,492,o),
(346,491,o),
(342,504,c),
(332,539,o),
(310,621,o),
(298,643,c),
(291,656,o),
(282,657,o),
(273,657,c),
(217,657,l),
(210,657,o),
(194,647,o),
(206,635,c),
(239,601,o),
(292,535,o),
(319,499,c)
);
}
);
width = 487;
}
);
unicode = 249;
},
{
glyphname = v;
lastChange = "2023-05-15 06:06:49 +0000";
layers = (
{
hints = (
{
place = (313, 104);
place = (313, 104);
type = Stem;
},
{
horizontal = 1;
place = (429, -20);
target = down;
type = TopGhost;
},
{
horizontal = 1;
place = (-12, 60);
place = (-12, 60);
type = Stem;
},
{
horizontal = 1;
place = (428, -20);
target = down;
type = TopGhost;
}
);
layerId = m01;
shapes = (
{
closed = 1;
nodes = (
(196,-12,o),
(417,255,o),
(417,362,c),
(417,399,o),
(398,429,o),
(368,429,c),
(347,429,o),
(313,402,o),
(313,378,c),
(313,368,o),
(319,361,o),
(328,356,c),
(337,351,o),
(338,350,o),
(338,339,c),
(338,271,o),
(218,48,o),
(154,48,c),
(144,48,o),
(149,85,o),
(150,91,c),
(188,327,l),
(192,351,o),
(196,380,o),
(196,389,c),
(196,410,o),
(188,428,o),
(169,428,c),
(137,428,o),
(86,373,o),
(40,309,c),
(30,295,o),
(51,275,o),
(62,290,c),
(79,314,o),
(95,333,o),
(106,342,c),
(127,361,o),
(118,327,o),
(116,316,c),
(87,134,l),
(83,107,o),
(63,-12,o),
(110,-12,c)
);
}
);
width = 406;
}
);
unicode = 118;
},
{
glyphname = w;
lastChange = "2023-05-15 06:06:49 +0000";
layers = (
{
hints = (
{
place = (549, 77);
place = (549, 77);
type = Stem;
},
{
horizontal = 1;
place = (428, -20);
target = down;
type = TopGhost;
},
{
horizontal = 1;
place = (-11, 58);
place = (-11, 58);
type = Stem;
},
{
horizontal = 1;
place = (427, -20);
target = down;
type = TopGhost;
},
{
horizontal = 1;
place = (429, -20);
target = down;
type = TopGhost;
}
);
layerId = m01;
shapes = (
{
closed = 1;
nodes = (
(174,-11,o),
(259,88,o),
(297,148,c),
(301,152,o),
(306,155,o),
(303,138,c),
(298,104,o),
(292,69,o),
(292,34,c),
(292,-52,o),
(381,6,o),
(404,25,c),
(481,86,o),
(626,265,o),
(626,366,c),
(626,399,o),
(606,428,o),
(578,428,c),
(551,428,o),
(526,409,o),
(526,379,c),
(526,368,o),
(532,364,o),
(539,357,c),
(544,353,o),
(549,348,o),
(549,335,c),
(549,255,o),
(452,101,o),
(394,58,c),
(363,36,o),
(363,57,o),
(368,91,c),
(378,169,o),
(401,324,o),
(417,404,c),
(418,414,o),
(420,428,o),
(400,428,c),
(390,428,o),
(380,428,o),
(369,427,c),
(349,427,o),
(348,415,o),
(346,400,c),
(323,246,l),
(294,197,o),
(188,47,o),
(155,47,c),
(144,47,o),
(152,89,o),
(153,96,c),
(188,337,l),
(191,357,o),
(205,429,o),
(168,429,c),
(127,429,o),
(54,330,o),
(36,305,c),
(20,291,o),
(48,268,o),
(57,283,c),
(63,289,o),
(77,308,o),
(92,324,c),
(115,348,o),
(114,326,o),
(110,297,c),
(84,115,l),
(80,84,o),
(61,-11,o),
(114,-11,c)
);
}
);
width = 610;
}
);
unicode = 119;
},
{
glyphname = x;
lastChange = "2023-05-15 06:06:49 +0000";
layers = (
{
hints = (
{
horizontal = 1;
place = (-12, 81);
place = (-12, 81);
type = Stem;
},
{
horizontal = 1;
place = (366, 63);
place = (366, 63);
type = Stem;
}
);
layerId = m01;
shapes = (
{
closed = 1;
nodes = (
(110,-12,o),
(184,77,o),
(212,111,c),
(244,150,l),
(248,156,o),
(254,152,o),
(257,147,c),
(289,64,l),
(312,3,o),
(320,-12,o),
(351,-12,c),
(385,-12,o),
(417,2,o),
(462,105,c),
(464,109,o),
(464,113,o),
(463,118,c),
(461,127,o),
(452,134,o),
(446,134,c),
(442,135,o),
(435,132,o),
(432,125,c),
(413,84,o),
(399,59,o),
(380,59,c),
(370,59,o),
(361,68,o),
(342,119,c),
(308,210,l),
(304,221,o),
(303,226,o),
(308,233,c),
(356,300,l),
(386,342,o),
(410,360,o),
(434,360,c),
(454,360,o),
(467,347,o),
(472,323,c),
(475,305,o),
(487,291,o),
(496,323,c),
(503,347,o),
(505,355,o),
(505,371,c),
(505,446,o),
(434,437,o),
(397,400,c),
(357,358,o),
(329,317,o),
(295,270,c),
(292,267,o),
(285,265,o),
(284,269,c),
(254,348,l),
(232,406,o),
(216,429,o),
(183,429,c),
(147,429,o),
(121,397,o),
(68,308,c),
(59,293,o),
(79,267,o),
(94,292,c),
(131,353,o),
(141,366,o),
(156,366,c),
(167,366,o),
(174,359,o),
(188,323,c),
(234,205,l),
(237,198,o),
(233,189,o),
(231,186,c),
(193,139,l),
(153,89,o),
(128,69,o),
(105,69,c),
(92,69,o),
(86,75,o),
(83,84,c),
(78,95,o),
(77,109,o),
(75,121,c),
(71,152,o),
(53,133,o),
(45,114,c),
(37,93,o),
(-4,-12,o),
(59,-12,c)
);
}
);
width = 504;
}
);
unicode = 120;
},
{
glyphname = y;
lastChange = "2023-05-15 06:06:49 +0000";
layers = (
{
hints = (
{
place = (335, 91);
place = (335, 91);
type = Stem;
},
{
horizontal = 1;
place = (429, -20);
target = down;
type = TopGhost;
},
{
place = (163, 59);
place = (163, 59);
type = Stem;
},
{
horizontal = 1;
place = (-276, 39);
place = (-276, 39);
type = Stem;
},
{
horizontal = 1;
place = (360, 68);
place = (360, 68);
type = Stem;
}
);
layerId = m01;
shapes = (
{
closed = 1;
nodes = (
(189,-279,o),
(193,-239,o),
(177,-242,c),
(168,-241,l),
(118,-238,o),
(132,-216,o),
(143,-192,c),
(175,-119,o),
(201,-51,o),
(233,22,c),
(247,53,o),
(275,95,o),
(306,140,c),
(337,184,o),
(370,231,o),
(391,271,c),
(417,319,o),
(426,343,o),
(426,372,c),
(426,405,o),
(408,429,o),
(380,429,c),
(356,429,o),
(335,408,o),
(335,382,c),
(335,367,o),
(346,359,o),
(348,344,c),
(355,291,o),
(270,149,o),
(232,85,c),
(229,80,o),
(221,73,o),
(222,83,c),
(227,174,o),
(218,428,o),
(150,428,c),
(123,428,o),
(83,389,o),
(37,320,c),
(26,303,o),
(48,282,o),
(57,295,c),
(63,304,o),
(69,312,o),
(75,320,c),
(84,333,o),
(106,360,o),
(121,360,c),
(154,360,o),
(172,191,o),
(163,69,c),
(160,31,o),
(144,-4,o),
(132,-39,c),
(117,-81,o),
(90,-140,o),
(61,-197,c),
(48,-224,o),
(39,-236,o),
(-11,-237,c),
(-31,-237,o),
(-37,-276,o),
(-22,-276,c),
(28,-274,o),
(113,-275,o),
(170,-278,c)
);
}
);
width = 437;
}
);
unicode = 121;
},
{
glyphname = yacute;
lastChange = "2023-05-15 06:06:49 +0000";
layers = (
{
hints = (
{
place = (335, 91);
place = (335, 91);
type = Stem;
},
{
horizontal = 1;
place = (429, -20);
target = down;
type = TopGhost;
},
{
place = (163, 59);
place = (163, 59);
type = Stem;
},
{
horizontal = 1;
place = (-276, 37);
place = (-276, 37);
type = Stem;
},
{
horizontal = 1;
place = (360, 68);
place = (360, 68);
type = Stem;
}
);
layerId = m01;
shapes = (
{
closed = 1;
nodes = (
(195,-279,o),
(202,-239,o),
(187,-241,c),
(174,-241,l),
(124,-241,o),
(132,-216,o),
(143,-192,c),
(175,-119,o),
(201,-51,o),
(233,22,c),
(247,53,o),
(275,95,o),
(306,140,c),
(337,184,o),
(370,231,o),
(391,271,c),
(417,319,o),
(426,343,o),
(426,372,c),
(426,405,o),
(408,429,o),
(380,429,c),
(356,429,o),
(335,408,o),
(335,382,c),
(335,367,o),
(346,359,o),
(348,344,c),
(355,291,o),
(270,149,o),
(232,85,c),
(226,75,o),
(221,69,o),
(222,83,c),
(227,174,o),
(218,428,o),
(150,428,c),
(123,428,o),
(83,389,o),
(37,320,c),
(26,303,o),
(48,282,o),
(57,295,c),
(63,304,o),
(69,312,o),
(75,320,c),
(84,333,o),
(106,360,o),
(121,360,c),
(154,360,o),
(172,191,o),
(163,69,c),
(160,31,o),
(144,-4,o),
(132,-39,c),
(117,-81,o),
(90,-140,o),
(61,-197,c),
(48,-224,o),
(39,-238,o),
(-11,-239,c),
(-31,-239,o),
(-37,-276,o),
(-22,-276,c),
(28,-274,o),
(119,-275,o),
(176,-278,c)
);
},
{
closed = 1;
nodes = (
(282,524,o),
(338,582,o),
(374,638,c),
(381,649,o),
(373,664,o),
(361,661,c),
(304,658,l),
(292,657,o),
(282,655,o),
(278,646,c),
(271,604,o),
(248,540,o),
(238,508,c),
(234,495,o),
(251,491,o),
(259,501,c)
);
}
);
width = 437;
}
);
unicode = 253;
},
{
glyphname = ydieresis;
lastChange = "2023-05-15 06:06:49 +0000";
layers = (
{
hints = (
{
place = (310, 103);
place = (310, 103);
type = Stem;
},
{
horizontal = 1;
place = (486, 101);
place = (486, 101);
type = Stem;
},
{
place = (163, 95);
place = (163, 95);
type = Stem;
},
{
horizontal = 1;
place = (-276, 37);
place = (-276, 37);
type = Stem;
},
{
horizontal = 1;
place = (360, 68);
place = (360, 68);
type = Stem;
},
{
place = (335, 91);
place = (335, 91);
type = Stem;
},
{
horizontal = 1;
place = (429, -20);
target = down;
type = TopGhost;
},
{
place = (163, 59);
place = (163, 59);
type = Stem;
}
);
layerId = m01;
shapes = (
{
closed = 1;
nodes = (
(195,-279,o),
(202,-239,o),
(187,-241,c),
(174,-241,l),
(124,-241,o),
(132,-216,o),
(143,-192,c),
(175,-119,o),
(201,-51,o),
(233,22,c),
(247,53,o),
(275,95,o),
(306,140,c),
(337,184,o),
(370,231,o),
(391,271,c),
(417,319,o),
(426,343,o),
(426,372,c),
(426,405,o),
(408,429,o),
(380,429,c),
(356,429,o),
(335,408,o),
(335,382,c),
(335,367,o),
(346,359,o),
(348,344,c),
(355,291,o),
(270,149,o),
(232,85,c),
(226,75,o),
(221,69,o),
(222,83,c),
(227,174,o),
(218,428,o),
(150,428,c),
(123,428,o),
(83,389,o),
(37,320,c),
(26,303,o),
(48,282,o),
(57,295,c),
(63,304,o),
(69,312,o),
(75,320,c),
(84,333,o),
(106,360,o),
(121,360,c),
(154,360,o),
(172,191,o),
(163,69,c),
(160,31,o),
(144,-4,o),
(132,-39,c),
(117,-81,o),
(90,-140,o),
(61,-197,c),
(48,-224,o),
(39,-238,o),
(-11,-239,c),
(-31,-239,o),
(-37,-276,o),
(-22,-276,c),
(28,-274,o),
(119,-275,o),
(176,-278,c)
);
},
{
closed = 1;
nodes = (
(235,486,o),
(258,509,o),
(258,536,c),
(258,564,o),
(235,587,o),
(207,587,c),
(179,587,o),
(156,564,o),
(156,536,c),
(156,509,o),
(179,486,o),
(207,486,c)
);
},
{
closed = 1;
nodes = (
(391,486,o),
(413,509,o),
(413,537,c),
(413,565,o),
(391,587,o),
(362,587,c),
(334,587,o),
(310,565,o),
(310,537,c),
(310,509,o),
(334,486,o),
(362,486,c)
);
}
);
width = 437;
}
);
unicode = 255;
},
{
glyphname = z;
lastChange = "2023-05-15 06:06:49 +0000";
layers = (
{
hints = (
{
horizontal = 1;
place = (-11, 61);
place = (-11, 61);
type = Stem;
},
{
horizontal = 1;
place = (65, 45);
place = (65, 45);
type = Stem;
},
{
horizontal = 1;
place = (370, 57);
place = (370, 57);
type = Stem;
}
);
layerId = m01;
shapes = (
{
closed = 1;
nodes = (
(347,-11,o),
(397,25,o),
(436,83,c),
(442,92,o),
(428,114,o),
(415,99,c),
(391,62,o),
(367,50,o),
(341,50,c),
(290,50,o),
(248,110,o),
(171,110,c),
(149,110,o),
(144,109,o),
(127,104,c),
(117,100,o),
(114,106,o),
(117,108,c),
(175,152,o),
(245,178,o),
(310,212,c),
(360,239,o),
(496,331,o),
(496,403,c),
(496,416,o),
(488,426,o),
(474,425,c),
(453,424,o),
(454,411,o),
(451,396,c),
(446,373,o),
(425,363,o),
(394,363,c),
(334,363,o),
(286,427,o),
(213,427,c),
(164,427,o),
(121,399,o),
(76,338,c),
(70,330,o),
(76,323,o),
(82,319,c),
(111,303,o),
(112,370,o),
(167,370,c),
(249,370,o),
(278,278,o),
(413,335,c),
(423,339,o),
(415,329,o),
(410,325,c),
(402,318,o),
(400,318,o),
(388,310,c),
(368,298,o),
(341,284,o),
(301,263,c),
(218,220,o),
(110,160,o),
(50,81,c),
(32,58,o),
(17,26,o),
(17,10,c),
(17,-19,o),
(58,-18,o),
(66,3,c),
(69,12,o),
(68,22,o),
(68,31,c),
(68,48,o),
(71,65,o),
(113,65,c),
(193,65,o),
(245,-11,o),
(307,-11,c)
);
}
);
width = 488;
}
);
unicode = 122;
},
{
glyphname = zcaron;
lastChange = "2023-05-15 06:06:49 +0000";
layers = (
{
hints = (
{
horizontal = 1;
place = (-11, 61);
place = (-11, 61);
type = Stem;
},
{
horizontal = 1;
place = (65, 45);
place = (65, 45);
type = Stem;
},
{
horizontal = 1;
place = (370, 57);
place = (370, 57);
type = Stem;
}
);
layerId = m01;
shapes = (
{
closed = 1;
nodes = (
(347,-11,o),
(397,25,o),
(436,83,c),
(442,92,o),
(428,114,o),
(415,99,c),
(391,62,o),
(367,50,o),
(341,50,c),
(290,50,o),
(248,110,o),
(171,110,c),
(149,110,o),
(134,107,o),
(117,101,c),
(107,98,o),
(114,106,o),
(117,108,c),
(175,152,o),
(245,178,o),
(309,212,c),
(360,239,o),
(496,331,o),
(496,403,c),
(496,416,o),
(488,426,o),
(474,425,c),
(453,424,o),
(454,411,o),
(451,396,c),
(446,373,o),
(425,363,o),
(394,363,c),
(334,363,o),
(286,427,o),
(213,427,c),
(164,427,o),
(121,399,o),
(76,338,c),
(70,330,o),
(76,323,o),
(82,319,c),
(111,303,o),
(112,370,o),
(167,370,c),
(249,370,o),
(278,279,o),
(412,335,c),
(423,340,o),
(419,332,o),
(414,328,c),
(406,321,o),
(400,318,o),
(388,310,c),
(368,298,o),
(341,284,o),
(301,263,c),
(218,220,o),
(110,160,o),
(50,81,c),
(32,58,o),
(17,26,o),
(17,10,c),
(17,-19,o),
(58,-18,o),
(66,3,c),
(69,12,o),
(68,22,o),
(68,31,c),
(68,48,o),
(71,65,o),
(113,65,c),
(193,65,o),
(245,-11,o),
(307,-11,c)
);
},
{
closed = 1;
nodes = (
(330,478,l),
(344,478,o),
(355,481,o),
(361,485,c),
(504,629,l),
(525,651,o),
(496,646,o),
(487,641,c),
(349,554,l),
(341,549,o),
(334,547,o),
(329,552,c),
(255,641,l),
(251,650,o),
(233,650,o),
(235,641,c),
(272,489,l),
(274,486,o),
(278,476,o),
(288,478,c)
);
}
);
width = 488;
}
);
unicode = 382;
},
{
glyphname = f_f;
lastChange = "2023-05-15 06:06:49 +0000";
layers = (
{
hints = (
{
horizontal = 1;
place = (368, 51);
place = (368, 51);
type = Stem;
},
{
horizontal = 1;
place = (-275, 45);
place = (-275, 45);
type = Stem;
},
{
horizontal = 1;
place = (706, 44);
place = (706, 44);
type = Stem;
},
{
horizontal = 1;
place = (754, -20);
target = down;
type = TopGhost;
}
);
layerId = m01;
shapes = (
{
closed = 1;
nodes = (
(-62,-275,o),
(-28,-261,o),
(2,-239,c),
(106,-163,o),
(130,-9,o),
(151,109,c),
(193,345,l),
(196,362,o),
(211,367,o),
(222,367,c),
(222,367,o),
(214,370,o),
(325,368,c),
(365,368,o),
(335,369,o),
(366,368,c),
(380,368,o),
(387,350,o),
(385,338,c),
(366,226,o),
(352,132,o),
(330,17,c),
(320,-33,o),
(305,-134,o),
(284,-176,c),
(268,-207,o),
(237,-230,o),
(209,-230,c),
(194,-230,o),
(184,-222,o),
(173,-212,c),
(163,-202,o),
(150,-187,o),
(135,-185,c),
(117,-184,o),
(97,-183,o),
(91,-216,c),
(85,-246,o),
(126,-275,o),
(169,-275,c),
(206,-275,o),
(239,-261,o),
(269,-239,c),
(374,-162,o),
(399,-8,o),
(420,110,c),
(463,352,l),
(468,361,o),
(474,367,o),
(485,367,c),
(485,367,o),
(528,363,o),
(529,367,c),
(543,367,o),
(557,419,o),
(540,419,c),
(484,419,l),
(477,420,o),
(476,428,o),
(478,439,c),
(491,515,l),
(505,598,o),
(519,645,o),
(535,672,c),
(549,692,o),
(570,706,o),
(587,706,c),
(625,707,o),
(631,668,o),
(664,665,c),
(685,662,o),
(710,669,o),
(711,695,c),
(712,728,o),
(673,754,o),
(633,754,c),
(585,754,o),
(533,727,o),
(497,681,c),
(470,648,o),
(452,612,o),
(432,553,c),
(418,513,o),
(412,482,o),
(406,446,c),
(401,412,o),
(386,416,o),
(348,416,c),
(348,416,o),
(332,416,o),
(315,416,c),
(298,416,o),
(254,415,o),
(232,416,c),
(222,416,o),
(206,423,o),
(209,432,c),
(223,513,l),
(237,596,o),
(251,644,o),
(267,669,c),
(280,689,o),
(308,701,o),
(325,701,c),
(362,701,o),
(374,649,o),
(408,645,c),
(477,638,o),
(474,750,o),
(377,750,c),
(330,750,o),
(267,724,o),
(229,678,c),
(203,646,o),
(184,610,o),
(163,551,c),
(149,511,o),
(137,449,o),
(130,413,c),
(122,408,o),
(108,404,o),
(70,401,c),
(57,395,o),
(54,367,o),
(68,370,c),
(110,367,l),
(119,368,o),
(121,358,o),
(120,350,c),
(101,238,o),
(84,132,o),
(62,17,c),
(53,-27,o),
(46,-67,o),
(39,-100,c),
(32,-133,o),
(25,-159,o),
(16,-176,c),
(0,-207,o),
(-31,-230,o),
(-58,-230,c),
(-73,-230,o),
(-84,-222,o),
(-95,-212,c),
(-105,-202,o),
(-117,-186,o),
(-132,-185,c),
(-150,-184,o),
(-171,-184,o),
(-177,-216,c),
(-183,-246,o),
(-141,-275,o),
(-98,-275,c)
);
}
);
width = 508;
}
);
},
{
glyphname = f_f_i;
lastChange = "2023-05-15 06:06:49 +0000";
layers = (
{
hints = (
{
horizontal = 1;
place = (368, 48);
place = (368, 48);
type = Stem;
},
{
horizontal = 1;
place = (-16, 21);
target = up;
type = BottomGhost;
},
{
horizontal = 1;
place = (705, 45);
place = (705, 45);
type = Stem;
},
{
horizontal = 1;
place = (-275, 45);
place = (-275, 45);
type = Stem;
},
{
horizontal = 1;
place = (753, -20);
target = down;
type = TopGhost;
}
);
layerId = m01;
shapes = (
{
closed = 1;
nodes = (
(-62,-275,o),
(-28,-261,o),
(2,-239,c),
(106,-163,o),
(130,-9,o),
(151,109,c),
(193,345,l),
(196,362,o),
(211,367,o),
(222,368,c),
(222,368,o),
(207,370,o),
(318,369,c),
(359,368,o),
(328,369,o),
(359,368,c),
(373,368,o),
(380,350,o),
(378,338,c),
(359,226,o),
(345,132,o),
(323,17,c),
(313,-33,o),
(298,-133,o),
(277,-176,c),
(262,-207,o),
(230,-230,o),
(202,-230,c),
(187,-230,o),
(177,-222,o),
(166,-212,c),
(156,-202,o),
(143,-186,o),
(128,-185,c),
(110,-183,o),
(90,-183,o),
(84,-216,c),
(78,-246,o),
(119,-275,o),
(162,-275,c),
(199,-275,o),
(232,-261,o),
(262,-239,c),
(367,-162,o),
(391,-8,o),
(413,110,c),
(456,352,l),
(461,362,o),
(461,367,o),
(478,368,c),
(509,368,o),
(547,368,o),
(583,367,c),
(589,367,o),
(602,365,o),
(598,337,c),
(582,238,o),
(568,165,o),
(550,60,c),
(545,32,o),
(543,-16,o),
(589,-16,c),
(627,-16,o),
(669,12,o),
(721,79,c),
(726,96,o),
(706,113,o),
(696,100,c),
(658,52,o),
(635,40,o),
(629,40,c),
(620,40,o),
(623,54,o),
(624,59,c),
(685,421,l),
(685,432,o),
(664,429,o),
(658,427,c),
(643,424,o),
(633,421,o),
(620,419,c),
(607,418,o),
(591,417,o),
(563,416,c),
(541,416,o),
(504,415,o),
(482,416,c),
(475,417,o),
(469,428,o),
(471,439,c),
(484,515,l),
(498,598,o),
(512,646,o),
(528,672,c),
(542,693,o),
(568,704,o),
(585,705,c),
(623,705,o),
(630,660,o),
(662,652,c),
(690,645,o),
(713,655,o),
(714,691,c),
(715,724,o),
(671,753,o),
(631,753,c),
(583,753,o),
(526,727,o),
(490,681,c),
(463,648,o),
(445,612,o),
(425,553,c),
(411,513,o),
(405,482,o),
(399,446,c),
(394,413,o),
(379,416,o),
(341,416,c),
(341,416,o),
(325,416,o),
(308,416,c),
(292,416,o),
(254,415,o),
(232,416,c),
(222,417,o),
(206,423,o),
(209,432,c),
(223,513,l),
(237,596,o),
(251,644,o),
(267,669,c),
(280,689,o),
(308,701,o),
(325,701,c),
(362,701,o),
(374,649,o),
(408,645,c),
(477,638,o),
(474,750,o),
(377,750,c),
(330,750,o),
(267,724,o),
(229,678,c),
(203,646,o),
(184,610,o),
(163,551,c),
(149,511,o),
(137,449,o),
(130,413,c),
(122,408,o),
(108,404,o),
(70,401,c),
(57,395,o),
(54,367,o),
(68,370,c),
(110,367,l),
(119,368,o),
(121,358,o),
(120,350,c),
(101,238,o),
(85,132,o),
(62,17,c),
(54,-27,o),
(46,-67,o),
(39,-100,c),
(32,-133,o),
(25,-159,o),
(16,-176,c),
(0,-207,o),
(-31,-230,o),
(-58,-230,c),
(-73,-230,o),
(-84,-222,o),
(-95,-212,c),
(-105,-202,o),
(-117,-186,o),
(-132,-185,c),
(-150,-184,o),
(-171,-184,o),
(-177,-216,c),
(-183,-246,o),
(-141,-275,o),
(-98,-275,c)
);
}
);
width = 730;
}
);
},
{
glyphname = f_f_l;
lastChange = "2023-05-15 06:06:49 +0000";
layers = (
{
layerId = m01;
shapes = (
{
closed = 1;
nodes = (
(-62,-275,o),
(-28,-261,o),
(2,-239,c),
(106,-163,o),
(130,-9,o),
(151,109,c),
(193,345,l),
(196,362,o),
(211,367,o),
(222,367,c),
(222,367,o),
(217,370,o),
(328,368,c),
(368,368,o),
(338,369,o),
(369,368,c),
(375,366,o),
(377,356,o),
(376,350,c),
(357,237,o),
(341,133,o),
(318,17,c),
(310,-27,o),
(302,-67,o),
(295,-100,c),
(288,-133,o),
(281,-159,o),
(272,-176,c),
(257,-207,o),
(226,-230,o),
(198,-230,c),
(183,-230,o),
(172,-222,o),
(162,-212,c),
(151,-202,o),
(140,-186,o),
(124,-185,c),
(106,-184,o),
(85,-184,o),
(79,-216,c),
(74,-246,o),
(115,-275,o),
(158,-275,c),
(195,-275,o),
(228,-261,o),
(258,-239,c),
(362,-163,o),
(388,-9,o),
(408,109,c),
(449,349,l),
(451,361,o),
(458,368,o),
(466,369,c),
(496,369,o),
(536,372,o),
(598,370,c),
(610,370,o),
(609,350,o),
(607,343,c),
(560,89,l),
(554,54,o),
(539,-16,o),
(594,-16,c),
(632,-16,o),
(673,12,o),
(726,80,c),
(737,94,o),
(711,114,o),
(701,102,c),
(662,53,o),
(649,47,o),
(637,47,c),
(628,47,o),
(630,65,o),
(631,71,c),
(748,747,l),
(746,760,o),
(733,760,o),
(725,750,c),
(717,745,o),
(710,740,o),
(701,736,c),
(696,733,o),
(690,734,o),
(684,737,c),
(618,778,o),
(528,730,o),
(485,679,c),
(458,646,o),
(440,610,o),
(420,551,c),
(409,518,o),
(398,472,o),
(391,437,c),
(390,428,o),
(384,416,o),
(351,416,c),
(351,416,o),
(335,416,o),
(318,416,c),
(301,416,o),
(254,415,o),
(232,416,c),
(222,416,o),
(206,423,o),
(209,432,c),
(223,513,l),
(237,596,o),
(251,644,o),
(267,669,c),
(280,689,o),
(308,701,o),
(325,701,c),
(362,701,o),
(374,649,o),
(408,645,c),
(477,638,o),
(474,750,o),
(377,750,c),
(330,750,o),
(267,724,o),
(229,678,c),
(203,646,o),
(184,610,o),
(163,551,c),
(149,511,o),
(137,449,o),
(130,413,c),
(122,408,o),
(108,404,o),
(70,401,c),
(57,395,o),
(54,367,o),
(68,370,c),
(110,367,l),
(119,368,o),
(121,358,o),
(120,350,c),
(101,238,o),
(84,132,o),
(62,17,c),
(53,-27,o),
(46,-67,o),
(39,-100,c),
(32,-133,o),
(25,-159,o),
(16,-176,c),
(0,-207,o),
(-31,-230,o),
(-58,-230,c),
(-73,-230,o),
(-84,-222,o),
(-95,-212,c),
(-105,-202,o),
(-117,-186,o),
(-132,-185,c),
(-150,-184,o),
(-171,-184,o),
(-177,-216,c),
(-183,-246,o),
(-141,-275,o),
(-98,-275,c)
);
},
{
closed = 1;
nodes = (
(466,415,o),
(463,430,o),
(466,438,c),
(479,513,l),
(493,596,o),
(507,644,o),
(523,669,c),
(563,731,o),
(632,708,o),
(666,649,c),
(625,434,l),
(622,417,o),
(610,415,o),
(602,415,c),
(563,414,o),
(506,415,o),
(472,415,c)
);
}
);
width = 737;
}
);
},
{
glyphname = fi;
lastChange = "2023-05-15 06:06:49 +0000";
layers = (
{
hints = (
{
horizontal = 1;
place = (-275, 45);
place = (-275, 45);
type = Stem;
},
{
horizontal = 1;
place = (367, 49);
place = (367, 49);
type = Stem;
},
{
horizontal = 1;
place = (701, 49);
place = (701, 49);
type = Stem;
},
{
horizontal = 1;
place = (-16, 21);
target = up;
type = BottomGhost;
}
);
layerId = m01;
shapes = (
{
closed = 1;
nodes = (
(-34,-275,o),
(0,-261,o),
(30,-239,c),
(134,-163,o),
(158,-9,o),
(179,109,c),
(221,345,l),
(223,359,o),
(227,369,o),
(240,369,c),
(272,370,o),
(315,371,o),
(351,370,c),
(357,370,o),
(368,365,o),
(368,356,c),
(351,257,o),
(335,165,o),
(317,60,c),
(312,32,o),
(310,-16,o),
(356,-16,c),
(394,-16,o),
(436,12,o),
(488,79,c),
(493,96,o),
(473,113,o),
(463,100,c),
(425,52,o),
(402,40,o),
(396,40,c),
(387,40,o),
(390,54,o),
(391,59,c),
(452,421,l),
(452,432,o),
(432,426,o),
(426,425,c),
(410,421,o),
(400,418,o),
(387,417,c),
(374,415,o),
(358,417,o),
(330,416,c),
(308,416,o),
(271,415,o),
(249,416,c),
(242,416,o),
(235,425,o),
(237,432,c),
(251,513,l),
(265,596,o),
(279,644,o),
(295,669,c),
(308,689,o),
(336,701,o),
(353,701,c),
(390,701,o),
(402,649,o),
(436,645,c),
(505,638,o),
(502,750,o),
(405,750,c),
(358,750,o),
(294,724,o),
(257,678,c),
(230,646,o),
(212,610,o),
(191,551,c),
(177,511,o),
(165,449,o),
(158,413,c),
(150,408,o),
(136,404,o),
(98,401,c),
(85,395,o),
(82,367,o),
(96,370,c),
(138,367,l),
(147,368,o),
(149,358,o),
(148,350,c),
(129,238,o),
(112,132,o),
(90,17,c),
(81,-27,o),
(74,-67,o),
(67,-100,c),
(60,-133,o),
(53,-159,o),
(44,-176,c),
(28,-207,o),
(-3,-230,o),
(-30,-230,c),
(-45,-230,o),
(-56,-222,o),
(-67,-212,c),
(-77,-202,o),
(-89,-186,o),
(-104,-185,c),
(-122,-184,o),
(-143,-184,o),
(-149,-216,c),
(-155,-246,o),
(-113,-275,o),
(-70,-275,c)
);
}
);
width = 504;
}
);
unicode = 64257;
},
{
glyphname = fl;
lastChange = "2023-05-15 06:06:49 +0000";
layers = (
{
hints = (
{
horizontal = 1;
place = (-275, 45);
place = (-275, 45);
type = Stem;
},
{
horizontal = 1;
place = (369, 46);
place = (369, 46);
type = Stem;
},
{
horizontal = 1;
place = (-16, 21);
target = up;
type = BottomGhost;
}
);
layerId = m01;
shapes = (
{
closed = 1;
nodes = (
(-55,-275,o),
(-22,-261,o),
(8,-239,c),
(112,-163,o),
(138,-9,o),
(158,109,c),
(199,349,l),
(201,361,o),
(208,368,o),
(216,369,c),
(246,369,o),
(286,372,o),
(348,370,c),
(360,370,o),
(359,350,o),
(357,343,c),
(310,89,l),
(304,54,o),
(289,-16,o),
(344,-16,c),
(382,-16,o),
(423,12,o),
(476,80,c),
(487,94,o),
(461,114,o),
(451,102,c),
(412,53,o),
(399,47,o),
(387,47,c),
(378,47,o),
(378,53,o),
(379,59,c),
(498,747,l),
(496,760,o),
(483,760,o),
(475,750,c),
(467,745,o),
(460,740,o),
(451,736,c),
(446,733,o),
(440,734,o),
(434,737,c),
(368,778,o),
(278,730,o),
(235,679,c),
(208,646,o),
(190,610,o),
(170,551,c),
(156,511,o),
(143,450,o),
(137,414,c),
(117,407,o),
(103,403,o),
(75,399,c),
(55,397,o),
(54,371,o),
(70,370,c),
(119,368,l),
(125,366,o),
(127,356,o),
(126,350,c),
(107,237,o),
(90,133,o),
(68,17,c),
(59,-27,o),
(52,-67,o),
(45,-100,c),
(38,-133,o),
(31,-159,o),
(22,-176,c),
(7,-207,o),
(-24,-230,o),
(-52,-230,c),
(-67,-230,o),
(-78,-222,o),
(-88,-212,c),
(-99,-202,o),
(-110,-186,o),
(-126,-185,c),
(-144,-184,o),
(-165,-184,o),
(-171,-216,c),
(-176,-246,o),
(-135,-275,o),
(-92,-275,c)
);
},
{
closed = 1;
nodes = (
(216,415,o),
(213,430,o),
(216,438,c),
(229,513,l),
(243,596,o),
(257,644,o),
(273,669,c),
(313,731,o),
(382,708,o),
(416,649,c),
(375,434,l),
(372,417,o),
(360,415,o),
(352,415,c),
(313,414,o),
(256,415,o),
(222,415,c)
);
}
);
width = 487;
}
);
unicode = 64258;
},
{
glyphname = ordfeminine;
lastChange = "2023-05-15 06:06:49 +0000";
layers = (
{
hints = (
{
horizontal = 1;
place = (662, -20);
target = down;
type = TopGhost;
},
{
horizontal = 1;
place = (399, 21);
target = up;
type = BottomGhost;
},
{
place = (100, 51);
place = (100, 51);
type = Stem;
}
);
layerId = m01;
shapes = (
{
closed = 1;
nodes = (
(160,399,o),
(190,422,o),
(234,466,c),
(241,473,o),
(239,464,o),
(238,459,c),
(237,448,o),
(236,439,o),
(236,432,c),
(236,415,o),
(244,399,o),
(260,399,c),
(275,399,o),
(296,417,o),
(323,445,c),
(326,448,o),
(328,450,o),
(331,453,c),
(331,473,l),
(331,474,o),
(329,482,o),
(326,478,c),
(317,469,o),
(306,458,o),
(298,452,c),
(291,447,o),
(289,447,o),
(289,453,c),
(290,462,o),
(292,471,o),
(294,479,c),
(332,652,l),
(333,657,o),
(332,662,o),
(326,662,c),
(312,662,l),
(285,662,o),
(247,652,o),
(219,637,c),
(151,600,o),
(100,528,o),
(100,466,c),
(100,433,o),
(118,399,o),
(143,399,c)
);
},
{
closed = 1;
nodes = (
(160,441,o),
(151,453,o),
(151,478,c),
(151,529,o),
(176,578,o),
(210,601,c),
(226,611,o),
(243,617,o),
(267,619,c),
(272,620,o),
(271,611,o),
(271,607,c),
(270,608,l),
(250,509,l),
(244,504,l),
(218,483,o),
(201,466,o),
(188,455,c),
(174,444,o),
(168,441,o),
(166,441,c)
);
}
);
width = 265;
}
);
unicode = 170;
},
{
glyphname = ordmasculine;
lastChange = "2023-05-15 06:06:49 +0000";
layers = (
{
hints = (
{
horizontal = 1;
place = (399, 33);
place = (399, 33);
type = Stem;
},
{
horizontal = 1;
place = (629, 33);
place = (629, 33);
type = Stem;
},
{
place = (112, 53);
place = (112, 53);
type = Stem;
},
{
place = (279, 51);
place = (279, 51);
type = Stem;
}
);
layerId = m01;
shapes = (
{
closed = 1;
nodes = (
(184,399,o),
(197,402,o),
(211,408,c),
(285,439,o),
(330,499,o),
(330,568,c),
(330,617,o),
(303,662,o),
(267,662,c),
(250,662,o),
(223,652,o),
(200,637,c),
(145,603,o),
(112,552,o),
(112,499,c),
(112,450,o),
(139,399,o),
(175,399,c)
);
},
{
closed = 1;
nodes = (
(184,432,o),
(165,458,o),
(165,497,c),
(165,569,o),
(201,629,o),
(234,629,c),
(258,629,o),
(279,601,o),
(279,561,c),
(279,490,o),
(240,432,o),
(203,432,c)
);
}
);
width = 265;
}
);
unicode = 186;
},
{
glyphname = zero;
lastChange = "2023-05-15 06:06:49 +0000";
layers = (
{
hints = (
{
horizontal = 1;
place = (-16, 54);
place = (-16, 54);
type = Stem;
},
{
horizontal = 1;
place = (397, 57);
place = (397, 57);
type = Stem;
},
{
place = (60, 82);
place = (60, 82);
type = Stem;
},
{
place = (331, 81);
place = (331, 81);
type = Stem;
}
);
layerId = m01;
shapes = (
{
closed = 1;
nodes = (
(175,-16,o),
(196,-9,o),
(219,1,c),
(270,24,o),
(324,68,o),
(356,110,c),
(393,160,o),
(412,221,o),
(412,287,c),
(412,372,o),
(361,454,o),
(310,454,c),
(284,454,o),
(240,434,o),
(201,407,c),
(113,345,o),
(60,254,o),
(60,162,c),
(60,73,o),
(109,-16,o),
(160,-16,c)
);
},
{
closed = 1;
nodes = (
(174,38,o),
(142,88,o),
(142,159,c),
(142,289,o),
(201,397,o),
(258,397,c),
(296,397,o),
(331,347,o),
(331,273,c),
(331,146,o),
(268,38,o),
(206,38,c)
);
}
);
width = 432;
}
);
unicode = 48;
},
{
glyphname = one;
lastChange = "2023-05-15 06:06:49 +0000";
layers = (
{
hints = (
{
horizontal = 1;
place = (-3, 33);
place = (-3, 33);
type = Stem;
},
{
horizontal = 1;
place = (460, -20);
target = down;
type = TopGhost;
}
);
layerId = m01;
shapes = (
{
closed = 1;
nodes = (
(142,-1,o),
(257,-1,o),
(306,-3,c),
(319,-4,o),
(324,29,o),
(311,30,c),
(241,34,o),
(241,41,o),
(250,88,c),
(320,448,l),
(322,456,o),
(310,460,o),
(301,460,c),
(294,460,o),
(284,458,o),
(279,454,c),
(156,382,l),
(148,379,o),
(146,370,o),
(146,363,c),
(146,355,o),
(150,347,o),
(156,350,c),
(223,380,l),
(231,382,o),
(226,370,o),
(224,358,c),
(169,76,l),
(162,41,o),
(144,33,o),
(117,31,c),
(104,30,o),
(84,39,o),
(77,24,c),
(72,14,o),
(72,-3,o),
(81,-3,c)
);
}
);
width = 380;
}
);
unicode = 49;
},
{
glyphname = two;
lastChange = "2023-05-15 06:06:49 +0000";
layers = (
{
hints = (
{
place = (325, 84);
place = (325, 84);
type = Stem;
},
{
horizontal = 1;
place = (402, 53);
place = (402, 53);
type = Stem;
},
{
horizontal = 1;
place = (-4, 21);
target = up;
type = BottomGhost;
},
{
horizontal = 1;
place = (-3, 73);
place = (-3, 73);
type = Stem;
}
);
layerId = m01;
shapes = (
{
closed = 1;
nodes = (
(109,-2,o),
(240,-3,o),
(305,-3,c),
(317,-3,o),
(325,3,o),
(331,11,c),
(351,49,o),
(364,93,o),
(378,123,c),
(385,138,o),
(354,144,o),
(347,128,c),
(338,113,o),
(334,103,o),
(329,94,c),
(316,72,o),
(296,71,o),
(273,70,c),
(236,68,o),
(166,68,o),
(132,70,c),
(122,71,o),
(132,81,o),
(133,82,c),
(162,110,o),
(189,132,o),
(279,187,c),
(341,224,o),
(409,271,o),
(409,346,c),
(409,400,o),
(366,455,o),
(298,455,c),
(215,455,o),
(154,388,o),
(120,346,c),
(113,332,o),
(133,310,o),
(145,323,c),
(177,360,o),
(214,402,o),
(265,402,c),
(296,402,o),
(325,385,o),
(325,350,c),
(325,279,o),
(235,221,o),
(187,180,c),
(117,122,o),
(75,73,o),
(44,33,c),
(38,23,o),
(36,28,o),
(36,15,c),
(35,6,o),
(41,-4,o),
(47,-4,c)
);
}
);
width = 414;
}
);
unicode = 50;
},
{
glyphname = three;
lastChange = "2023-05-15 06:06:49 +0000";
layers = (
{
hints = (
{
place = (334, 52);
place = (334, 52);
type = Stem;
},
{
horizontal = 1;
place = (399, 53);
place = (399, 53);
type = Stem;
},
{
horizontal = 1;
place = (-187, 52);
place = (-187, 52);
type = Stem;
},
{
place = (300, 86);
place = (300, 86);
type = Stem;
},
{
place = (334, 87);
place = (334, 87);
type = Stem;
}
);
layerId = m01;
shapes = (
{
closed = 1;
nodes = (
(196,-187,o),
(386,-55,o),
(386,116,c),
(386,163,o),
(351,201,o),
(309,218,c),
(301,221,o),
(296,226,o),
(304,230,c),
(351,254,o),
(421,302,o),
(421,365,c),
(421,377,o),
(418,452,o),
(317,452,c),
(260,452,o),
(197,426,o),
(118,339,c),
(106,323,o),
(135,309,o),
(142,316,c),
(202,377,o),
(247,399,o),
(282,399,c),
(311,399,o),
(334,379,o),
(334,348,c),
(334,273,o),
(229,222,o),
(169,195,c),
(152,187,o),
(154,153,o),
(175,162,c),
(196,171,o),
(213,176,o),
(232,176,c),
(273,176,o),
(300,138,o),
(300,83,c),
(300,-43,o),
(205,-135,o),
(136,-135,c),
(103,-135,o),
(81,-112,o),
(52,-100,c),
(23,-88,o),
(-1,-108,o),
(-1,-140,c),
(-1,-165,o),
(21,-187,o),
(72,-187,c)
);
}
);
width = 427;
}
);
unicode = 51;
},
